<?xml version="1.0" encoding="UTF-8" standalone="no"?>
<!-- Generator: Adobe Illustrator 18.0.0, SVG Export Plug-In . SVG Version: 6.00 Build 0)  -->

<svg
   version="1.1"
   id="Layer_1"
   x="0px"
   y="0px"
   width="324"
   height="90"
   viewBox="0 0 324 90"
   enable-background="new 0 0 324 40"
   xml:space="preserve"
   sodipodi:docname="startup-tracker.svg"
   inkscape:version="1.1 (c68e22c387, 2021-05-23)"
   xmlns:inkscape="http://www.inkscape.org/namespaces/inkscape"
   xmlns:sodipodi="http://sodipodi.sourceforge.net/DTD/sodipodi-0.dtd"
   xmlns:xlink="http://www.w3.org/1999/xlink"
   xmlns="http://www.w3.org/2000/svg"
   xmlns:svg="http://www.w3.org/2000/svg"><defs
   id="defs89" /><sodipodi:namedview
   id="namedview87"
   pagecolor="#ffffff"
   bordercolor="#666666"
   borderopacity="1.0"
   inkscape:pageshadow="2"
   inkscape:pageopacity="0.0"
   inkscape:pagecheckerboard="0"
   showgrid="false"
   inkscape:zoom="1.6867284"
   inkscape:cx="109.08692"
   inkscape:cy="-6.8179323"
   inkscape:window-width="1920"
   inkscape:window-height="1017"
   inkscape:window-x="-8"
   inkscape:window-y="-8"
   inkscape:window-maximized="1"
   inkscape:current-layer="Layer_1" />
<g
   id="g36"
   transform="translate(0,26)">
	<defs
   id="defs3">
		<rect
   id="SVGID_1_"
   x="0.5"
   y="1.5"
   width="323"
   height="38.5" />
	</defs>
	<clipPath
   id="SVGID_2_">
		<use
   xlink:href="#SVGID_1_"
   overflow="visible"
   id="use5"
   x="0"
   y="0"
   width="100%"
   height="100%" />
	</clipPath>
	<path
   clip-path="url(#SVGID_2_)"
   fill="#c2c0c0"
   d="M 11,32.4 C 8.1,32.4 5.6,31.7 3.6,30.4 1.5,29 0.4,26.8 0.5,23.9 v -0.1 l 0.1,-0.4 h 1.5 v 0.3 c 0,2.4 0.9,4.1 2.6,5.2 1.8,1.1 3.9,1.7 6.3,1.7 2.4,0 4.3,-0.5 5.9,-1.6 1.5,-1.1 2.2,-2.4 2.2,-4.1 C 19.1,23.2 18.5,22 17.3,21 16.1,20 13.8,19 10.7,18.2 7.5,17.3 5.1,16.3 3.6,15.2 2,14 1.2,12.3 1.2,10.1 1.3,8 2.2,6.3 4,5 5.8,3.7 8.1,3.1 10.9,3.1 c 2.8,0 5.1,0.8 6.9,2.4 1.8,1.6 2.7,3.6 2.6,6.1 v 0.1 L 20.3,12 h -1.5 v -0.3 c 0,-2 -0.7,-3.6 -2.2,-4.9 -1.5,-1.3 -3.4,-2 -5.7,-2 C 8.5,4.8 6.5,5.3 5.1,6.4 3.7,7.5 3,8.7 3,10.2 c 0,1.5 0.6,2.7 1.7,3.7 1.2,1 3.4,1.9 6.5,2.7 3.1,0.8 5.5,1.9 7.1,3.1 1.7,1.2 2.5,3 2.5,5.3 0,2.3 -1,4.2 -2.9,5.5 -1.8,1.3 -4.1,1.9 -6.9,1.9"
   id="path8" />
	<path
   clip-path="url(#SVGID_2_)"
   fill="#c2c0c0"
   d="m 19.5,25 c 0,-1.7 -0.6,-3.1 -1.9,-4.2 -1.3,-1 -3.5,-2 -6.7,-2.9 C 7.7,17 5.4,16.1 3.9,15 2.4,13.9 1.7,12.3 1.7,10.2 1.7,8.1 2.6,6.5 4.3,5.2 6,4 8.2,3.4 10.9,3.4 c 2.7,0 5,0.8 6.7,2.3 1.7,1.5 2.6,3.5 2.5,5.9 v 0.1 h -0.9 c 0,-2.1 -0.8,-3.8 -2.3,-5.2 -1.5,-1.4 -3.5,-2 -6,-2 -2.5,0 -4.5,0.6 -6,1.7 -1.5,1.1 -2.2,2.5 -2.2,4.1 0,1.6 0.6,2.9 1.8,3.9 1.2,1 3.4,2 6.6,2.8 3.1,0.8 5.4,1.8 7,3 1.6,1.2 2.4,2.9 2.4,5 0,2.2 -0.9,3.9 -2.7,5.2 -1.8,1.3 -4.1,1.9 -6.8,1.9 -2.8,0 -5.2,-0.7 -7.2,-2 -2,-1.3 -3,-3.4 -2.9,-6.2 v -0.1 h 0.9 c 0,2.5 0.9,4.4 2.8,5.5 1.9,1.1 4,1.7 6.5,1.7 2.5,0 4.5,-0.6 6.1,-1.7 1.5,-1.1 2.3,-2.5 2.3,-4.3"
   id="path10" />
	<path
   clip-path="url(#SVGID_2_)"
   fill="#c2c0c0"
   d="m 33.4,32.4 c -1.5,0 -2.7,-0.5 -3.5,-1.5 -0.8,-1 -1.2,-2.5 -1.2,-4.6 v -14 h -3.8 v -1.7 h 3.8 V 5 h 1.7 v 5.6 h 5.1 v 1.7 h -5.1 v 14 c 0,1.6 0.3,2.8 0.8,3.4 0.5,0.6 1.2,1 2,1 0.3,0 0.6,0 0.9,0 0.3,0 0.6,-0.1 1.1,-0.1 h 0.3 l 0.3,1.6 -0.3,0.1 c -0.3,0.1 -0.7,0.2 -1.1,0.2 -0.2,-0.1 -0.6,-0.1 -1,-0.1"
   id="path12" />
	<path
   clip-path="url(#SVGID_2_)"
   fill="#c2c0c0"
   d="M 30.1,5.4 V 11 h 5.1 v 1 h -5.1 v 14.3 c 0,1.7 0.3,2.9 0.9,3.6 0.6,0.7 1.3,1.1 2.3,1.1 0.3,0 0.7,0 0.9,0 0.3,0 0.6,-0.1 1.1,-0.1 l 0.2,0.9 c -0.3,0.1 -0.7,0.2 -1,0.2 -0.3,0 -0.7,0.1 -1.2,0.1 -1.4,0 -2.5,-0.5 -3.2,-1.4 C 29.4,29.8 29,28.3 29,26.3 V 12 H 25.2 V 11 H 29 V 5.4 Z"
   id="path14" />
	<path
   clip-path="url(#SVGID_2_)"
   fill="#c2c0c0"
   d="m 48.9,21.5 c -2.1,0 -3.8,0.5 -5.3,1.4 -1.4,0.9 -2.1,2 -2.1,3.4 0,1.3 0.4,2.3 1.3,3.2 0.9,0.8 2.1,1.2 3.5,1.2 2,0 3.7,-0.4 5.1,-1.3 1.3,-0.9 2.3,-2.1 3,-3.7 v -4.2 z m -2.5,10.9 c -2,0 -3.6,-0.6 -4.8,-1.7 -1.2,-1.1 -1.8,-2.6 -1.8,-4.5 0,-1.8 0.9,-3.4 2.6,-4.6 1.7,-1.2 3.8,-1.8 6.4,-1.8 h 5.6 v -2.7 c 0,-1.6 -0.5,-2.9 -1.5,-3.8 -1,-0.9 -2.5,-1.4 -4.5,-1.4 -1.8,0 -3.3,0.4 -4.3,1.3 -1.1,0.8 -1.6,1.9 -1.6,3.2 v 0.4 L 41.1,16.7 41,16.3 v -0.1 c -0.1,-1.7 0.6,-3.2 2,-4.4 1.4,-1.2 3.2,-1.8 5.5,-1.8 2.3,0 4.2,0.6 5.6,1.8 1.4,1.2 2.1,2.9 2.1,5.1 v 10.4 c 0,0.7 0,1.4 0.1,2.1 0.1,0.7 0.2,1.3 0.4,2 l 0.1,0.4 h -1.9 l -0.1,-0.3 c -0.2,-0.9 -0.3,-1.6 -0.3,-2.1 0,-0.2 -0.1,-0.5 -0.1,-0.7 -0.7,0.9 -1.6,1.6 -2.7,2.3 -1.4,1 -3.2,1.4 -5.3,1.4"
   id="path16" />
	<path
   clip-path="url(#SVGID_2_)"
   fill="#c2c0c0"
   d="m 46.4,31.1 c 2.1,0 3.8,-0.5 5.2,-1.4 1.4,-0.9 2.5,-2.2 3.1,-3.9 v -4.7 h -5.9 c -2.2,0 -4,0.5 -5.4,1.5 -1.5,1 -2.2,2.2 -2.2,3.7 0,1.4 0.5,2.5 1.4,3.4 1,0.9 2.2,1.4 3.8,1.4 m 8.4,-3.2 c -0.7,1.3 -1.8,2.3 -3.2,3.1 -1.4,0.8 -3.1,1.2 -5.2,1.2 -1.9,0 -3.5,-0.5 -4.6,-1.6 -1.1,-1.1 -1.7,-2.5 -1.7,-4.3 0,-1.7 0.8,-3.2 2.5,-4.4 1.6,-1.2 3.7,-1.8 6.2,-1.8 h 5.9 v -3 c 0,-1.7 -0.6,-3.1 -1.7,-4 -1.1,-1 -2.7,-1.4 -4.7,-1.4 -1.9,0 -3.4,0.5 -4.5,1.4 -1.1,0.9 -1.7,2.1 -1.7,3.5 h -0.9 v -0.1 c -0.1,-1.6 0.5,-3 1.9,-4.1 1.3,-1.1 3.1,-1.7 5.3,-1.7 2.2,0 4,0.6 5.4,1.7 1.3,1.1 2,2.7 2,4.9 v 10.4 c 0,0.7 0,1.4 0.1,2.1 0.1,0.7 0.2,1.4 0.4,2.1 H 55.1 C 54.9,31 54.8,30.3 54.8,29.9 54.7,29.4 54.7,29 54.7,28.4 l 0.1,-0.5 c 0,0 0,0 0,0"
   id="path18" />
	<path
   clip-path="url(#SVGID_2_)"
   fill="#c2c0c0"
   d="M 63,32 V 10.6 h 1.5 l 0.2,3.2 c 0.5,-0.9 1.2,-1.7 2.1,-2.3 1.2,-0.9 2.7,-1.3 4.4,-1.3 0.3,0 0.6,0 0.9,0.1 0.3,0 0.5,0.1 0.7,0.1 l 0.3,0.1 -0.2,1.5 -1.7,-0.1 c -1.7,0 -3.2,0.6 -4.2,1.7 -1.1,1.1 -1.8,2.7 -2.2,4.5 V 32 Z"
   id="path20" />
	<path
   clip-path="url(#SVGID_2_)"
   fill="#c2c0c0"
   d="m 72.5,11.7 -1.3,-0.1 c -1.9,0 -3.4,0.6 -4.5,1.8 -1.2,1.2 -1.9,2.8 -2.3,4.7 v 13.6 h -1 V 11 h 0.8 l 0.2,3.6 v 0.7 c 0.6,-1.5 1.4,-2.6 2.6,-3.5 1.1,-0.8 2.5,-1.2 4.2,-1.2 0.3,0 0.6,0 0.8,0.1 0.2,0 0.5,0.1 0.6,0.1 z"
   id="path22" />
	<path
   clip-path="url(#SVGID_2_)"
   fill="#c2c0c0"
   d="m 84.4,32.4 c -1.5,0 -2.7,-0.5 -3.5,-1.5 -0.8,-1 -1.2,-2.5 -1.2,-4.6 v -14 h -3.8 v -1.7 h 3.8 V 5 h 1.7 v 5.6 h 5.1 v 1.7 h -5.1 v 14 c 0,1.6 0.3,2.8 0.8,3.4 0.5,0.6 1.2,1 2,1 0.3,0 0.6,0 0.9,0 0.3,0 0.6,-0.1 1.1,-0.1 h 0.3 l 0.3,1.6 -0.3,0.1 c -0.3,0.1 -0.7,0.2 -1.1,0.2 -0.1,-0.1 -0.5,-0.1 -1,-0.1"
   id="path24" />
	<path
   clip-path="url(#SVGID_2_)"
   fill="#c2c0c0"
   d="M 81.2,5.4 V 11 h 5.1 v 1 h -5.1 v 14.3 c 0,1.7 0.3,2.9 0.9,3.6 0.6,0.7 1.3,1.1 2.3,1.1 0.3,0 0.7,0 0.9,0 0.3,0 0.6,-0.1 1.1,-0.1 l 0.2,0.9 c -0.3,0.1 -0.7,0.2 -1,0.2 -0.3,0 -0.7,0.1 -1.2,0.1 -1.4,0 -2.5,-0.5 -3.2,-1.4 -0.7,-0.9 -1.1,-2.4 -1.1,-4.4 V 12 h -3.8 v -1 h 3.8 V 5.4 Z"
   id="path26" />
	<path
   clip-path="url(#SVGID_2_)"
   fill="#c2c0c0"
   d="m 99.6,32.4 c -2.2,0 -4,-0.8 -5.3,-2.4 C 93,28.4 92.4,26 92.4,22.7 V 10.6 h 1.7 v 12.2 c 0,2.7 0.5,4.7 1.5,6 1,1.3 2.3,1.9 3.9,1.9 2.1,0 3.7,-0.5 4.8,-1.5 1.1,-1 1.8,-2.4 2.1,-4 V 10.6 h 1.7 V 32 h -1.5 l -0.1,-2.9 c -0.6,0.9 -1.4,1.6 -2.3,2.2 -1.3,0.8 -2.9,1.1 -4.6,1.1"
   id="path28" />
	<path
   clip-path="url(#SVGID_2_)"
   fill="#c2c0c0"
   d="m 106.8,28 c -0.7,1.3 -1.6,2.3 -2.8,3 -1.2,0.7 -2.7,1.1 -4.4,1.1 -2.1,0 -3.8,-0.8 -5,-2.3 -1.2,-1.5 -1.8,-3.9 -1.8,-7 V 11 h 1 v 11.9 c 0,2.8 0.5,4.9 1.6,6.2 1,1.3 2.4,2 4.2,2 2.2,0 3.8,-0.5 5,-1.6 1.2,-1.1 1.9,-2.5 2.2,-4.2 V 11 h 1.1 V 31.7 H 107 Z"
   id="path30" />
	<path
   clip-path="url(#SVGID_2_)"
   fill="#c2c0c0"
   d="m 116.5,26.5 c 0.5,1.3 1.3,2.3 2.4,3.1 1.1,0.8 2.6,1.2 4.3,1.2 2.1,0 3.6,-0.8 4.7,-2.4 1.1,-1.6 1.7,-3.8 1.7,-6.6 v -0.4 c 0,-2.8 -0.6,-5.1 -1.7,-6.8 -1.1,-1.7 -2.7,-2.5 -4.7,-2.5 -1.9,0 -3.4,0.5 -4.5,1.4 -1.1,1 -1.8,2.1 -2.3,3.5 v 9.5 z M 114.7,40 V 10.6 h 1.5 l 0.2,3 c 0.6,-0.9 1.4,-1.6 2.4,-2.2 1.2,-0.8 2.7,-1.1 4.4,-1.1 2.6,0 4.6,1 6,3 1.4,2 2.2,4.7 2.2,8 v 0.4 c 0,3.3 -0.7,5.9 -2.1,7.8 -1.4,1.9 -3.5,2.9 -6,2.9 -1.7,0 -3.2,-0.3 -4.4,-1 -0.9,-0.5 -1.7,-1.1 -2.3,-1.9 V 40 Z"
   id="path32" />
	<path
   clip-path="url(#SVGID_2_)"
   fill="#c2c0c0"
   d="m 130,21.3 c 0,-2.9 -0.6,-5.2 -1.7,-7 -1.2,-1.8 -2.8,-2.7 -5,-2.7 -2,0 -3.6,0.5 -4.7,1.5 -1.1,1 -1.9,2.2 -2.4,3.7 v 9.7 c 0.5,1.4 1.4,2.5 2.6,3.3 1.2,0.8 2.7,1.2 4.5,1.2 2.2,0 3.9,-0.8 5,-2.5 1.1,-1.7 1.7,-4 1.7,-6.8 v -0.4 0 m 1,0.4 c 0,3.2 -0.7,5.7 -2.1,7.6 -1.4,1.9 -3.3,2.8 -5.7,2.8 -1.6,0 -3,-0.3 -4.3,-1 -1.2,-0.7 -2.2,-1.5 -2.8,-2.6 v 11.2 h -1 V 11 h 0.8 l 0.2,3.7 c 0.7,-1.3 1.6,-2.3 2.8,-3 1.2,-0.7 2.6,-1.1 4.2,-1.1 2.4,0 4.4,1 5.8,2.9 1.4,1.9 2.1,4.5 2.1,7.8 v 0.4 0"
   id="path34" />
</g>
<polygon
   fill="#c2c0c0"
   points="143.5,5.2 143.5,3.5 165.6,3.5 165.6,5.2 155.4,5.2 155.4,32 153.7,32 153.7,5.2 "
   id="polygon38"
   transform="translate(0,26)" />
<polygon
   fill="#c2c0c0"
   points="155.1,31.7 154,31.7 154,4.8 143.8,4.8 143.8,3.8 165.2,3.8 165.2,4.8 155.1,4.8 "
   id="polygon40"
   transform="translate(0,26)" />
<g
   id="g60"
   transform="translate(0,26)">
	<defs
   id="defs43">
		<rect
   id="SVGID_3_"
   x="0.5"
   y="1.5"
   width="323"
   height="38.5" />
	</defs>
	<clipPath
   id="SVGID_4_">
		<use
   xlink:href="#SVGID_3_"
   overflow="visible"
   id="use45"
   x="0"
   y="0"
   width="100%"
   height="100%" />
	</clipPath>
	<path
   clip-path="url(#SVGID_4_)"
   fill="#c2c0c0"
   d="M 168.6,32 V 10.6 h 1.5 l 0.2,3.2 c 0.5,-0.9 1.2,-1.7 2.1,-2.3 1.2,-0.9 2.7,-1.3 4.4,-1.3 0.3,0 0.6,0 0.9,0.1 0.3,0 0.5,0.1 0.7,0.1 l 0.3,0.1 -0.2,1.5 -1.7,-0.1 c -1.7,0 -3.2,0.6 -4.2,1.7 -1.1,1.1 -1.8,2.7 -2.2,4.5 V 32 Z"
   id="path48" />
	<path
   clip-path="url(#SVGID_4_)"
   fill="#c2c0c0"
   d="m 178.1,11.7 -1.3,-0.1 c -1.9,0 -3.4,0.6 -4.5,1.8 -1.2,1.2 -1.9,2.8 -2.3,4.7 v 13.6 h -1 V 11 h 0.8 l 0.2,3.6 v 0.7 c 0.6,-1.5 1.4,-2.6 2.6,-3.5 1.1,-0.8 2.5,-1.2 4.2,-1.2 0.3,0 0.6,0 0.8,0.1 0.2,0 0.5,0.1 0.6,0.1 z"
   id="path50" />
	<path
   clip-path="url(#SVGID_4_)"
   fill="#c2c0c0"
   d="m 190.8,21.5 c -2.1,0 -3.8,0.5 -5.3,1.4 -1.4,0.9 -2.1,2 -2.1,3.4 0,1.3 0.4,2.3 1.3,3.2 0.9,0.8 2,1.2 3.5,1.2 2,0 3.7,-0.4 5.1,-1.3 1.3,-0.9 2.3,-2.1 3,-3.7 v -4.2 z m -2.5,10.9 c -2,0 -3.6,-0.6 -4.8,-1.7 -1.2,-1.1 -1.8,-2.6 -1.8,-4.5 0,-1.8 0.9,-3.4 2.6,-4.6 1.7,-1.2 3.8,-1.8 6.4,-1.8 h 5.6 v -2.7 c 0,-1.6 -0.5,-2.9 -1.5,-3.8 -1,-0.9 -2.5,-1.4 -4.5,-1.4 -1.8,0 -3.3,0.4 -4.3,1.3 -1.1,0.8 -1.6,1.9 -1.6,3.2 v 0.4 l -1.4,-0.1 -0.1,-0.4 v -0.1 c -0.1,-1.7 0.6,-3.2 2,-4.4 1.4,-1.2 3.2,-1.8 5.5,-1.8 2.3,0 4.2,0.6 5.6,1.8 1.4,1.2 2.1,2.9 2.1,5.1 v 10.4 c 0,0.7 0,1.4 0.1,2.1 0.1,0.7 0.2,1.3 0.4,2 l 0.1,0.4 h -1.9 l -0.1,-0.3 c -0.2,-0.9 -0.3,-1.6 -0.3,-2.1 0,-0.2 -0.1,-0.5 -0.1,-0.7 -0.7,0.9 -1.6,1.7 -2.7,2.3 -1.5,1 -3.3,1.4 -5.3,1.4"
   id="path52" />
	<path
   clip-path="url(#SVGID_4_)"
   fill="#c2c0c0"
   d="m 188.3,31.1 c 2.1,0 3.8,-0.5 5.2,-1.4 1.4,-0.9 2.5,-2.2 3.1,-3.9 v -4.7 h -5.9 c -2.2,0 -4,0.5 -5.4,1.5 -1.5,1 -2.2,2.2 -2.2,3.7 0,1.4 0.5,2.5 1.4,3.4 0.9,0.9 2.2,1.4 3.8,1.4 m 8.3,-3.2 c -0.7,1.3 -1.8,2.3 -3.2,3.1 -1.4,0.8 -3.1,1.2 -5.2,1.2 -1.9,0 -3.5,-0.5 -4.6,-1.6 -1.1,-1.1 -1.6,-2.6 -1.6,-4.4 0,-1.7 0.8,-3.2 2.5,-4.4 1.6,-1.2 3.7,-1.8 6.2,-1.8 h 5.9 v -3 c 0,-1.7 -0.6,-3.1 -1.7,-4 -1.1,-1 -2.7,-1.4 -4.7,-1.4 -1.9,0 -3.4,0.5 -4.5,1.4 -1.1,0.9 -1.7,2.1 -1.7,3.5 h -0.9 v -0.1 c -0.1,-1.6 0.6,-3 1.9,-4.1 1.3,-1.1 3.1,-1.7 5.3,-1.7 2.2,0 4,0.6 5.4,1.7 1.3,1.1 2,2.7 2,4.9 v 10.4 c 0,0.7 0,1.4 0.1,2.1 0.1,0.7 0.2,1.4 0.4,2.1 H 197 c -0.2,-0.9 -0.3,-1.6 -0.3,-2 -0.1,-0.5 -0.1,-0.9 -0.1,-1.5 v -0.4 0"
   id="path54" />
	<path
   clip-path="url(#SVGID_4_)"
   fill="#c2c0c0"
   d="m 212.2,32.4 c -2.8,0 -4.9,-1 -6.5,-3 -1.5,-2 -2.3,-4.6 -2.3,-7.7 v -0.8 c 0,-3.2 0.8,-5.7 2.3,-7.7 1.6,-2 3.7,-3 6.5,-3 2.2,0 4.1,0.7 5.7,2 1.6,1.3 2.3,3.2 2.3,5.6 v 0.1 l -0.1,0.4 h -1.5 V 18 c 0,-1.9 -0.6,-3.4 -1.8,-4.4 -1.2,-1 -2.8,-1.5 -4.5,-1.5 -2.3,0 -4.1,0.8 -5.3,2.5 -1.2,1.7 -1.8,3.9 -1.8,6.5 v 0.8 c 0,2.7 0.6,4.9 1.8,6.5 1.2,1.7 2.9,2.5 5.3,2.5 1.7,0 3.2,-0.5 4.4,-1.4 1.3,-0.9 1.9,-2.2 1.9,-4 V 25 h 1.5 l 0.1,0.4 v 0.1 c 0.1,2.1 -0.7,3.9 -2.4,5.1 -1.6,1.2 -3.5,1.8 -5.6,1.8"
   id="path56" />
	<path
   clip-path="url(#SVGID_4_)"
   fill="#c2c0c0"
   d="m 212.2,31.1 c 1.8,0 3.3,-0.5 4.6,-1.4 1.3,-1 2,-2.4 2,-4.3 h 0.9 v 0.1 c 0.1,2 -0.7,3.6 -2.2,4.9 -1.5,1.2 -3.3,1.8 -5.4,1.8 -2.7,0 -4.7,-1 -6.2,-2.9 -1.5,-1.9 -2.3,-4.4 -2.3,-7.5 V 21 c 0,-3.1 0.8,-5.6 2.2,-7.5 1.5,-1.9 3.6,-2.9 6.2,-2.9 2.2,0 4,0.6 5.5,1.9 1.5,1.3 2.2,3 2.2,5.3 v 0.1 h -0.9 c 0,-2 -0.7,-3.6 -2,-4.7 -1.3,-1.1 -2.9,-1.6 -4.7,-1.6 -2.4,0 -4.3,0.9 -5.5,2.6 -1.3,1.7 -1.9,4 -1.9,6.7 v 0.8 c 0,2.8 0.6,5 1.9,6.7 1.3,1.8 3.1,2.7 5.6,2.7"
   id="path58" />
</g>
<polygon
   fill="#c2c0c0"
   points="228.1,21.4 230.4,21.4 240.2,32 241.8,32 242,31.5 231.8,20.4 241.3,11.2 241.1,10.6 239.5,10.6 230,19.7 228.1,19.7 228.1,1.5 226.4,1.5 226.4,32 228.1,32 "
   id="polygon62"
   transform="translate(0,26)" />
<polygon
   fill="#c2c0c0"
   points="227.7,21.1 230.6,21.1 240.4,31.7 241.6,31.7 241.6,31.6 231.3,20.4 240.9,11.1 240.8,11 239.6,11 230.2,20.1 227.7,20.1 227.7,1.8 226.7,1.8 226.7,31.7 227.7,31.7 "
   id="polygon64"
   transform="translate(0,26)" />
<g
   id="g84"
   transform="translate(0,26)">
	<defs
   id="defs67">
		<rect
   id="SVGID_5_"
   x="0.5"
   y="1.5"
   width="323"
   height="38.5" />
	</defs>
	<clipPath
   id="SVGID_6_">
		<use
   xlink:href="#SVGID_5_"
   overflow="visible"
   id="use69"
   x="0"
   y="0"
   width="100%"
   height="100%" />
	</clipPath>
	<path
   clip-path="url(#SVGID_6_)"
   fill="#c2c0c0"
   d="M 260.9,19.3 V 19 c 0,-2 -0.6,-3.7 -1.8,-5 -1.2,-1.3 -2.8,-2 -4.7,-2 -2,0 -3.6,0.7 -4.9,2.1 -1.3,1.4 -2,3.1 -2.2,5.2 z m -15.6,2.8 v -1.2 c 0,-3 0.9,-5.6 2.6,-7.6 1.7,-2 3.9,-3 6.4,-3 2.4,0 4.4,0.8 6,2.4 1.5,1.6 2.3,3.7 2.3,6.4 V 21 H 247 v 1.1 c 0,2.4 0.7,4.5 2.1,6.1 1.4,1.7 3.1,2.5 5.2,2.5 1.5,0 2.8,-0.2 3.8,-0.6 1,-0.4 1.8,-1 2.6,-1.8 l 0.3,-0.3 1,1.4 -0.2,0.2 c -0.9,0.9 -1.9,1.7 -3.1,2.1 -1.2,0.5 -2.6,0.7 -4.3,0.7 -2.5,0 -4.6,-1 -6.4,-3 -1.8,-1.9 -2.7,-4.4 -2.7,-7.3"
   id="path72" />
	<path
   clip-path="url(#SVGID_6_)"
   fill="#c2c0c0"
   d="m 254.3,11.6 c -2.1,0 -3.8,0.8 -5.2,2.3 -1.4,1.5 -2.1,3.4 -2.3,5.6 l 0.1,0.1 h 14.3 V 19 c 0,-2.1 -0.6,-3.9 -1.9,-5.3 -1.3,-1.4 -2.9,-2.1 -5,-2.1 m 0.1,20.5 c -2.4,0 -4.4,-1 -6.1,-2.9 -1.7,-1.9 -2.6,-4.3 -2.6,-7.1 v -1.2 c 0,-3 0.8,-5.4 2.5,-7.4 1.7,-2 3.7,-2.9 6.2,-2.9 2.3,0 4.3,0.8 5.7,2.3 1.5,1.5 2.2,3.6 2.2,6.2 v 1.6 h -15.6 v 0.2 1.2 c 0,2.5 0.7,4.6 2.2,6.4 1.5,1.7 3.3,2.6 5.5,2.6 1.5,0 2.8,-0.2 3.9,-0.6 1,-0.4 1.9,-1.1 2.7,-1.9 l 0.6,0.8 c -0.8,0.9 -1.8,1.6 -3,2.1 -1.2,0.4 -2.6,0.6 -4.2,0.6"
   id="path74" />
	<path
   clip-path="url(#SVGID_6_)"
   fill="#c2c0c0"
   d="M 268.4,32 V 10.6 h 1.5 l 0.2,3.2 c 0.5,-0.9 1.2,-1.7 2.1,-2.3 1.2,-0.9 2.7,-1.3 4.4,-1.3 0.3,0 0.6,0 0.9,0.1 0.3,0 0.5,0.1 0.7,0.1 l 0.3,0.1 -0.2,1.5 -1.7,-0.1 c -1.7,0 -3.2,0.6 -4.2,1.7 -1.1,1.1 -1.8,2.7 -2.2,4.5 V 32 Z"
   id="path76" />
	<path
   clip-path="url(#SVGID_6_)"
   fill="#c2c0c0"
   d="m 277.9,11.7 -1.3,-0.1 c -1.9,0 -3.4,0.6 -4.5,1.8 -1.2,1.2 -1.9,2.8 -2.3,4.7 v 13.6 h -1 V 11 h 0.8 l 0.2,3.6 v 0.7 c 0.6,-1.5 1.4,-2.6 2.6,-3.5 1.1,-0.8 2.5,-1.2 4.2,-1.2 0.3,0 0.6,0 0.8,0.1 0.2,0 0.5,0.1 0.6,0.1 z"
   id="path78" />
	<path
   clip-path="url(#SVGID_6_)"
   fill="#c2c0c0"
   d="m 306.5,5.1 c -8.4,0 -15.3,6.8 -15.3,15.3 0,8.4 6.9,15.3 15.3,15.3 8.4,0 15.3,-6.8 15.3,-15.3 0,-8.5 -6.8,-15.3 -15.3,-15.3 m 0,32.2 c -9.4,0 -17,-7.6 -17,-17 0,-9.3 7.6,-16.9 17,-16.9 9.4,0 17,7.6 17,16.9 0,9.4 -7.6,17 -17,17"
   id="path80" />
	<path
   clip-path="url(#SVGID_6_)"
   fill="#c2c0c0"
   d="m 306.5,12 c 4.6,0 8.4,3.8 8.4,8.4 0,4.6 -3.8,8.4 -8.4,8.4 -4.6,0 -8.4,-3.8 -8.4,-8.4 0,-4.7 3.8,-8.4 8.4,-8.4"
   id="path82" />
</g>
</svg>
