<?xml version="1.0" encoding="UTF-8" standalone="no"?>
<!-- Generator: Adobe Illustrator 16.0.0, SVG Export Plug-In . SVG Version: 6.00 Build 0)  -->

<svg
   version="1.1"
   id="Layer_1"
   x="0px"
   y="0px"
   width="512px"
   height="512px"
   viewBox="0 0 512 512"
   enable-background="new 0 0 512 512"
   xml:space="preserve"
   sodipodi:docname="cloud.svg"
   inkscape:version="1.1 (c68e22c387, 2021-05-23)"
   xmlns:inkscape="http://www.inkscape.org/namespaces/inkscape"
   xmlns:sodipodi="http://sodipodi.sourceforge.net/DTD/sodipodi-0.dtd"
   xmlns="http://www.w3.org/2000/svg"
   xmlns:svg="http://www.w3.org/2000/svg"><defs
   id="defs7" /><sodipodi:namedview
   id="namedview5"
   pagecolor="#ffffff"
   bordercolor="#666666"
   borderopacity="1.0"
   inkscape:pageshadow="2"
   inkscape:pageopacity="0.0"
   inkscape:pagecheckerboard="0"
   showgrid="false"
   inkscape:zoom="0.8125"
   inkscape:cx="312.61538"
   inkscape:cy="396.92308"
   inkscape:window-width="1920"
   inkscape:window-height="1017"
   inkscape:window-x="-8"
   inkscape:window-y="-8"
   inkscape:window-maximized="1"
   inkscape:current-layer="Layer_1" />
<path
   d="M270,112c52.531,0,95.125,41.5,97.531,93.438C372.313,204.75,377.063,204,382,204c54.125,0,98,43.875,98,98  s-43.875,98-98,98H116c-46.375,0-84-37.594-84-84c0-39.531,27.438-72.5,64.25-81.438C96.219,233.688,96,232.875,96,232  c0-30.938,25.063-56,56-56c8.875,0,17.125,2.25,24.563,5.906C188.719,141.563,225.719,112,270,112 M270,80  c-47,0-88.875,24.875-111.75,64.25c-2.063-0.188-4.156-0.25-6.25-0.25c-41.375,0-76.188,28.75-85.563,67.313  C26.406,230.125,0,270.406,0,316c0,63.969,52.031,116,116,116h266c71.688,0,130-58.313,130-130  c0-67.563-51.813-123.25-117.813-129.438C378.156,118.75,328.531,80,270,80L270,80z"
   id="path2"
   style="fill:#72aaff;fill-opacity:1" />
</svg>
