<svg width="12" height="12" viewBox="0 0 12 12" fill="none" xmlns="http://www.w3.org/2000/svg">
<path d="M3.1875 10.125C3.91237 10.125 4.5 9.53737 4.5 8.8125C4.5 8.08763 3.91237 7.5 3.1875 7.5C2.46263 7.5 1.875 8.08763 1.875 8.8125C1.875 9.53737 2.46263 10.125 3.1875 10.125Z" stroke="#525466" stroke-linecap="round" stroke-linejoin="round"/>
<path d="M8.8125 4.49985C9.53737 4.49985 10.125 3.91222 10.125 3.18735C10.125 2.46247 9.53737 1.87485 8.8125 1.87485C8.08763 1.87485 7.5 2.46247 7.5 3.18735C7.5 3.91222 8.08763 4.49985 8.8125 4.49985Z" stroke="#525466" stroke-linecap="round" stroke-linejoin="round"/>
<path d="M3.1875 4.49985C3.91237 4.49985 4.5 3.91222 4.5 3.18735C4.5 2.46247 3.91237 1.87485 3.1875 1.87485C2.46263 1.87485 1.875 2.46247 1.875 3.18735C1.875 3.91222 2.46263 4.49985 3.1875 4.49985Z" stroke="#525466" stroke-linecap="round" stroke-linejoin="round"/>
<path d="M3.1875 7.5V7.12499C3.18751 6.82663 3.30603 6.5405 3.51701 6.32953C3.72798 6.11856 4.01412 6.00003 4.31248 6.00003L7.68752 5.99997C7.98588 5.99996 8.27202 5.88144 8.48299 5.67047C8.69397 5.4595 8.81249 5.17337 8.8125 4.87501V4.5" stroke="#525466" stroke-linecap="round" stroke-linejoin="round"/>
<path d="M3.1875 4.5V7.5" stroke="#525466" stroke-linecap="round" stroke-linejoin="round"/>
</svg>
