<svg width="28" height="27" viewBox="0 0 28 27" fill="none" xmlns="http://www.w3.org/2000/svg">
<path d="M12.3333 6.66663C11.781 6.66663 11.3333 7.11434 11.3333 7.66663C11.3333 8.21891 11.781 8.66663 12.3333 8.66663H21C21.5523 8.66663 22 8.21891 22 7.66663C22 7.11434 21.5523 6.66663 21 6.66663H12.3333Z" fill="#F45656"/>
<path d="M6 7.66663C6 7.11434 6.44772 6.66663 7 6.66663H7.66667C8.21895 6.66663 8.66667 7.11434 8.66667 7.66663C8.66667 8.21891 8.21895 8.66663 7.66667 8.66663H7C6.44772 8.66663 6 8.21891 6 7.66663Z" fill="#F45656"/>
<path d="M11.3333 19.6666C11.3333 19.1143 11.781 18.6666 12.3333 18.6666H21C21.5523 18.6666 22 19.1143 22 19.6666C22 20.2189 21.5523 20.6666 21 20.6666H12.3333C11.781 20.6666 11.3333 20.2189 11.3333 19.6666Z" fill="#F45656"/>
<path d="M7 18.6666C6.44772 18.6666 6 19.1143 6 19.6666C6 20.2189 6.44772 20.6666 7 20.6666H7.66667C8.21895 20.6666 8.66667 20.2189 8.66667 19.6666C8.66667 19.1143 8.21895 18.6666 7.66667 18.6666H7Z" fill="#F45656"/>
<path fill-rule="evenodd" clip-rule="evenodd" d="M2.33333 0.666626C1.04467 0.666626 0 1.71129 0 2.99996V12.3333C0 12.829 0.154605 13.2887 0.41823 13.6666C0.154605 14.0446 0 14.5042 0 15V24.3333C0 25.622 1.04467 26.6666 2.33333 26.6666H25.6667C26.9553 26.6666 28 25.622 28 24.3333V15C28 14.5042 27.8454 14.0446 27.5818 13.6666C27.8454 13.2887 28 12.829 28 12.3333V2.99996C28 1.7113 26.9553 0.666626 25.6667 0.666626H2.33333ZM2.33333 12.6666H25.6667C25.8508 12.6666 26 12.5174 26 12.3333V2.99996C26 2.81586 25.8508 2.66663 25.6667 2.66663H2.33333C2.14924 2.66663 2 2.81586 2 2.99996V12.3333C2 12.5174 2.14924 12.6666 2.33333 12.6666ZM2.33333 14.6666C2.14924 14.6666 2 14.8159 2 15V24.3333C2 24.5174 2.14924 24.6666 2.33333 24.6666H25.6667C25.8508 24.6666 26 24.5174 26 24.3333V15C26 14.8159 25.8508 14.6666 25.6667 14.6666H2.33333Z" fill="#F45656"/>
</svg>
