<?xml version="1.0" encoding="UTF-8" standalone="no"?>
<svg
   width="174"
   height="30"
   viewBox="0 0 174 30"
   fill="none"
   version="1.1"
   id="svg679"
   sodipodi:docname="left_menu_logo_1.svg"
   inkscape:version="1.1 (c68e22c387, 2021-05-23)"
   xmlns:inkscape="http://www.inkscape.org/namespaces/inkscape"
   xmlns:sodipodi="http://sodipodi.sourceforge.net/DTD/sodipodi-0.dtd"
   xmlns="http://www.w3.org/2000/svg"
   xmlns:svg="http://www.w3.org/2000/svg">
  <sodipodi:namedview
     id="namedview681"
     pagecolor="#ffffff"
     bordercolor="#666666"
     borderopacity="1.0"
     inkscape:pageshadow="2"
     inkscape:pageopacity="0.0"
     inkscape:pagecheckerboard="0"
     showgrid="false"
     inkscape:zoom="4.1799878"
     inkscape:cx="92.823238"
     inkscape:cy="26.674719"
     inkscape:window-width="1920"
     inkscape:window-height="1017"
     inkscape:window-x="-8"
     inkscape:window-y="-8"
     inkscape:window-maximized="1"
     inkscape:current-layer="svg679"
     inkscape:snap-global="true"
     inkscape:lockguides="false"
     height="1000px"
     showguides="false" />
  <path
     d="m 24.332768,10.950999 -13.830107,2.402499 c -0.27727,0.03535 -0.5546123,-0.07065 -0.6932202,-0.317955 L 6.516561,7.3471774 C 6.2738885,6.9585197 6.4818927,6.4638836 6.9325116,6.3225718 L 20.277399,2.1888004 c 0.311869,-0.1059941 0.65857,0.035332 0.797178,0.353313 l 3.743501,7.4195765 c 0.242562,0.3886761 0,0.9185891 -0.48531,0.9893091 z"
     fill="url(#paint0_linear)"
     id="path578"
     style="fill:url(#paint0_linear);stroke-width:0.0182386" />
  <path
     d="m 5.7082123,10.449524 9.3175857,10.715274 c 0.173168,0.212143 0.242454,0.530447 0.103937,0.77798 l -3.013535,5.94109 c -0.242437,0.424471 -0.762019,0.530452 -1.108395,0.24753 L 0.51252851,18.724663 C 0.27006355,18.512519 0.20078785,18.123475 0.37397711,17.840558 L 4.5997992,10.555633 c 0.2078215,-0.424377 0.7966713,-0.459765 1.1084131,-0.106109 z"
     fill="url(#paint1_linear)"
     id="path580"
     style="fill:url(#paint1_linear);stroke-width:0.0182386" />
  <path
     d="M 7.1284754,16.725106 10.97225,9.1065032 C 11.179983,8.71674 10.833715,8.2560721 10.418179,8.3623828 L 5.1893343,9.7088874 C 5.0854326,9.7443548 5.0161824,9.779754 4.9815482,9.8860667 L 0.37600413,17.894507 c -0.13851287,0.248026 0.0692565,0.566924 0.34628282,0.531481 l 5.40200215,-0.9213 C 6.5398246,17.398359 6.920744,17.15033 7.1284754,16.725106 Z"
     fill="#f27407"
     id="path582"
     style="stroke-width:0.0182386" />
  <path
     d="m 14.783124,26.872921 5.069068,-13.366463 c 0.104315,-0.282844 0.34724,-0.459654 0.659832,-0.459654 h 6.562044 c 0.451379,0 0.798621,0.424322 0.659652,0.88403 l -3.367744,13.861615 c -0.06948,0.318121 -0.382075,0.565648 -0.729136,0.530451 l -8.298237,-0.495062 c -0.416636,-0.03539 -0.729118,-0.495059 -0.555479,-0.954917 z"
     fill="url(#paint2_linear)"
     id="path584"
     style="fill:url(#paint2_linear);stroke-width:0.0182386" />
  <path
     d="m 19.615762,22.723149 h -8.527607 c -0.381318,0 -0.589338,0.458017 -0.346647,0.739828 l 3.639778,4.19216 c 0.06934,0.07059 0.138682,0.105794 0.242692,0.105794 l 9.047513,0.528422 c 0.2774,0 0.485309,-0.317011 0.31205,-0.563625 L 20.690338,23.251573 C 20.447593,22.93456 20.031587,22.723149 19.615762,22.723149 Z"
     fill="#f27407"
     id="path586"
     style="stroke-width:0.0182386" />
  <path
     d="m 18.375328,8.9191508 4.086413,7.0846352 c 0.276854,0.460465 0.969534,0.389633 1.142615,-0.141718 l 1.523786,-4.852956 c 0.0693,-0.177123 0.03465,-0.354227 -0.03466,-0.495908 L 21.249642,2.9326249 C 21.007259,2.4366985 20.314578,2.472121 20.106848,2.9680447 l -1.835385,4.5695977 c -0.173116,0.4605022 -0.138482,0.9564278 0.103865,1.3815055 z"
     fill="#f27407"
     id="path588"
     style="stroke-width:0.0182386" />
  <path
     d="m 38.956883,19.412805 c -0.278113,0 -0.52883,-0.04132 -0.751779,-0.123809 -0.194791,-0.09427 -0.292185,-0.200483 -0.292185,-0.318318 V 7.4729164 c 0,-0.129715 0.09739,-0.235848 0.292185,-0.318397 0.222949,-0.08255 0.473666,-0.123824 0.751779,-0.123824 h 19.503974 c 0.306266,0 0.556604,0.04127 0.751775,0.123824 0.194796,0.08255 0.292193,0.188682 0.292193,0.318397 v 1.662738 c 0,0.117932 -0.0974,0.224065 -0.292193,0.318414 -0.195171,0.08253 -0.445509,0.123808 -0.751775,0.123808 H 45.138121 v 2.3879896 h 12.403941 c 0.306265,0 0.556604,0.04717 0.751774,0.141499 0.194792,0.08255 0.292189,0.188682 0.292189,0.318414 v 1.538914 c 0,0.117932 -0.0974,0.224065 -0.292189,0.318398 -0.19517,0.08255 -0.445509,0.123824 -0.751774,0.123824 H 45.138121 v 2.458738 h 13.656772 c 0.306266,0 0.55699,0.04127 0.751782,0.12381 0.194791,0.08255 0.292186,0.188682 0.292186,0.318412 v 1.662803 c 0,0.117835 -0.09739,0.22405 -0.292186,0.318318 -0.194792,0.08249 -0.445516,0.123809 -0.751782,0.123809 z"
     fill="#1F17BF"
     id="path590"
     style="fill:#ffffff;fill-opacity:1;stroke-width:0.0247815" />
  <path
     d="m 65.630512,19.412805 c -0.278496,0 -0.529208,-0.04132 -0.751779,-0.123809 -0.194791,-0.09427 -0.292568,-0.200483 -0.292568,-0.318318 V 7.4729164 c 0,-0.129715 0.09778,-0.235848 0.292568,-0.318397 0.222571,-0.08255 0.473283,-0.123824 0.751779,-0.123824 H 76.48904 c 4.09293,0 7.26707,0.412746 9.52201,1.238224 2.25533,0.825476 3.43854,2.0224086 3.55002,3.5908146 0.0278,0.341981 0.0418,0.795985 0.0418,1.362032 0,0.566045 -0.0141,1.014158 -0.0418,1.344339 -0.13925,1.639172 -1.29469,2.859687 -3.46632,3.661565 -2.14386,0.790144 -5.27613,1.185135 -9.39684,1.185135 z M 76.48904,16.865653 c 1.8376,0 3.18783,-0.18279 4.05108,-0.548351 0.86325,-0.377365 1.32246,-0.972886 1.37838,-1.786563 0.0556,-0.341981 0.0833,-0.784202 0.0833,-1.326665 0,-0.542447 -0.0278,-0.978776 -0.0833,-1.308974 -0.0559,-0.790094 -0.55698,-1.373815 -1.50355,-1.751179 -0.9188,-0.3773626 -2.29718,-0.5660446 -4.13477,-0.5660446 h -4.17625 v 7.2877766 z"
     fill="#1F17BF"
     id="path592"
     style="fill:#ffffff;fill-opacity:1;stroke-width:0.0247815" />
  <path
     d="m 106.42622,19.589716 c -3.92591,0 -7.01634,-0.406773 -9.27167,-1.220481 -2.25534,-0.813726 -3.45224,-2.010661 -3.59149,-3.590864 -0.0281,-0.341982 -0.0418,-0.849061 -0.0418,-1.521223 0,-0.683978 0.0137,-1.196949 0.0418,-1.53893 0.13925,-1.556605 1.35024,-2.7535536 3.63334,-3.5908146 2.31087,-0.849061 5.3876,-1.27359 9.22982,-1.27359 3.84219,0 6.91893,0.424529 9.2298,1.27359 2.31088,0.837261 3.52225,2.0342096 3.63334,3.5908146 0.0559,0.683962 0.0837,1.196949 0.0837,1.53893 0,0.330181 -0.0278,0.837261 -0.0837,1.521223 -0.13925,1.580203 -1.33616,2.777138 -3.59149,3.590864 -2.25532,0.813708 -5.34575,1.220481 -9.27165,1.220481 z m 0,-2.547178 c 1.53132,0 2.74231,-0.194575 3.63332,-0.583737 0.91881,-0.389149 1.40617,-0.984668 1.46171,-1.786563 0.0559,-0.683962 0.0837,-1.167458 0.0837,-1.450472 0,-0.306599 -0.0278,-0.790095 -0.0837,-1.450473 -0.0555,-0.801895 -0.5429,-1.397415 -1.46171,-1.7865786 -0.91879,-0.389147 -2.12977,-0.58372 -3.63332,-0.58372 -1.50356,0 -2.71455,0.194573 -3.63335,0.58372 -0.89101,0.3891636 -1.37838,0.9846836 -1.46169,1.7865786 -0.0281,0.330181 -0.0418,0.813677 -0.0418,1.450473 0,0.624995 0.0137,1.108491 0.0418,1.450472 0.0833,0.801895 0.57068,1.397414 1.46169,1.786563 0.89102,0.389162 2.10201,0.583737 3.63335,0.583737 z"
     fill="#1F17BF"
     id="path594"
     style="fill:#ffffff;fill-opacity:1;stroke-width:0.0247815" />
  <path
     d="m 138.03775,19.412805 c -0.27849,0 -0.51514,-0.03535 -0.70993,-0.106053 -0.16702,-0.08265 -0.25034,-0.182888 -0.25034,-0.300723 v -2.547228 h -13.5316 c -0.2785,0 -0.51514,-0.03537 -0.70993,-0.106135 -0.16702,-0.08253 -0.25072,-0.182772 -0.25072,-0.300704 v -0.707546 c 0,-0.176882 0.15295,-0.35378 0.45959,-0.530662 l 12.52911,-7.4823366 c 0.13925,-0.09435 0.34773,-0.165098 0.62622,-0.212281 0.2785,-0.05895 0.58477,-0.08844 0.9188,-0.08844 h 3.00711 c 0.2785,0 0.50105,0.04127 0.66808,0.123824 0.19517,0.07077 0.29257,0.165098 0.29257,0.283015 v 7.4823516 h 3.7585 c 0.27849,0 0.51514,0.04127 0.71031,0.123823 0.19479,0.07075 0.29218,0.1651 0.29218,0.283017 v 0.725235 c 0,0.117932 -0.0974,0.218172 -0.29218,0.300704 -0.1674,0.07077 -0.38997,0.106135 -0.66846,0.106135 h -3.80035 v 2.547228 c 0,0.117835 -0.0974,0.218075 -0.29257,0.300723 -0.16703,0.0707 -0.38958,0.106053 -0.66808,0.106053 z m -0.9188,-4.457536 V 8.8880224 l -10.0649,6.0672466 z"
     fill="#1F17BF"
     id="path596"
     style="fill:#ffffff;fill-opacity:1;stroke-width:0.0247815" />
  <path
     d="m 138.05449,19.397308 c -0.27849,0 -0.51514,-0.03535 -0.70992,-0.106052 -0.16703,-0.08265 -0.25034,-0.182888 -0.25034,-0.300723 v -2.547197 h -13.53161 c -0.2785,0 -0.51513,-0.03538 -0.70993,-0.106132 -0.16702,-0.08255 -0.25072,-0.18279 -0.25072,-0.300707 v -0.707544 c 0,-0.1769 0.15294,-0.353782 0.45921,-0.530664 l 12.52949,-7.4823516 c 0.13924,-0.09433 0.34773,-0.165099 0.62623,-0.212265 0.27849,-0.05897 0.58475,-0.08844 0.91879,-0.08844 h 3.00711 c 0.27849,0 0.50106,0.04127 0.66808,0.123824 0.19518,0.07075 0.29256,0.165098 0.29256,0.283015 v 7.4823506 h 3.75851 c 0.2785,0 0.51514,0.04128 0.71031,0.12381 0.19479,0.07076 0.29219,0.165097 0.29219,0.28303 v 0.725236 c 0,0.117917 -0.0974,0.218157 -0.29219,0.300707 -0.1674,0.07075 -0.38996,0.106132 -0.66846,0.106132 h -3.80036 v 2.547197 c 0,0.117835 -0.0974,0.218077 -0.29256,0.300723 -0.16702,0.0707 -0.38959,0.106052 -0.66808,0.106052 z m -0.9188,-4.45752 V 8.8725594 l -10.06491,6.0672286 z"
     fill="#F27407"
     id="path598"
     style="fill:#ffffff;fill-opacity:1;stroke-width:0.0247815" />
  <path
     d="m 89.70314,25.254387 c -0.0378,0 -0.0698,-0.01035 -0.0963,-0.0307 -0.0261,-0.01746 -0.0395,-0.04233 -0.0395,-0.07432 v -2.899672 c 0,-0.03231 0.0132,-0.05687 0.0395,-0.07464 0.0266,-0.02035 0.0585,-0.03037 0.0963,-0.03037 h 0.44595 c 0.0415,0 0.0735,0.01003 0.0963,0.03037 0.0261,0.01778 0.0395,0.04233 0.0395,0.07464 v 0.175128 c 0.21094,-0.216162 0.5124,-0.324088 0.90395,-0.324088 0.38036,0 0.67226,0.09338 0.87572,0.280466 0.20347,0.183857 0.31267,0.433631 0.32762,0.748993 0.004,0.0349 0.005,0.08595 0.005,0.153162 0,0.07012 -0.002,0.122783 -0.005,0.157679 -0.015,0.306641 -0.12415,0.554797 -0.32762,0.744471 -0.20346,0.187084 -0.49536,0.280466 -0.87572,0.280466 -0.38034,0 -0.67059,-0.103724 -0.8699,-0.31084 v 0.994235 c 0,0.03199 -0.0132,0.05687 -0.0398,0.07432 -0.0224,0.02035 -0.0544,0.0307 -0.0959,0.0307 z m 1.27683,-1.256937 c 0.4065,0 0.62326,-0.194194 0.64942,-0.582584 0.004,-0.0294 0.005,-0.07303 0.005,-0.131506 0,-0.05849 -0.002,-0.10211 -0.005,-0.131511 -0.0261,-0.38839 -0.24292,-0.582583 -0.64942,-0.582583 -0.21883,0 -0.38077,0.05428 -0.48624,0.162205 -0.10546,0.107921 -0.1636,0.241046 -0.17481,0.398727 l -0.005,0.166405 0.005,0.170608 c 0.007,0.146053 0.0656,0.271743 0.17481,0.376762 0.11337,0.102102 0.2753,0.153477 0.48624,0.153477 z"
     fill="#1F17BF"
     id="path600"
     style="fill:#ffffff;fill-opacity:1;stroke-width:0.0366288" />
  <path
     d="m 94.3317,24.465976 c -0.44097,0 -0.78188,-0.08756 -1.02271,-0.262699 -0.24125,-0.178358 -0.37122,-0.420698 -0.3899,-0.72734 l -0.005,-0.192577 0.005,-0.192579 c 0.0187,-0.303734 0.15073,-0.544783 0.3953,-0.722818 0.24498,-0.178041 0.58381,-0.267224 1.01731,-0.267224 0.43308,0 0.77191,0.08918 1.01689,0.267224 0.24458,0.178035 0.37661,0.419084 0.3953,0.722818 0.004,0.03489 0.005,0.09919 0.005,0.192579 0,0.09338 -0.002,0.157679 -0.005,0.192577 -0.0187,0.306642 -0.14865,0.548982 -0.38989,0.72734 -0.24083,0.175136 -0.58175,0.262699 -1.0223,0.262699 z m 0,-0.433628 c 0.19932,0 0.35378,-0.04815 0.46298,-0.144433 0.10921,-0.09952 0.16942,-0.243954 0.18104,-0.433626 0.004,-0.02941 0.005,-0.08627 0.005,-0.170929 0,-0.08466 -0.002,-0.141528 -0.005,-0.170934 -0.0116,-0.189672 -0.0718,-0.332814 -0.18104,-0.429104 -0.1092,-0.0992 -0.26366,-0.148957 -0.46298,-0.148957 -0.19973,0 -0.35419,0.04976 -0.46339,0.148957 -0.10922,0.09629 -0.16942,0.239432 -0.18105,0.429104 l -0.005,0.170934 0.005,0.170929 c 0.0116,0.189672 0.0718,0.334105 0.18105,0.433626 0.1092,0.09629 0.26366,0.144433 0.46339,0.144433 z"
     fill="#1F17BF"
     id="path602"
     style="fill:#ffffff;fill-opacity:1;stroke-width:0.0366288" />
  <path
     d="m 97.09504,24.422032 c -0.049,0 -0.0884,-0.0087 -0.11874,-0.02617 -0.0261,-0.02035 -0.049,-0.04814 -0.0677,-0.08304 l -0.80804,-2.03242 c -0.004,-0.0087 -0.005,-0.02196 -0.005,-0.03942 0,-0.02649 0.0112,-0.04814 0.0336,-0.06592 0.0266,-0.02035 0.0548,-0.03037 0.0851,-0.03037 h 0.41773 c 0.0415,0 0.0756,0.0087 0.10172,0.02617 0.0266,0.01744 0.0436,0.03651 0.0511,0.05687 l 0.5535,1.449835 0.58755,-1.43659 c 0.0113,-0.02649 0.0303,-0.04814 0.0564,-0.06592 0.0303,-0.02035 0.0681,-0.03037 0.11295,-0.03037 h 0.28277 c 0.0453,0 0.081,0.01003 0.10714,0.03037 0.0303,0.01778 0.0511,0.03942 0.0623,0.06592 l 0.58754,1.43659 0.5535,-1.449835 c 0.004,-0.02035 0.0191,-0.03943 0.0453,-0.05687 0.0303,-0.01744 0.0639,-0.02617 0.10173,-0.02617 h 0.41813 c 0.034,0 0.0623,0.01003 0.0847,0.03037 0.0266,0.01778 0.0395,0.03942 0.0395,0.06592 l -0.0112,0.03942 -0.80804,2.03242 c -0.015,0.0349 -0.0374,0.06269 -0.0677,0.08304 -0.0261,0.01746 -0.0639,0.02617 -0.11294,0.02617 h -0.36707 c -0.098,0 -0.16028,-0.03651 -0.18644,-0.109218 l -0.58755,-1.384241 -0.58796,1.384241 c -0.0299,0.0727 -0.0938,0.109218 -0.19184,0.109218 z"
     fill="#1F17BF"
     id="path604"
     style="fill:#ffffff;fill-opacity:1;stroke-width:0.0366288" />
  <path
     d="m 102.11019,24.465976 c -0.41813,0 -0.75156,-0.09338 -0.99987,-0.280466 -0.24499,-0.189674 -0.37495,-0.455276 -0.3899,-0.797139 l -0.005,-0.109535 0.005,-0.109217 c 0.0187,-0.333135 0.15073,-0.594218 0.3953,-0.78421 0.24871,-0.189671 0.58007,-0.28467 0.99447,-0.28467 0.44429,0 0.78728,0.105016 1.02811,0.315367 0.24498,0.210352 0.36747,0.490493 0.36747,0.841079 v 0.09177 c 0,0.0294 -0.0132,0.05428 -0.0398,0.07464 -0.0261,0.02035 -0.0602,0.0307 -0.10174,0.0307 h -1.87559 v 0.0349 c 0.007,0.160589 0.0639,0.296299 0.16941,0.407456 0.10921,0.107921 0.25828,0.16188 0.44637,0.16188 0.22215,0 0.40112,-0.06721 0.5369,-0.201303 0.034,-0.03231 0.0602,-0.05267 0.0789,-0.06139 0.0229,-0.0087 0.0548,-0.01326 0.0963,-0.01326 h 0.48581 c 0.0336,0 0.0619,0.0087 0.0847,0.02649 0.0261,0.01455 0.0395,0.0336 0.0395,0.05687 0,0.07011 -0.0544,0.153156 -0.16359,0.249766 -0.10548,0.09338 -0.25828,0.175133 -0.458,0.245253 -0.19931,0.07012 -0.43101,0.105013 -0.69468,0.105013 z m 0.627,-1.37972 v -0.01326 c 0,-0.172226 -0.0565,-0.310843 -0.16942,-0.415857 -0.1092,-0.105338 -0.26159,-0.157683 -0.45758,-0.157683 -0.19599,0 -0.34838,0.05235 -0.45759,0.157683 -0.1092,0.105014 -0.16401,0.243631 -0.16401,0.415857 v 0.01326 z"
     fill="#1F17BF"
     id="path606"
     style="fill:#ffffff;fill-opacity:1;stroke-width:0.0366288" />
  <path
     d="m 104.24073,24.422032 c -0.0374,0 -0.0693,-0.01003 -0.0959,-0.03037 -0.0261,-0.02069 -0.0395,-0.04556 -0.0395,-0.07464 v -2.063121 c 0,-0.02908 0.0132,-0.05396 0.0395,-0.07432 0.0266,-0.02326 0.0585,-0.0349 0.0959,-0.0349 h 0.45801 c 0.0411,0 0.0752,0.01003 0.1013,0.03037 0.0266,0.02069 0.0399,0.04685 0.0399,0.07884 v 0.179655 c 0.0901,-0.09338 0.20346,-0.16479 0.33882,-0.214551 0.13952,-0.04976 0.29773,-0.07432 0.47462,-0.07432 h 0.23169 c 0.0416,0 0.0735,0.01003 0.0959,0.03037 0.0266,0.01778 0.0395,0.04233 0.0395,0.07464 v 0.315377 c 0,0.02908 -0.0129,0.05396 -0.0395,0.07432 -0.0224,0.02069 -0.0544,0.0307 -0.0959,0.0307 h -0.44056 c -0.1773,0 -0.3164,0.03942 -0.41814,0.118264 -0.10172,0.07884 -0.15279,0.187084 -0.15279,0.324085 v 1.204593 c 0,0.02908 -0.0129,0.05396 -0.0395,0.07464 -0.0261,0.02035 -0.0602,0.03037 -0.10172,0.03037 z"
     fill="#1F17BF"
     id="path608"
     style="fill:#ffffff;fill-opacity:1;stroke-width:0.0366288" />
  <path
     d="m 107.68797,24.465976 c -0.41773,0 -0.75115,-0.09338 -0.99988,-0.280466 -0.24498,-0.189674 -0.37453,-0.455276 -0.38989,-0.797139 l -0.005,-0.109535 0.005,-0.109217 c 0.0191,-0.333135 0.15072,-0.594218 0.39571,-0.78421 0.2483,-0.189671 0.58007,-0.28467 0.99406,-0.28467 0.4447,0 0.78727,0.105016 1.02852,0.315367 0.24456,0.210352 0.36707,0.490493 0.36707,0.841079 v 0.09177 c 0,0.0294 -0.0132,0.05428 -0.0395,0.07464 -0.0266,0.02035 -0.0602,0.0307 -0.10173,0.0307 h -1.8756 v 0.0349 c 0.007,0.160589 0.0639,0.296299 0.16942,0.407456 0.10921,0.107921 0.25786,0.16188 0.44637,0.16188 0.22215,0 0.40111,-0.06721 0.53648,-0.201303 0.034,-0.03231 0.0606,-0.05267 0.0793,-0.06139 0.0224,-0.0087 0.0544,-0.01326 0.0959,-0.01326 h 0.48582 c 0.034,0 0.0623,0.0087 0.0847,0.02649 0.0266,0.01455 0.0398,0.0336 0.0398,0.05687 0,0.07011 -0.0548,0.153156 -0.164,0.249766 -0.10547,0.09338 -0.25786,0.175133 -0.45759,0.245253 -0.19972,0.07012 -0.43142,0.105013 -0.69509,0.105013 z m 0.62741,-1.37972 v -0.01326 c 0,-0.172226 -0.0565,-0.310843 -0.16942,-0.415857 -0.10962,-0.105338 -0.26201,-0.157683 -0.45799,-0.157683 -0.19558,0 -0.34839,0.05235 -0.45759,0.157683 -0.10921,0.105014 -0.1636,0.243631 -0.1636,0.415857 v 0.01326 z"
     fill="#1F17BF"
     id="path610"
     style="fill:#ffffff;fill-opacity:1;stroke-width:0.0366288" />
  <path
     d="m 110.77353,24.465976 c -0.38034,0 -0.67225,-0.095 -0.87573,-0.28467 -0.20303,-0.189992 -0.31224,-0.442352 -0.3276,-0.757714 l -0.005,-0.144756 0.005,-0.139912 c 0.0116,-0.306641 0.11875,-0.556411 0.32221,-0.74899 0.2072,-0.192903 0.50078,-0.289195 0.88112,-0.289195 0.3654,0 0.65564,0.09629 0.87032,0.289195 v -0.97259 c 0,-0.03199 0.0133,-0.05687 0.0395,-0.07432 0.0266,-0.02035 0.0585,-0.03069 0.0959,-0.03069 h 0.48043 c 0.0415,0 0.0735,0.01035 0.0959,0.03069 0.0266,0.01744 0.0395,0.04233 0.0395,0.07432 v 2.899675 c 0,0.02908 -0.0129,0.05396 -0.0395,0.07464 -0.0224,0.02035 -0.0544,0.03037 -0.0959,0.03037 h -0.44637 c -0.0378,0 -0.0698,-0.01003 -0.0959,-0.03037 -0.0266,-0.02069 -0.0398,-0.04556 -0.0398,-0.07464 v -0.161883 c -0.21468,0.207116 -0.51573,0.31084 -0.90396,0.31084 z m 0.20927,-0.468526 c 0.21842,0 0.38035,-0.05428 0.48583,-0.162206 0.10546,-0.107923 0.16401,-0.241043 0.17522,-0.398727 0.004,-0.0349 0.005,-0.09176 0.005,-0.170609 0,-0.07593 -0.002,-0.131508 -0.005,-0.166404 -0.007,-0.14605 -0.0677,-0.270129 -0.18104,-0.372557 -0.1092,-0.105013 -0.26906,-0.157681 -0.48001,-0.157681 -0.40691,0 -0.62325,0.194193 -0.64983,0.582583 l -0.005,0.131511 0.005,0.131506 c 0.0266,0.38839 0.24292,0.582584 0.64983,0.582584 z"
     fill="#1F17BF"
     id="path612"
     style="fill:#ffffff;fill-opacity:1;stroke-width:0.0366288" />
  <path
     d="m 116.06646,24.465976 c -0.38824,0 -0.68929,-0.103724 -0.90396,-0.31084 v 0.161883 c 0,0.02908 -0.0132,0.05396 -0.0395,0.07464 -0.0229,0.02035 -0.0548,0.03037 -0.0963,0.03037 h -0.44637 c -0.0374,0 -0.0694,-0.01003 -0.0959,-0.03037 -0.0261,-0.02069 -0.0395,-0.04556 -0.0395,-0.07464 v -2.899675 c 0,-0.03199 0.0132,-0.05687 0.0395,-0.07432 0.0266,-0.02035 0.0585,-0.03069 0.0959,-0.03069 h 0.48042 c 0.0415,0 0.0735,0.01035 0.0959,0.03069 0.0266,0.01744 0.0395,0.04233 0.0395,0.07432 v 0.97259 c 0.21467,-0.192903 0.50492,-0.289195 0.87032,-0.289195 0.38035,0 0.67226,0.09629 0.87572,0.289195 0.20346,0.192579 0.31267,0.442349 0.32762,0.74899 0.004,0.0349 0.005,0.08175 0.005,0.139912 0,0.06139 -0.002,0.109535 -0.005,0.144756 -0.015,0.315362 -0.12416,0.567722 -0.32762,0.757714 -0.20346,0.189669 -0.49537,0.28467 -0.87572,0.28467 z m -0.20928,-0.468526 c 0.40693,0 0.62368,-0.194194 0.64984,-0.582584 0.004,-0.0294 0.005,-0.07303 0.005,-0.131506 0,-0.05849 -0.002,-0.10211 -0.005,-0.131511 -0.0261,-0.38839 -0.24291,-0.582583 -0.64984,-0.582583 -0.21093,0 -0.37288,0.05267 -0.48581,0.157681 -0.10921,0.102428 -0.16733,0.226507 -0.17523,0.372557 l -0.005,0.166404 0.005,0.170609 c 0.0116,0.157684 0.0698,0.290804 0.17523,0.398727 0.10546,0.107921 0.26741,0.162206 0.48581,0.162206 z"
     fill="#1F17BF"
     id="path614"
     style="fill:#ffffff;fill-opacity:1;stroke-width:0.0366288" />
  <path
     d="m 118.31368,25.254387 c -0.0299,0 -0.0565,-0.0087 -0.0789,-0.02617 -0.0229,-0.01778 -0.034,-0.03813 -0.034,-0.06139 0,-0.02617 0.007,-0.04976 0.0229,-0.07012 l 0.44056,-0.810385 -1.08499,-1.983951 c -0.015,-0.0265 -0.0224,-0.04685 -0.0224,-0.06139 0.004,-0.0265 0.0171,-0.04814 0.0395,-0.06592 0.0229,-0.02035 0.0511,-0.03037 0.0847,-0.03037 h 0.458 c 0.0714,0 0.12208,0.02747 0.15239,0.08304 l 0.75156,1.432388 0.77399,-1.432388 c 0.0299,-0.05558 0.081,-0.08304 0.15239,-0.08304 h 0.45178 c 0.0303,0 0.0569,0.0087 0.0793,0.02617 0.0261,0.01744 0.0395,0.03781 0.0395,0.06139 0,0.02035 -0.007,0.04362 -0.0224,0.07012 l -1.59905,2.868653 c -0.0337,0.05558 -0.0864,0.08337 -0.1582,0.08337 z"
     fill="#1F17BF"
     id="path616"
     style="fill:#ffffff;fill-opacity:1;stroke-width:0.0366288" />
  <path
     d="m 122.37255,24.422032 c -0.0378,0 -0.0698,-0.01003 -0.0963,-0.03037 -0.0261,-0.02069 -0.0395,-0.04556 -0.0395,-0.07464 v -2.851531 c 0,-0.03199 0.0113,-0.05816 0.034,-0.07884 0.0261,-0.02035 0.0602,-0.03037 0.10173,-0.03037 h 1.37857 c 1.10699,0 1.67212,0.397113 1.69454,1.191339 0.008,0.169315 0.0116,0.283051 0.0116,0.341535 0,0.05558 -0.004,0.168026 -0.0116,0.337338 -0.015,0.408747 -0.15613,0.710864 -0.42353,0.906677 -0.26741,0.192577 -0.68181,0.288867 -1.24278,0.288867 z m 1.37856,-0.50342 c 0.31599,0 0.54395,-0.05429 0.68347,-0.162206 0.13951,-0.110834 0.21259,-0.2921 0.22048,-0.543166 0.007,-0.175133 0.0113,-0.284667 0.0113,-0.328612 0,-0.04653 -0.004,-0.154773 -0.0113,-0.324088 -0.008,-0.239432 -0.0868,-0.415856 -0.23751,-0.529916 -0.14699,-0.113736 -0.37869,-0.170928 -0.69509,-0.170928 h -0.7005 v 2.058916 z"
     fill="#1F17BF"
     id="path618"
     style="fill:#ffffff;fill-opacity:1;stroke-width:0.0366288" />
  <path
     d="m 127.40678,24.465976 c -0.41771,0 -0.75114,-0.09338 -0.99986,-0.280466 -0.24458,-0.189674 -0.37454,-0.455276 -0.3899,-0.797139 l -0.005,-0.109535 0.005,-0.109217 c 0.0191,-0.333135 0.15073,-0.594218 0.39571,-0.78421 0.24831,-0.189671 0.58008,-0.28467 0.99405,-0.28467 0.44472,0 0.78729,0.105016 1.02852,0.315367 0.24458,0.210352 0.36707,0.490493 0.36707,0.841079 v 0.09177 c 0,0.0294 -0.0132,0.05428 -0.0395,0.07464 -0.0266,0.02035 -0.0602,0.0307 -0.10173,0.0307 h -1.87559 v 0.0349 c 0.007,0.160589 0.0639,0.296299 0.16941,0.407456 0.10921,0.107921 0.25785,0.16188 0.44638,0.16188 0.22214,0 0.4011,-0.06721 0.53647,-0.201303 0.034,-0.03231 0.0606,-0.05267 0.0793,-0.06139 0.0224,-0.0087 0.0544,-0.01326 0.0959,-0.01326 h 0.48581 c 0.034,0 0.0623,0.0087 0.0851,0.02649 0.0261,0.01455 0.0395,0.0336 0.0395,0.05687 0,0.07011 -0.0548,0.153156 -0.16402,0.249766 -0.10546,0.09338 -0.25786,0.175133 -0.45758,0.245253 -0.19973,0.07012 -0.43142,0.105013 -0.6951,0.105013 z m 0.62742,-1.37972 v -0.01326 c 0,-0.172226 -0.0565,-0.310843 -0.16941,-0.415857 -0.10922,-0.105338 -0.26201,-0.157683 -0.45801,-0.157683 -0.19556,0 -0.34837,0.05235 -0.45757,0.157683 -0.10921,0.105014 -0.1636,0.243631 -0.1636,0.415857 v 0.01326 z"
     fill="#1F17BF"
     id="path620"
     style="fill:#ffffff;fill-opacity:1;stroke-width:0.0366288" />
  <path
     d="m 130.33706,24.422032 c -0.0565,0 -0.10007,-0.0087 -0.12997,-0.02617 -0.0303,-0.02035 -0.0548,-0.04814 -0.0735,-0.08304 l -1.05676,-2.03242 -0.0112,-0.03942 c 0,-0.02649 0.0112,-0.04814 0.034,-0.06592 0.0261,-0.02035 0.0565,-0.03037 0.0905,-0.03037 h 0.45759 c 0.0714,0 0.12041,0.02747 0.14657,0.08304 l 0.75157,1.537401 0.75156,-1.537401 c 0.0112,-0.02035 0.0282,-0.03943 0.0506,-0.05687 0.0266,-0.01744 0.0585,-0.02617 0.0959,-0.02617 h 0.4634 c 0.0303,0 0.0564,0.01003 0.0793,0.03037 0.0261,0.01778 0.0395,0.03942 0.0395,0.06592 0,0.01744 -0.002,0.0307 -0.005,0.03942 l -1.06216,2.032421 c -0.0187,0.0349 -0.0432,0.06269 -0.0735,0.08304 -0.03,0.01746 -0.0731,0.02617 -0.12998,0.02617 z"
     fill="#1F17BF"
     id="path622"
     style="fill:#ffffff;fill-opacity:1;stroke-width:0.0366288" />
  <path
     d="m 134.13475,24.465976 c -0.51986,0 -0.92264,-0.103724 -1.20915,-0.31084 -0.28235,-0.207444 -0.43308,-0.499544 -0.45177,-0.8763 -0.004,-0.07884 -0.005,-0.207121 -0.005,-0.385162 0,-0.181269 0.002,-0.312454 0.005,-0.394205 0.0187,-0.373849 0.17107,-0.664335 0.45759,-0.871776 0.28982,-0.210349 0.69094,-0.315362 1.20333,-0.315362 0.33509,0 0.62699,0.04524 0.87572,0.13571 0.24871,0.08756 0.44056,0.208732 0.57633,0.363506 0.13537,0.151868 0.20721,0.324093 0.21468,0.516993 v 0.0087 c 0,0.02326 -0.0132,0.04394 -0.0395,0.06139 -0.0229,0.01453 -0.049,0.02196 -0.0793,0.02196 h -0.53648 c -0.0453,0 -0.0793,-0.0074 -0.10173,-0.02196 -0.0229,-0.01455 -0.0415,-0.04233 -0.0565,-0.08337 -0.0606,-0.183854 -0.16027,-0.312455 -0.29979,-0.38548 -0.13911,-0.07593 -0.32554,-0.113736 -0.55931,-0.113736 -0.5423,0 -0.82465,0.234907 -0.84748,0.705045 -0.004,0.07884 -0.005,0.200012 -0.005,0.363509 0,0.163819 0.002,0.287901 0.005,0.372557 0.0229,0.470136 0.30518,0.705046 0.84748,0.705046 0.23377,0 0.4202,-0.0378 0.55931,-0.113739 0.14325,-0.07593 0.24291,-0.204531 0.29979,-0.385482 0.0113,-0.04103 0.0282,-0.06882 0.0506,-0.08336 0.0266,-0.01455 0.0623,-0.02196 0.10754,-0.02196 h 0.53648 c 0.034,0 0.0623,0.009 0.0847,0.0265 0.0266,0.01744 0.0378,0.03942 0.034,0.06559 -0.007,0.192902 -0.0793,0.366416 -0.21468,0.521192 -0.13577,0.151866 -0.32762,0.273034 -0.57633,0.363508 -0.24873,0.08757 -0.54063,0.131512 -0.87573,0.131512 z"
     fill="#1F17BF"
     id="path624"
     style="fill:#ffffff;fill-opacity:1;stroke-width:0.0366288" />
  <path
     d="m 137.49395,24.465976 c -0.3463,0 -0.61952,-0.08756 -0.81925,-0.262699 -0.19931,-0.178358 -0.29938,-0.419087 -0.29938,-0.722818 v -1.23076 c 0,-0.02908 0.0132,-0.05396 0.0395,-0.07464 0.0266,-0.02035 0.0585,-0.03037 0.0963,-0.03037 h 0.49703 c 0.0415,0 0.0735,0.01003 0.0959,0.03037 0.0266,0.01778 0.0398,0.04233 0.0398,0.07464 v 1.20459 c 0,0.361892 0.20511,0.543161 0.61577,0.543161 0.19558,0 0.35005,-0.04847 0.46299,-0.144754 0.11708,-0.09629 0.17523,-0.229095 0.17523,-0.398407 v -1.20459 c 0,-0.02908 0.0132,-0.05396 0.0395,-0.07464 0.0266,-0.02035 0.0585,-0.03037 0.0963,-0.03037 h 0.49703 c 0.0415,0 0.0735,0.01003 0.0959,0.03037 0.0266,0.01778 0.0398,0.04233 0.0398,0.07464 v 2.06732 c 0,0.02908 -0.0132,0.05396 -0.0398,0.07464 -0.0224,0.02035 -0.0544,0.03037 -0.0959,0.03037 h -0.45758 c -0.0378,0 -0.0698,-0.01003 -0.0959,-0.03037 -0.0266,-0.02069 -0.0398,-0.04556 -0.0398,-0.07464 v -0.179658 c -0.21094,0.219078 -0.52527,0.328615 -0.94341,0.328615 z"
     fill="#1F17BF"
     id="path626"
     style="fill:#ffffff;fill-opacity:1;stroke-width:0.0366288" />
  <path
     d="m 141.53995,24.465976 c -0.38825,0 -0.68929,-0.103724 -0.90395,-0.31084 v 0.161883 c 0,0.02908 -0.0133,0.05396 -0.0398,0.07464 -0.0224,0.02035 -0.0544,0.03037 -0.0959,0.03037 h -0.44636 c -0.0378,0 -0.0698,-0.01003 -0.0959,-0.03037 -0.0266,-0.02069 -0.0395,-0.04556 -0.0395,-0.07464 v -2.899675 c 0,-0.03199 0.0129,-0.05687 0.0395,-0.07432 0.0261,-0.02035 0.0582,-0.03069 0.0959,-0.03069 h 0.48041 c 0.0411,0 0.0735,0.01035 0.0959,0.03069 0.0261,0.01744 0.0395,0.04233 0.0395,0.07432 v 0.97259 c 0.21467,-0.192903 0.50492,-0.289195 0.87032,-0.289195 0.38035,0 0.67226,0.09629 0.87571,0.289195 0.20306,0.192579 0.31226,0.442349 0.32762,0.74899 0.004,0.0349 0.005,0.08175 0.005,0.139912 0,0.06139 -0.002,0.109535 -0.005,0.144756 -0.0153,0.315362 -0.12456,0.567722 -0.32762,0.757714 -0.20345,0.189669 -0.49536,0.28467 -0.87571,0.28467 z m -0.20928,-0.468526 c 0.40692,0 0.62325,-0.194194 0.64983,-0.582584 0.004,-0.0294 0.005,-0.07303 0.005,-0.131506 0,-0.05849 -0.002,-0.10211 -0.005,-0.131511 -0.0266,-0.38839 -0.24291,-0.582583 -0.64983,-0.582583 -0.21093,0 -0.37288,0.05267 -0.48582,0.157681 -0.1092,0.102428 -0.16775,0.226507 -0.17522,0.372557 l -0.005,0.166404 0.005,0.170609 c 0.0112,0.157684 0.0698,0.290804 0.17522,0.398727 0.10547,0.107921 0.26742,0.162206 0.48582,0.162206 z"
     fill="#1F17BF"
     id="path628"
     style="fill:#ffffff;fill-opacity:1;stroke-width:0.0366288" />
  <path
     d="m 144.64296,24.465976 c -0.41813,0 -0.75116,-0.09338 -0.99988,-0.280466 -0.24499,-0.189674 -0.37495,-0.455276 -0.3899,-0.797139 l -0.005,-0.109535 0.005,-0.109217 c 0.0187,-0.333135 0.15073,-0.594218 0.39572,-0.78421 0.2483,-0.189671 0.57965,-0.28467 0.99406,-0.28467 0.44471,0 0.78727,0.105016 1.02852,0.315367 0.24457,0.210352 0.36706,0.490493 0.36706,0.841079 v 0.09177 c 0,0.0294 -0.0132,0.05428 -0.0395,0.07464 -0.0266,0.02035 -0.0602,0.0307 -0.10172,0.0307 h -1.87559 v 0.0349 c 0.007,0.160589 0.0639,0.296299 0.16941,0.407456 0.1092,0.107921 0.25786,0.16188 0.44636,0.16188 0.22216,0 0.40112,-0.06721 0.53648,-0.201303 0.034,-0.03231 0.0602,-0.05267 0.0793,-0.06139 0.0224,-0.0087 0.0544,-0.01326 0.0959,-0.01326 h 0.48582 c 0.034,0 0.0623,0.0087 0.0847,0.02649 0.0266,0.01455 0.0399,0.0336 0.0399,0.05687 0,0.07011 -0.0548,0.153156 -0.16402,0.249766 -0.10547,0.09338 -0.25786,0.175133 -0.45759,0.245253 -0.19972,0.07012 -0.43142,0.105013 -0.69508,0.105013 z m 0.6274,-1.37972 v -0.01326 c 0,-0.172226 -0.0569,-0.310843 -0.16982,-0.415857 -0.10921,-0.105338 -0.2616,-0.157683 -0.45758,-0.157683 -0.19558,0 -0.34838,0.05235 -0.45759,0.157683 -0.1092,0.105014 -0.1636,0.243631 -0.1636,0.415857 v 0.01326 z"
     fill="#1F17BF"
     id="path630"
     style="fill:#ffffff;fill-opacity:1;stroke-width:0.0366288" />
  <defs
     id="defs677">
    <linearGradient
       id="paint0_linear"
       x1="339.39801"
       y1="304.815"
       x2="1365.98"
       y2="304.815"
       gradientUnits="userSpaceOnUse"
       gradientTransform="matrix(0.01804792,0,0,0.01843113,0.27777149,2.1540017)">
      <stop
         stop-color="#04005E"
         id="stop632" />
      <stop
         offset="0.0388729"
         stop-color="#060266"
         id="stop634" />
      <stop
         offset="0.2107"
         stop-color="#0F0A86"
         id="stop636" />
      <stop
         offset="0.389"
         stop-color="#160F9F"
         id="stop638" />
      <stop
         offset="0.5745"
         stop-color="#1B14B1"
         id="stop640" />
      <stop
         offset="0.7715"
         stop-color="#1E16BC"
         id="stop642" />
      <stop
         offset="1"
         stop-color="#1F17BF"
         id="stop644" />
    </linearGradient>
    <linearGradient
       id="paint1_linear"
       x1="-0.485616"
       y1="928.81598"
       x2="827.79199"
       y2="928.81598"
       gradientUnits="userSpaceOnUse"
       gradientTransform="matrix(0.01804792,0,0,0.01843113,0.27777149,2.1540017)">
      <stop
         stop-color="#04005E"
         id="stop647" />
      <stop
         offset="0.0388729"
         stop-color="#060266"
         id="stop649" />
      <stop
         offset="0.2107"
         stop-color="#0F0A86"
         id="stop651" />
      <stop
         offset="0.389"
         stop-color="#160F9F"
         id="stop653" />
      <stop
         offset="0.5745"
         stop-color="#1B14B1"
         id="stop655" />
      <stop
         offset="0.7715"
         stop-color="#1E16BC"
         id="stop657" />
      <stop
         offset="1"
         stop-color="#1F17BF"
         id="stop659" />
    </linearGradient>
    <linearGradient
       id="paint2_linear"
       x1="800.57599"
       y1="1006.61"
       x2="1523.6899"
       y2="1006.61"
       gradientUnits="userSpaceOnUse"
       gradientTransform="matrix(0.01804792,0,0,0.01843113,0.27777149,2.1540017)">
      <stop
         stop-color="#04005E"
         id="stop662" />
      <stop
         offset="0.0388729"
         stop-color="#060266"
         id="stop664" />
      <stop
         offset="0.2107"
         stop-color="#0F0A86"
         id="stop666" />
      <stop
         offset="0.389"
         stop-color="#160F9F"
         id="stop668" />
      <stop
         offset="0.5745"
         stop-color="#1B14B1"
         id="stop670" />
      <stop
         offset="0.7715"
         stop-color="#1E16BC"
         id="stop672" />
      <stop
         offset="1"
         stop-color="#1F17BF"
         id="stop674" />
    </linearGradient>
  </defs>
</svg>
