<?xml version="1.0" encoding="UTF-8" standalone="no"?>
<svg
   width="174"
   height="53"
   viewBox="0 0 4701 1420"
   fill="none"
   version="1.1"
   id="svg679"
   sodipodi:docname="left_menu_logo.svg"
   inkscape:version="1.1 (c68e22c387, 2021-05-23)"
   xmlns:inkscape="http://www.inkscape.org/namespaces/inkscape"
   xmlns:sodipodi="http://sodipodi.sourceforge.net/DTD/sodipodi-0.dtd"
   xmlns="http://www.w3.org/2000/svg"
   xmlns:svg="http://www.w3.org/2000/svg">
  <sodipodi:namedview
     id="namedview681"
     pagecolor="#ffffff"
     bordercolor="#666666"
     borderopacity="1.0"
     inkscape:pageshadow="2"
     inkscape:pageopacity="0.0"
     inkscape:pagecheckerboard="0"
     showgrid="false"
     inkscape:zoom="0.26124924"
     inkscape:cx="2287.088"
     inkscape:cy="851.67713"
     inkscape:window-width="1920"
     inkscape:window-height="1017"
     inkscape:window-x="-8"
     inkscape:window-y="-8"
     inkscape:window-maximized="1"
     inkscape:current-layer="svg679"
     inkscape:snap-global="true"
     inkscape:lockguides="false" />
  <path
     d="m 1257.6619,503.06055 -560.22287,96.61828 c -11.23152,1.42166 -22.46597,-2.84111 -28.08064,-12.78682 L 535.97209,358.13017 c -9.83005,-15.63015 -1.4044,-35.52232 16.84911,-41.20527 l 540.5679,-166.2427 c 12.633,-4.26263 26.677,1.42087 32.2917,14.20874 l 151.6398,298.38378 c 9.8256,15.63089 0,36.94176 -19.6587,39.78583 z"
     fill="url(#paint0_linear)"
     id="path578"
     style="fill:url(#paint0_linear);stroke-width:0.736132" />
  <path
     d="m 503.22792,482.89338 377.43195,430.92267 c 7.01467,8.5315 9.82128,21.3324 4.21027,31.287 L 762.79943,1184.0285 c -9.82055,17.0703 -30.8675,21.3324 -44.89831,9.9546 L 292.76381,815.68425 c -9.82164,-8.5315 -12.62782,-24.1772 -5.61236,-35.55494 L 458.32888,487.1606 c 8.41834,-17.06664 32.27116,-18.48978 44.89904,-4.26722 z"
     fill="url(#paint1_linear)"
     id="path580"
     style="fill:url(#paint1_linear);stroke-width:0.736132" />
  <path
     d="M 560.75923,735.27055 716.4609,428.88277 c 8.41468,-15.67462 -5.61174,-34.20073 -22.44404,-29.92536 l -211.80738,54.15071 c -4.2088,1.42611 -7.01394,2.85 -8.41688,7.12537 L 287.23357,782.29885 c -5.61082,9.9746 2.80538,22.7993 14.02703,21.3739 l 218.82155,-37.05073 c 16.8323,-4.27611 32.26239,-14.25073 40.67708,-31.35147 z"
     fill="#f27407"
     id="path582"
     style="stroke-width:0.736132" />
  <path
     d="M 870.82982,1143.3725 1076.165,605.83023 c 4.2256,-11.37479 14.0659,-18.48533 26.7281,-18.48533 h 265.812 c 18.2842,0 32.3501,17.06441 26.7208,35.55196 L 1259.0071,1180.352 c -2.8146,12.7935 -15.4769,22.7481 -29.5355,21.3324 l -336.14072,-19.9092 c -16.87689,-1.4232 -29.53474,-19.9092 -22.50106,-38.4027 z"
     fill="url(#paint2_linear)"
     id="path584"
     style="fill:url(#paint2_linear);stroke-width:0.736132" />
  <path
     d="M 1066.5879,976.48645 H 721.15587 c -15.44618,0 -23.87256,18.4193 -14.04178,29.75255 l 147.43832,168.5909 c 2.80879,2.8389 5.61759,4.2546 9.83078,4.2546 l 366.49211,21.2509 c 11.2367,0 19.6586,-12.749 12.6403,-22.6666 L 1110.1162,997.73725 c -9.833,-12.749 -26.6843,-21.2508 -43.5283,-21.2508 z"
     fill="#f27407"
     id="path586"
     style="stroke-width:0.736132" />
  <path
     d="m 1016.341,421.34824 165.5303,284.91385 c 11.2147,18.51795 39.2734,15.66943 46.2844,-5.69925 l 61.7248,-195.16522 c 2.8073,-7.12314 1.4036,-14.24554 -1.4037,-19.94331 L 1132.7722,180.59566 c -9.8183,-19.94406 -37.8771,-18.51951 -46.2917,1.42455 l -74.3468,183.76975 c -7.0125,18.51943 -5.6096,38.46348 4.2073,55.55828 z"
     fill="#f27407"
     id="path588"
     style="stroke-width:0.736132" />
  <path
     d="m 1733.9692,929.82312 c -7.31,0 -13.9,-1.62331 -19.76,-4.86363 -5.12,-3.70319 -7.68,-7.87562 -7.68,-12.5046 V 460.78272 c 0,-5.09569 2.56,-9.26494 7.68,-12.50777 5.86,-3.24283 12.45,-4.86424 19.76,-4.86424 h 512.65 c 8.05,0 14.63,1.62141 19.76,4.86424 5.12,3.24283 7.68,7.41208 7.68,12.50777 v 65.31813 c 0,4.63279 -2.56,8.80205 -7.68,12.50841 -5.13,3.24219 -11.71,4.8636 -19.76,4.8636 h -350.18 v 93.80858 h 326.03 c 8.05,0 14.63,1.85287 19.76,5.55859 5.12,3.24282 7.68,7.41208 7.68,12.5084 v 60.4539 c 0,4.63278 -2.56,8.80204 -7.68,12.50776 -5.13,3.24283 -11.71,4.86425 -19.76,4.86425 h -326.03 v 96.58787 h 358.96 c 8.05,0 14.64,1.62141 19.76,4.86361 5.12,3.24282 7.68,7.41208 7.68,12.50839 v 65.32068 c 0,4.62898 -2.56,8.80141 -7.68,12.5046 -5.12,3.24032 -11.71,4.86363 -19.76,4.86363 z"
     fill="#1F17BF"
     id="path590"
     style="fill:#ffffff;fill-opacity:1;stroke-width:0.796309" />
  <path
     d="m 2435.0692,929.82312 c -7.32,0 -13.91,-1.62331 -19.76,-4.86363 -5.12,-3.70319 -7.69,-7.87562 -7.69,-12.5046 V 460.78272 c 0,-5.09569 2.57,-9.26494 7.69,-12.50777 5.85,-3.24283 12.44,-4.86424 19.76,-4.86424 h 285.41 c 107.58,0 191.01,16.21412 250.28,48.64175 59.28,32.42761 90.38,79.44731 93.31,141.05973 0.73,13.4342 1.1,31.2691 1.1,53.50535 0,22.23624 -0.37,39.83969 -1.1,52.81036 -3.66,64.39234 -34.03,112.33847 -91.11,143.83902 -56.35,31.03957 -138.68,46.5562 -246.99,46.5562 z m 285.41,-100.06091 c 48.3,0 83.79,-7.18063 106.48,-21.54126 22.69,-14.82417 34.76,-38.21829 36.23,-70.18238 1.46,-13.4342 2.19,-30.8062 2.19,-52.11602 0,-21.30918 -0.73,-38.44973 -2.19,-51.42104 -1.47,-31.03765 -14.64,-53.96824 -39.52,-68.79241 -24.15,-14.82416 -60.38,-22.23624 -108.68,-22.23624 h -109.77 v 286.28935 z"
     fill="#1F17BF"
     id="path592"
     style="fill:#ffffff;fill-opacity:1;stroke-width:0.796309" />
  <path
     d="m 3507.3592,936.77289 c -103.19,0 -184.42,-15.97948 -243.7,-47.94484 -59.28,-31.96599 -90.74,-78.98569 -94.4,-141.06164 -0.74,-13.4342 -1.1,-33.35404 -1.1,-59.75891 0,-26.86904 0.36,-47.02033 1.1,-60.45453 3.66,-61.14888 35.49,-108.16922 95.5,-141.05973 60.74,-33.35406 141.61,-50.03108 242.6,-50.03108 100.99,0 181.86,16.67702 242.6,50.03108 60.74,32.89051 92.58,79.91085 95.5,141.05973 1.47,26.8684 2.2,47.02033 2.2,60.45453 0,12.97067 -0.73,32.89051 -2.2,59.75891 -3.66,62.07595 -35.12,109.09565 -94.4,141.06164 -59.28,31.96536 -140.51,47.94484 -243.7,47.94484 z m 0,-100.06213 c 40.25,0 72.08,-7.64353 95.5,-22.93123 24.15,-15.28706 36.96,-38.68118 38.42,-70.18237 1.47,-26.8684 2.2,-45.86182 2.2,-56.97962 0,-12.04424 -0.73,-31.03766 -2.2,-56.97963 -1.46,-31.50119 -14.27,-54.89531 -38.42,-70.18301 -24.15,-15.28706 -55.98,-22.93059 -95.5,-22.93059 -39.52,0 -71.35,7.64353 -95.5,22.93059 -23.42,15.2877 -36.23,38.68182 -38.42,70.18301 -0.74,12.97067 -1.1,31.96408 -1.1,56.97963 0,24.552 0.36,43.54542 1.1,56.97962 2.19,31.50119 15,54.89531 38.42,70.18237 23.42,15.2877 55.25,22.93123 95.5,22.93123 z"
     fill="#1F17BF"
     id="path594"
     style="fill:#ffffff;fill-opacity:1;stroke-width:0.796309" />
  <path
     d="m 4338.2492,929.82312 c -7.32,0 -13.54,-1.3887 -18.66,-4.16611 -4.39,-3.24664 -6.58,-7.18444 -6.58,-11.81342 V 813.77953 h -355.67 c -7.32,0 -13.54,-1.38932 -18.66,-4.16926 -4.39,-3.24218 -6.59,-7.17999 -6.59,-11.81278 v -27.79483 c 0,-6.94855 4.02,-13.89774 12.08,-20.84629 l 329.32,-293.93224 c 3.66,-3.70635 9.14,-6.48565 16.46,-8.33915 7.32,-2.31575 15.37,-3.47427 24.15,-3.47427 h 79.04 c 7.32,0 13.17,1.62141 17.56,4.86424 5.13,2.77992 7.69,6.48565 7.69,11.11781 v 293.93288 h 98.79 c 7.32,0 13.54,1.62141 18.67,4.86423 5.12,2.77929 7.68,6.48565 7.68,11.11781 v 28.48981 c 0,4.63279 -2.56,8.5706 -7.68,11.81278 -4.4,2.77994 -10.25,4.16926 -17.57,4.16926 h -99.89 v 100.06406 c 0,4.62898 -2.56,8.56678 -7.69,11.81342 -4.39,2.77741 -10.24,4.16611 -17.56,4.16611 z m -24.15,-175.10752 V 516.37301 l -264.55,238.34259 z"
     fill="#1F17BF"
     id="path596"
     style="fill:#ffffff;fill-opacity:1;stroke-width:0.796309" />
  <path
     d="m 4338.6892,929.21438 c -7.32,0 -13.54,-1.3887 -18.66,-4.16612 -4.39,-3.24663 -6.58,-7.18444 -6.58,-11.81341 V 813.17206 h -355.67 c -7.32,0 -13.54,-1.38996 -18.66,-4.16926 -4.39,-3.24282 -6.59,-7.18063 -6.59,-11.81279 v -27.79483 c 0,-6.94918 4.02,-13.89773 12.07,-20.84628 l 329.33,-293.93288 c 3.66,-3.70572 9.14,-6.48565 16.46,-8.33851 7.32,-2.31639 15.37,-3.47428 24.15,-3.47428 h 79.04 c 7.32,0 13.17,1.62142 17.56,4.86424 5.13,2.77929 7.69,6.48565 7.69,11.11781 v 293.93288 h 98.79 c 7.32,0 13.54,1.62142 18.67,4.8636 5.12,2.77993 7.68,6.48565 7.68,11.11845 v 28.4898 c 0,4.63216 -2.56,8.56997 -7.68,11.81279 -4.4,2.7793 -10.25,4.16926 -17.57,4.16926 h -99.89 v 100.06279 c 0,4.62897 -2.56,8.56678 -7.69,11.81341 -4.39,2.77742 -10.24,4.16612 -17.56,4.16612 z m -24.15,-175.10689 V 515.76554 l -264.55,238.34195 z"
     fill="#F27407"
     id="path598"
     style="fill:#ffffff;fill-opacity:1;stroke-width:0.796309" />
  <path
     d="m 3067.8035,1159.3008 c -0.9932,0 -1.8337,-0.4062 -2.532,-1.2058 -0.6877,-0.6855 -1.037,-1.6629 -1.037,-2.9195 v -113.9093 c 0,-1.2693 0.3493,-2.234 1.037,-2.9321 0.6983,-0.7997 1.5388,-1.1932 2.532,-1.1932 h 11.7216 c 1.0914,0 1.9319,0.3935 2.5321,1.1932 0.6877,0.6981 1.0368,1.6628 1.0368,2.9321 v 6.8797 c 5.5444,-8.4916 13.468,-12.7313 23.7599,-12.7313 9.9974,0 17.6699,3.6684 23.0177,11.0177 5.3479,7.2225 8.2184,17.0345 8.6113,29.423 0.098,1.3709 0.1527,3.3765 0.1527,6.0167 0,2.7544 -0.055,4.8234 -0.1527,6.1942 -0.3929,12.046 -3.2634,21.7944 -8.6113,29.2454 -5.3478,7.3494 -13.0203,11.0177 -23.0177,11.0177 -9.9973,0 -17.6262,-4.0746 -22.8649,-12.2109 v 39.0571 c 0,1.2566 -0.3493,2.234 -1.0478,2.9195 -0.5893,0.7996 -1.4296,1.2058 -2.5211,1.2058 z m 33.5606,-49.3768 c 10.6849,0 16.3821,-7.6286 17.0697,-22.8859 0.098,-1.1551 0.1528,-2.8687 0.1528,-5.1661 0,-2.2975 -0.055,-4.0112 -0.1528,-5.1662 -0.6876,-15.2573 -6.3848,-22.8859 -17.0697,-22.8859 -5.7517,0 -10.0082,2.1324 -12.7803,6.372 -2.7721,4.2395 -4.3001,9.4691 -4.5948,15.6634 l -0.1527,6.537 0.1527,6.7021 c 0.1965,5.7374 1.7244,10.675 4.5948,14.8004 2.9796,4.011 7.236,6.0292 12.7803,6.0292 z"
     fill="#1F17BF"
     id="path600"
     style="fill:#ffffff;fill-opacity:1;stroke-width:1.177" />
  <path
     d="m 3189.4624,1128.3293 c -11.5907,0 -20.5512,-3.4398 -26.8814,-10.3197 -6.3411,-7.0066 -9.7572,-16.5265 -10.2482,-28.5725 l -0.1528,-7.5651 0.1528,-7.5652 c 0.491,-11.9317 3.9618,-21.4009 10.3901,-28.3948 6.4393,-6.994 15.3452,-10.4974 26.7395,-10.4974 11.3833,0 20.2891,3.5034 26.7285,10.4974 6.4284,6.9939 9.8989,16.4631 10.3901,28.3948 0.098,1.3708 0.1528,3.8968 0.1528,7.5652 0,3.6683 -0.055,6.1942 -0.1528,7.5651 -0.4912,12.046 -3.9072,21.5659 -10.2483,28.5725 -6.3301,6.8799 -15.2906,10.3197 -26.8703,10.3197 z m 0,-17.0344 c 5.2388,0 9.2988,-1.8913 12.1691,-5.6739 2.8704,-3.9094 4.453,-9.5833 4.7585,-17.0343 0.099,-1.1552 0.1419,-3.3891 0.1419,-6.7147 0,-3.3257 -0.044,-5.5597 -0.1419,-6.7148 -0.3055,-7.451 -1.8881,-13.0741 -4.7585,-16.8567 -2.8703,-3.8968 -6.9303,-5.8516 -12.1691,-5.8516 -5.2498,0 -9.3097,1.9548 -12.1801,5.8516 -2.8705,3.7826 -4.453,9.4057 -4.7586,16.8567 l -0.1418,6.7148 0.1418,6.7147 c 0.3056,7.451 1.8881,13.1249 4.7586,17.0343 2.8704,3.7826 6.9303,5.6739 12.1801,5.6739 z"
     fill="#1F17BF"
     id="path602"
     style="fill:#ffffff;fill-opacity:1;stroke-width:1.177" />
  <path
     d="m 3262.0952,1126.603 c -1.2877,0 -2.3246,-0.3428 -3.1213,-1.0282 -0.6875,-0.7997 -1.2879,-1.8913 -1.7789,-3.2622 l -21.2388,-79.8406 c -0.098,-0.3427 -0.1418,-0.8631 -0.1418,-1.5485 0,-1.0409 0.2946,-1.8913 0.8839,-2.5894 0.6986,-0.7997 1.4407,-1.1932 2.2375,-1.1932 h 10.9795 c 1.0913,0 1.9863,0.3427 2.6739,1.0281 0.6985,0.6854 1.146,1.4345 1.3424,2.2341 l 14.5484,56.9546 15.4434,-56.4342 c 0.2947,-1.0409 0.7968,-1.8913 1.4844,-2.5894 0.7968,-0.7997 1.7898,-1.1932 2.9685,-1.1932 h 7.4325 c 1.1896,0 2.1282,0.3935 2.8159,1.1932 0.7967,0.6981 1.3424,1.5485 1.637,2.5894 l 15.4434,56.4342 14.5485,-56.9546 c 0.098,-0.7996 0.502,-1.5487 1.1895,-2.2341 0.7968,-0.6854 1.6809,-1.0281 2.6741,-1.0281 h 10.9905 c 0.8949,0 1.637,0.3935 2.2263,1.1932 0.6985,0.6981 1.0368,1.5485 1.0368,2.5894 l -0.2946,1.5485 -21.2387,79.8406 c -0.3929,1.3709 -0.9823,2.4625 -1.779,3.2622 -0.6876,0.6854 -1.6808,1.0282 -2.9686,1.0282 h -9.6481 c -2.5757,0 -4.2128,-1.4344 -4.9003,-4.2904 l -15.4434,-54.3778 -15.4544,54.3778 c -0.7857,2.856 -2.4665,4.2904 -5.0422,4.2904 z"
     fill="#1F17BF"
     id="path604"
     style="fill:#ffffff;fill-opacity:1;stroke-width:1.177" />
  <path
     d="m 3393.9152,1128.3293 c -10.9904,0 -19.7545,-3.6683 -26.2811,-11.0177 -6.4392,-7.451 -9.8553,-17.8848 -10.2482,-31.3144 l -0.1528,-4.3029 0.1528,-4.2904 c 0.4912,-13.0867 3.9618,-23.3429 10.3902,-30.8065 6.5375,-7.451 15.2469,-11.1828 26.1391,-11.1828 11.678,0 20.6932,4.1253 27.0233,12.3887 6.4392,8.2633 9.6588,19.2683 9.6588,33.0405 v 3.6049 c 0,1.1551 -0.3492,2.1324 -1.0477,2.9321 -0.6876,0.7997 -1.5826,1.2059 -2.6739,1.2059 h -49.2988 v 1.3709 c 0.1964,6.3085 1.6807,11.6396 4.4529,16.0062 2.8704,4.2395 6.7886,6.3593 11.7326,6.3593 5.8391,0 10.543,-2.6402 14.1119,-7.9079 0.895,-1.2693 1.5826,-2.069 2.0736,-2.4117 0.6003,-0.3427 1.4406,-0.5204 2.5321,-0.5204 h 12.7694 c 0.884,0 1.6263,0.3426 2.2264,1.0408 0.6877,0.5712 1.0369,1.32 1.0369,2.234 0,2.7544 -1.4296,6.0166 -4.3,9.8118 -2.7723,3.6684 -6.7886,6.8798 -12.0383,9.6343 -5.2388,2.7544 -11.3288,4.1253 -18.2592,4.1253 z m 16.4802,-54.2002 v -0.5204 c 0,-6.7656 -1.4843,-12.211 -4.4529,-16.3363 -2.8704,-4.138 -6.8759,-6.1943 -12.0273,-6.1943 -5.1515,0 -9.1569,2.0563 -12.0273,6.1943 -2.8704,4.1253 -4.311,9.5707 -4.311,16.3363 v 0.5204 z"
     fill="#1F17BF"
     id="path606"
     style="fill:#ffffff;fill-opacity:1;stroke-width:1.177" />
  <path
     d="m 3449.9152,1126.603 c -0.9823,0 -1.8227,-0.3936 -2.5212,-1.1932 -0.6876,-0.8124 -1.0367,-1.7897 -1.0367,-2.9321 v -81.0465 c 0,-1.1423 0.3491,-2.1197 1.0367,-2.9194 0.6985,-0.9139 1.5389,-1.3709 2.5212,-1.3709 h 12.0382 c 1.0805,0 1.9755,0.3935 2.663,1.1932 0.6985,0.8123 1.0477,1.8405 1.0477,3.0971 v 7.0575 c 2.3684,-3.6683 5.3479,-6.4736 8.9059,-8.4283 3.6672,-1.9548 7.8255,-2.9195 12.4748,-2.9195 h 6.09 c 1.0915,0 1.9318,0.3935 2.5211,1.1932 0.6986,0.6981 1.0369,1.6628 1.0369,2.9321 v 12.3886 c 0,1.1425 -0.3383,2.1198 -1.0369,2.9195 -0.5893,0.8124 -1.4296,1.2059 -2.5211,1.2059 h -11.5799 c -4.6601,0 -8.3164,1.5485 -10.9904,4.6457 -2.6738,3.0971 -4.0162,7.3494 -4.0162,12.7313 v 47.3205 c 0,1.1424 -0.3384,2.1197 -1.0369,2.9321 -0.6876,0.7996 -1.5825,1.1932 -2.674,1.1932 z"
     fill="#1F17BF"
     id="path608"
     style="fill:#ffffff;fill-opacity:1;stroke-width:1.177" />
  <path
     d="m 3540.5236,1128.3293 c -10.9795,0 -19.7435,-3.6683 -26.281,-11.0177 -6.4393,-7.451 -9.8444,-17.8848 -10.2482,-31.3144 l -0.142,-4.3029 0.142,-4.2904 c 0.502,-13.0867 3.9617,-23.3429 10.401,-30.8065 6.5266,-7.451 15.2469,-11.1828 26.1282,-11.1828 11.6889,0 20.693,4.1253 27.0341,12.3887 6.4284,8.2633 9.6481,19.2683 9.6481,33.0405 v 3.6049 c 0,1.1551 -0.3493,2.1324 -1.0369,2.9321 -0.6984,0.7997 -1.5825,1.2059 -2.6739,1.2059 h -49.2989 v 1.3709 c 0.1966,6.3085 1.6808,11.6396 4.4531,16.0062 2.8704,4.2395 6.7775,6.3593 11.7325,6.3593 5.8391,0 10.5431,-2.6402 14.1011,-7.9079 0.8949,-1.2693 1.5934,-2.069 2.0844,-2.4117 0.5894,-0.3427 1.4299,-0.5204 2.5212,-0.5204 h 12.7694 c 0.895,0 1.6372,0.3426 2.2266,1.0408 0.6985,0.5712 1.0476,1.32 1.0476,2.234 0,2.7544 -1.4406,6.0166 -4.3109,9.8118 -2.7722,3.6684 -6.7777,6.8798 -12.0274,9.6343 -5.2495,2.7544 -11.3396,4.1253 -18.2701,4.1253 z m 16.4912,-54.2002 v -0.5204 c 0,-6.7656 -1.4844,-12.211 -4.453,-16.3363 -2.8813,-4.138 -6.8868,-6.1943 -12.0382,-6.1943 -5.1405,0 -9.1569,2.0563 -12.0273,6.1943 -2.8703,4.1253 -4.3002,9.5707 -4.3002,16.3363 v 0.5204 z"
     fill="#1F17BF"
     id="path610"
     style="fill:#ffffff;fill-opacity:1;stroke-width:1.177" />
  <path
     d="m 3621.6259,1128.3293 c -9.9972,0 -17.6699,-3.7319 -23.0178,-11.1828 -5.3369,-7.4636 -8.2073,-17.3771 -8.6111,-29.7657 l -0.1419,-5.6865 0.1419,-5.4962 c 0.3055,-12.046 3.1214,-21.8578 8.4693,-29.423 5.4462,-7.5778 13.1624,-11.3605 23.1596,-11.3605 9.6043,0 17.2333,3.7827 22.8759,11.3605 v -38.2067 c 0,-1.2567 0.3492,-2.2341 1.0367,-2.9195 0.6986,-0.7997 1.539,-1.2058 2.5213,-1.2058 h 12.6275 c 1.0914,0 1.9317,0.4061 2.5211,1.2058 0.6986,0.6854 1.0368,1.6628 1.0368,2.9195 v 113.9093 c 0,1.1424 -0.3382,2.1197 -1.0368,2.9321 -0.5894,0.7996 -1.4297,1.1932 -2.5211,1.1932 h -11.7326 c -0.9931,0 -1.8335,-0.3936 -2.5212,-1.1932 -0.6984,-0.8124 -1.0477,-1.7897 -1.0477,-2.9321 v -6.3593 c -5.6426,8.1363 -13.5552,12.2109 -23.7599,12.2109 z m 5.5007,-18.4053 c 5.7408,0 9.9972,-2.1325 12.7696,-6.372 2.772,-4.2396 4.3109,-9.4691 4.6056,-15.6634 0.098,-1.371 0.1418,-3.6049 0.1418,-6.7021 0,-2.9829 -0.044,-5.1661 -0.1418,-6.537 -0.1965,-5.7373 -1.779,-10.6116 -4.7586,-14.6353 -2.8704,-4.1253 -7.0723,-6.1943 -12.6166,-6.1943 -10.6958,0 -16.382,7.6286 -17.0805,22.8859 l -0.1418,5.1662 0.1418,5.1661 c 0.6985,15.2573 6.3847,22.8859 17.0805,22.8859 z"
     fill="#1F17BF"
     id="path612"
     style="fill:#ffffff;fill-opacity:1;stroke-width:1.177" />
  <path
     d="m 3760.7473,1128.3293 c -10.2047,0 -18.1174,-4.0746 -23.76,-12.2109 v 6.3593 c 0,1.1424 -0.3491,2.1197 -1.0367,2.9321 -0.6004,0.7996 -1.4407,1.1932 -2.5321,1.1932 h -11.7326 c -0.9823,0 -1.8226,-0.3936 -2.5212,-1.1932 -0.6875,-0.8124 -1.0368,-1.7897 -1.0368,-2.9321 v -113.9093 c 0,-1.2567 0.3493,-2.2341 1.0368,-2.9195 0.6986,-0.7997 1.5389,-1.2058 2.5212,-1.2058 h 12.6276 c 1.0914,0 1.9316,0.4061 2.5211,1.2058 0.6985,0.6854 1.0368,1.6628 1.0368,2.9195 v 38.2067 c 5.6426,-7.5778 13.2716,-11.3605 22.8759,-11.3605 9.9972,0 17.6699,3.7827 23.0177,11.3605 5.3479,7.5652 8.2183,17.377 8.6113,29.423 0.098,1.3709 0.1526,3.2113 0.1526,5.4962 0,2.4117 -0.054,4.3029 -0.1526,5.6865 -0.393,12.3886 -3.2634,22.3021 -8.6113,29.7657 -5.3478,7.4509 -13.0205,11.1828 -23.0177,11.1828 z m -5.5007,-18.4053 c 10.6958,0 16.3929,-7.6286 17.0806,-22.8859 0.098,-1.1551 0.1527,-2.8687 0.1527,-5.1661 0,-2.2975 -0.054,-4.0112 -0.1527,-5.1662 -0.6877,-15.2573 -6.3848,-22.8859 -17.0806,-22.8859 -5.5443,0 -9.8009,2.069 -12.7694,6.1943 -2.8705,4.0237 -4.3983,8.898 -4.6058,14.6353 l -0.1419,6.537 0.1419,6.7021 c 0.3056,6.1943 1.8336,11.4238 4.6058,15.6634 2.7721,4.2395 7.0287,6.372 12.7694,6.372 z"
     fill="#1F17BF"
     id="path614"
     style="fill:#ffffff;fill-opacity:1;stroke-width:1.177" />
  <path
     d="m 3819.8141,1159.3008 c -0.7857,0 -1.4843,-0.3427 -2.0737,-1.0281 -0.6002,-0.6982 -0.8949,-1.4979 -0.8949,-2.4118 0,-1.0281 0.1964,-1.9547 0.6003,-2.7544 l 11.5799,-31.8347 -28.5185,-77.9366 c -0.3929,-1.0409 -0.5895,-1.8405 -0.5895,-2.4117 0.099,-1.0409 0.4475,-1.8913 1.0369,-2.5894 0.6003,-0.7997 1.3424,-1.1932 2.2264,-1.1932 h 12.0383 c 1.8772,0 3.2087,1.0789 4.0054,3.2622 l 19.7545,56.2692 20.3437,-56.2692 c 0.7859,-2.1833 2.1283,-3.2622 4.0054,-3.2622 h 11.8747 c 0.7966,0 1.4952,0.3427 2.0845,1.0281 0.6875,0.6854 1.0368,1.4853 1.0368,2.4118 0,0.7996 -0.1965,1.7135 -0.5894,2.7544 l -42.0299,112.6907 c -0.8841,2.1833 -2.2702,3.2749 -4.1583,3.2749 z"
     fill="#1F17BF"
     id="path616"
     style="fill:#ffffff;fill-opacity:1;stroke-width:1.177" />
  <path
     d="m 3926.4989,1126.603 c -0.9931,0 -1.8335,-0.3936 -2.5321,-1.1932 -0.6875,-0.8124 -1.0367,-1.7897 -1.0367,-2.9321 v -112.018 c 0,-1.2566 0.2946,-2.2848 0.8949,-3.0972 0.6876,-0.7997 1.5825,-1.1931 2.6739,-1.1931 h 36.2347 c 29.0968,0 43.9508,15.6 44.5402,46.8 0.2074,6.6513 0.3056,11.1193 0.3056,13.4167 0,2.1833 -0.098,6.6006 -0.3056,13.2518 -0.3929,16.057 -4.1038,27.9252 -11.1323,35.6174 -7.0287,7.5651 -17.921,11.3477 -32.6658,11.3477 z m 36.2347,-19.7761 c 8.3056,0 14.2974,-2.1325 17.9645,-6.372 3.6671,-4.3539 5.588,-11.4747 5.7953,-21.3374 0.1965,-6.8798 0.2948,-11.1827 0.2948,-12.909 0,-1.8279 -0.098,-6.0801 -0.2948,-12.7313 -0.2073,-9.4058 -2.2811,-16.3363 -6.2429,-20.817 -3.8635,-4.468 -9.9535,-6.7147 -18.27,-6.7147 h -18.412 v 80.8814 z"
     fill="#1F17BF"
     id="path618"
     style="fill:#ffffff;fill-opacity:1;stroke-width:1.177" />
  <path
     d="m 4058.8208,1128.3293 c -10.9795,0 -19.7434,-3.6683 -26.281,-11.0177 -6.4284,-7.451 -9.8444,-17.8848 -10.2482,-31.3144 l -0.142,-4.3029 0.142,-4.2904 c 0.502,-13.0867 3.9618,-23.3429 10.401,-30.8065 6.5266,-7.451 15.247,-11.1828 26.1282,-11.1828 11.6891,0 20.6931,4.1253 27.0341,12.3887 6.4285,8.2633 9.6481,19.2683 9.6481,33.0405 v 3.6049 c 0,1.1551 -0.3493,2.1324 -1.0369,2.9321 -0.6985,0.7997 -1.5825,1.2059 -2.6739,1.2059 h -49.2987 v 1.3709 c 0.1963,6.3085 1.6807,11.6396 4.4528,16.0062 2.8705,4.2395 6.7776,6.3593 11.7327,6.3593 5.839,0 10.5429,-2.6402 14.1009,-7.9079 0.895,-1.2693 1.5935,-2.069 2.0846,-2.4117 0.5893,-0.3427 1.4298,-0.5204 2.5211,-0.5204 h 12.7696 c 0.8949,0 1.637,0.3426 2.2373,1.0408 0.6875,0.5712 1.0369,1.32 1.0369,2.234 0,2.7544 -1.4407,6.0166 -4.3112,9.8118 -2.7721,3.6684 -6.7776,6.8798 -12.0272,9.6343 -5.2497,2.7544 -11.3397,4.1253 -18.2702,4.1253 z m 16.4911,-54.2002 v -0.5204 c 0,-6.7656 -1.4843,-12.211 -4.4528,-16.3363 -2.8705,-4.138 -6.8868,-6.1943 -12.0383,-6.1943 -5.1404,0 -9.1569,2.0563 -12.0272,6.1943 -2.8705,4.1253 -4.3001,9.5707 -4.3001,16.3363 v 0.5204 z"
     fill="#1F17BF"
     id="path620"
     style="fill:#ffffff;fill-opacity:1;stroke-width:1.177" />
  <path
     d="m 4135.8412,1126.603 c -1.4842,0 -2.6301,-0.3428 -3.4161,-1.0282 -0.7966,-0.7997 -1.4406,-1.8913 -1.9317,-3.2622 l -27.7762,-79.8406 -0.2947,-1.5485 c 0,-1.0409 0.2947,-1.8913 0.8949,-2.5894 0.6875,-0.7997 1.4843,-1.1932 2.3793,-1.1932 h 12.0273 c 1.8771,0 3.165,1.0789 3.8526,3.2622 l 19.7545,60.3945 19.7543,-60.3945 c 0.2947,-0.7996 0.7422,-1.5487 1.3316,-2.2341 0.6985,-0.6854 1.5389,-1.0281 2.5211,-1.0281 h 12.1801 c 0.7967,0 1.4843,0.3935 2.0846,1.1932 0.6875,0.6981 1.0367,1.5485 1.0367,2.5894 0,0.6854 -0.054,1.2058 -0.1527,1.5485 l -27.918,79.8406 c -0.4911,1.3709 -1.1351,2.4625 -1.9318,3.2622 -0.7859,0.6854 -1.921,1.0282 -3.4161,1.0282 z"
     fill="#1F17BF"
     id="path622"
     style="fill:#ffffff;fill-opacity:1;stroke-width:1.177" />
  <path
     d="m 4235.6612,1128.3293 c -13.6643,0 -24.251,-4.0746 -31.7818,-12.2109 -7.4214,-8.1491 -11.3833,-19.6238 -11.8745,-34.4241 -0.098,-3.0972 -0.1527,-8.1364 -0.1527,-15.1305 0,-7.1209 0.054,-12.2743 0.1527,-15.4857 0.4912,-14.6861 4.4966,-26.0974 12.0274,-34.2464 7.618,-8.2633 18.1609,-12.3886 31.6289,-12.3886 8.8076,0 16.4801,1.7771 23.0177,5.3312 6.5375,3.4398 11.5799,8.1998 15.1486,14.2798 3.5581,5.9659 5.4462,12.7315 5.6426,20.3093 v 0.3427 c 0,0.9139 -0.3492,1.7262 -1.0368,2.4117 -0.6003,0.5712 -1.2878,0.8632 -2.0845,0.8632 h -14.101 c -1.1896,0 -2.0846,-0.292 -2.6739,-0.8632 -0.6003,-0.5712 -1.0914,-1.6628 -1.4843,-3.2749 -1.5936,-7.2225 -4.2128,-12.2743 -7.8801,-15.143 -3.6562,-2.9828 -8.5565,-4.468 -14.7011,-4.468 -14.2539,0 -21.6753,9.228 -22.2756,27.6967 -0.098,3.0971 -0.1419,7.8571 -0.1419,14.2799 0,6.4354 0.044,11.3097 0.1419,14.6353 0.6003,18.4686 8.0217,27.6967 22.2756,27.6967 6.1446,0 11.0449,-1.4851 14.7011,-4.4681 3.7654,-2.9829 6.3848,-8.0347 7.8801,-15.1431 0.2945,-1.6119 0.7421,-2.7036 1.3314,-3.2748 0.6986,-0.5712 1.6372,-0.8632 2.8268,-0.8632 h 14.101 c 0.8949,0 1.637,0.3556 2.2264,1.041 0.6985,0.6853 0.9932,1.5485 0.8949,2.5767 -0.1964,7.5779 -2.0845,14.3941 -5.6426,20.4742 -3.5687,5.9658 -8.6111,10.7258 -15.1486,14.2799 -6.5376,3.4399 -14.2101,5.1662 -23.0177,5.1662 z"
     fill="#1F17BF"
     id="path624"
     style="fill:#ffffff;fill-opacity:1;stroke-width:1.177" />
  <path
     d="m 4323.9558,1128.3293 c -9.1023,0 -16.2838,-3.4398 -21.5334,-10.3197 -5.2387,-7.0066 -7.869,-16.4632 -7.869,-28.3948 v -48.3486 c 0,-1.1424 0.3492,-2.1198 1.0368,-2.9321 0.6985,-0.7997 1.5389,-1.1932 2.5321,-1.1932 h 13.0641 c 1.0914,0 1.9318,0.3935 2.5212,1.1932 0.6984,0.6981 1.0478,1.6628 1.0478,2.9321 v 47.3205 c 0,14.2164 5.3913,21.3373 16.1854,21.3373 5.1405,0 9.2005,-1.904 12.1692,-5.6865 3.0777,-3.7826 4.6057,-8.9996 4.6057,-15.6508 v -47.3205 c 0,-1.1424 0.3492,-2.1198 1.0368,-2.9321 0.6985,-0.7997 1.539,-1.1932 2.5321,-1.1932 h 13.0641 c 1.0914,0 1.9318,0.3935 2.5212,1.1932 0.6984,0.6981 1.0477,1.6628 1.0477,2.9321 v 81.2115 c 0,1.1424 -0.3493,2.1197 -1.0477,2.9321 -0.5894,0.7996 -1.4298,1.1932 -2.5212,1.1932 h -12.0272 c -0.9932,0 -1.8336,-0.3936 -2.5212,-1.1932 -0.6985,-0.8124 -1.0478,-1.7897 -1.0478,-2.9321 v -7.0575 c -5.5443,8.6061 -13.8063,12.9091 -24.7967,12.9091 z"
     fill="#1F17BF"
     id="path626"
     style="fill:#ffffff;fill-opacity:1;stroke-width:1.177" />
  <path
     d="m 4430.3023,1128.3293 c -10.2047,0 -18.1173,-4.0746 -23.7598,-12.2109 v 6.3593 c 0,1.1424 -0.3494,2.1197 -1.0478,2.9321 -0.5894,0.7996 -1.4297,1.1932 -2.5213,1.1932 h -11.7325 c -0.9931,0 -1.8336,-0.3936 -2.5211,-1.1932 -0.6986,-0.8124 -1.0368,-1.7897 -1.0368,-2.9321 v -113.9093 c 0,-1.2567 0.3382,-2.2341 1.0368,-2.9195 0.6875,-0.7997 1.528,-1.2058 2.5211,-1.2058 h 12.6275 c 1.0806,0 1.9319,0.4061 2.5213,1.2058 0.6875,0.6854 1.0367,1.6628 1.0367,2.9195 v 38.2067 c 5.6426,-7.5778 13.2716,-11.3605 22.8759,-11.3605 9.9973,0 17.6699,3.7827 23.0178,11.3605 5.3369,7.5652 8.2073,17.377 8.6111,29.423 0.098,1.3709 0.142,3.2113 0.142,5.4962 0,2.4117 -0.044,4.3029 -0.142,5.6865 -0.4038,12.3886 -3.2742,22.3021 -8.6111,29.7657 -5.3479,7.4509 -13.0205,11.1828 -23.0178,11.1828 z m -5.5007,-18.4053 c 10.6958,0 16.382,-7.6286 17.0805,-22.8859 0.098,-1.1551 0.1419,-2.8687 0.1419,-5.1661 0,-2.2975 -0.044,-4.0112 -0.1419,-5.1662 -0.6985,-15.2573 -6.3847,-22.8859 -17.0805,-22.8859 -5.5443,0 -9.8008,2.069 -12.7695,6.1943 -2.8702,4.0237 -4.4093,8.898 -4.6057,14.6353 l -0.1418,6.537 0.1418,6.7021 c 0.2948,6.1943 1.8336,11.4238 4.6057,15.6634 2.7723,4.2395 7.0288,6.372 12.7695,6.372 z"
     fill="#1F17BF"
     id="path628"
     style="fill:#ffffff;fill-opacity:1;stroke-width:1.177" />
  <path
     d="m 4511.863,1128.3293 c -10.9904,0 -19.7436,-3.6683 -26.281,-11.0177 -6.4394,-7.451 -9.8554,-17.8848 -10.2483,-31.3144 l -0.1419,-4.3029 0.1419,-4.2904 c 0.4911,-13.0867 3.9617,-23.3429 10.4011,-30.8065 6.5266,-7.451 15.2359,-11.1828 26.1282,-11.1828 11.689,0 20.693,4.1253 27.0341,12.3887 6.4284,8.2633 9.648,19.2683 9.648,33.0405 v 3.6049 c 0,1.1551 -0.3492,2.1324 -1.0369,2.9321 -0.6985,0.7997 -1.5825,1.2059 -2.6738,1.2059 h -49.2988 v 1.3709 c 0.1964,6.3085 1.6807,11.6396 4.453,16.0062 2.8702,4.2395 6.7776,6.3593 11.7324,6.3593 5.8391,0 10.5431,-2.6402 14.101,-7.9079 0.8949,-1.2693 1.5826,-2.069 2.0847,-2.4117 0.5894,-0.3427 1.4296,-0.5204 2.521,-0.5204 h 12.7695 c 0.895,0 1.6372,0.3426 2.2265,1.0408 0.6985,0.5712 1.0478,1.32 1.0478,2.234 0,2.7544 -1.4407,6.0166 -4.3112,9.8118 -2.772,3.6684 -6.7775,6.8798 -12.0272,9.6343 -5.2497,2.7544 -11.3397,4.1253 -18.2701,4.1253 z m 16.4911,-54.2002 v -0.5204 c 0,-6.7656 -1.4952,-12.211 -4.4639,-16.3363 -2.8703,-4.138 -6.8758,-6.1943 -12.0272,-6.1943 -5.1405,0 -9.1569,2.0563 -12.0273,6.1943 -2.8704,4.1253 -4.3001,9.5707 -4.3001,16.3363 v 0.5204 z"
     fill="#1F17BF"
     id="path630"
     style="fill:#ffffff;fill-opacity:1;stroke-width:1.177" />
  <defs
     id="defs677">
    <linearGradient
       id="paint0_linear"
       x1="339.398"
       y1="304.815"
       x2="1365.98"
       y2="304.815"
       gradientUnits="userSpaceOnUse"
       gradientTransform="matrix(0.73107614,0,0,0.74122193,283.25441,149.28274)">
      <stop
         stop-color="#04005E"
         id="stop632" />
      <stop
         offset="0.0388729"
         stop-color="#060266"
         id="stop634" />
      <stop
         offset="0.2107"
         stop-color="#0F0A86"
         id="stop636" />
      <stop
         offset="0.389"
         stop-color="#160F9F"
         id="stop638" />
      <stop
         offset="0.5745"
         stop-color="#1B14B1"
         id="stop640" />
      <stop
         offset="0.7715"
         stop-color="#1E16BC"
         id="stop642" />
      <stop
         offset="1"
         stop-color="#1F17BF"
         id="stop644" />
    </linearGradient>
    <linearGradient
       id="paint1_linear"
       x1="-0.485616"
       y1="928.816"
       x2="827.792"
       y2="928.816"
       gradientUnits="userSpaceOnUse"
       gradientTransform="matrix(0.73107614,0,0,0.74122193,283.25441,149.28274)">
      <stop
         stop-color="#04005E"
         id="stop647" />
      <stop
         offset="0.0388729"
         stop-color="#060266"
         id="stop649" />
      <stop
         offset="0.2107"
         stop-color="#0F0A86"
         id="stop651" />
      <stop
         offset="0.389"
         stop-color="#160F9F"
         id="stop653" />
      <stop
         offset="0.5745"
         stop-color="#1B14B1"
         id="stop655" />
      <stop
         offset="0.7715"
         stop-color="#1E16BC"
         id="stop657" />
      <stop
         offset="1"
         stop-color="#1F17BF"
         id="stop659" />
    </linearGradient>
    <linearGradient
       id="paint2_linear"
       x1="800.576"
       y1="1006.61"
       x2="1523.69"
       y2="1006.61"
       gradientUnits="userSpaceOnUse"
       gradientTransform="matrix(0.73107614,0,0,0.74122193,283.25441,149.28274)">
      <stop
         stop-color="#04005E"
         id="stop662" />
      <stop
         offset="0.0388729"
         stop-color="#060266"
         id="stop664" />
      <stop
         offset="0.2107"
         stop-color="#0F0A86"
         id="stop666" />
      <stop
         offset="0.389"
         stop-color="#160F9F"
         id="stop668" />
      <stop
         offset="0.5745"
         stop-color="#1B14B1"
         id="stop670" />
      <stop
         offset="0.7715"
         stop-color="#1E16BC"
         id="stop672" />
      <stop
         offset="1"
         stop-color="#1F17BF"
         id="stop674" />
    </linearGradient>
  </defs>
</svg>
