<?xml version="1.0" encoding="UTF-8" standalone="no"?>
<svg
   width="104"
   height="18"
   viewBox="0 0 104 18"
   fill="none"
   version="1.1"
   id="svg679"
   sodipodi:docname="minilogo.svg"
   inkscape:version="1.1 (c68e22c387, 2021-05-23)"
   xmlns:inkscape="http://www.inkscape.org/namespaces/inkscape"
   xmlns:sodipodi="http://sodipodi.sourceforge.net/DTD/sodipodi-0.dtd"
   xmlns="http://www.w3.org/2000/svg"
   xmlns:svg="http://www.w3.org/2000/svg">
  <sodipodi:namedview
     id="namedview681"
     pagecolor="#ffffff"
     bordercolor="#666666"
     borderopacity="1.0"
     inkscape:pageshadow="2"
     inkscape:pageopacity="0.0"
     inkscape:pagecheckerboard="0"
     showgrid="false"
     inkscape:zoom="4.1799878"
     inkscape:cx="92.823238"
     inkscape:cy="26.674719"
     inkscape:window-width="1920"
     inkscape:window-height="1017"
     inkscape:window-x="-8"
     inkscape:window-y="-8"
     inkscape:window-maximized="1"
     inkscape:current-layer="svg679"
     inkscape:snap-global="true"
     inkscape:lockguides="false"
     height="1000px"
     showguides="false" />
  <path
     d="M 17.275931,6.2041512 7.5030603,7.8564739 C 7.307131,7.8807859 7.1111505,7.8078842 7.0132051,7.6377998 L 4.6863332,3.7256169 C 4.5148518,3.4583169 4.6618354,3.1181301 4.9802595,3.0209427 L 14.410256,0.1779345 c 0.220377,-0.072898 0.46537,0.0243 0.563315,0.2429916 l 2.645297,5.1028261 c 0.171404,0.2673126 0,0.6317612 -0.342937,0.680399 z"
     fill="url(#paint0_linear)"
     id="path578"
     style="fill:#949496;fill-opacity:1;stroke-width:0.0127146" />
  <path
     d="m 4.1151238,5.8592609 6.5841542,7.3694471 c 0.122366,0.145902 0.171327,0.364816 0.07345,0.535057 L 8.6432482,17.84976 c -0.171316,0.291931 -0.538472,0.364819 -0.7832343,0.170239 L 0.44365966,11.550502 C 0.27232487,11.404599 0.22337207,11.137033 0.34575407,10.942457 L 3.3318777,5.9322376 C 3.4787322,5.6403716 3.8948354,5.6160334 4.1151238,5.8592609 Z"
     fill="url(#paint1_linear)"
     id="path580"
     style="fill:#949496;fill-opacity:1;stroke-width:0.0127146" />
  <path
     d="M 5.1187347,10.175303 7.8348895,4.9355961 C 7.9816814,4.6675358 7.7369955,4.3507107 7.4433622,4.4238261 L 3.7484653,5.3498869 C 3.6750441,5.3742799 3.6261097,5.3986259 3.6016358,5.4717422 L 0.34718644,10.97956 c -0.0978783,0.170581 0.0489393,0.389903 0.24469637,0.365527 L 4.4091392,10.711462 c 0.2936329,-0.07313 0.5628048,-0.243711 0.7095955,-0.536159 z"
     fill="#f27407"
     id="path582"
     style="fill:#bcbcbe;fill-opacity:1;stroke-width:0.0127146" />
  <path
     d="m 10.527795,17.154479 3.581993,-9.1928066 c 0.07371,-0.1945265 0.245373,-0.3161279 0.466262,-0.3161279 h 4.636986 c 0.31896,0 0.564335,0.2918282 0.466134,0.6079935 l -2.379773,9.533348 c -0.04909,0.218789 -0.269989,0.389026 -0.515235,0.364819 l -5.863844,-0.34048 c -0.294411,-0.02434 -0.515222,-0.340477 -0.392523,-0.656746 z"
     fill="url(#paint2_linear)"
     id="path584"
     style="fill:#949496;fill-opacity:1;stroke-width:0.0127146" />
  <path
     d="M 13.942718,14.300467 H 7.9167923 c -0.2694536,0 -0.4164482,0.315002 -0.2449537,0.508818 l 2.5720024,2.883165 c 0.04899,0.04855 0.098,0.07276 0.171496,0.07276 l 6.39331,0.363423 c 0.196021,0 0.342938,-0.218025 0.220507,-0.387634 l -2.3271,-3.077108 c -0.171533,-0.218026 -0.465499,-0.363424 -0.759336,-0.363424 z"
     fill="#f27407"
     id="path586"
     style="fill:#bcbcbe;fill-opacity:1;stroke-width:0.0127146" />
  <path
     d="m 13.066181,4.8067442 2.887612,4.8724698 c 0.195636,0.316685 0.685108,0.267971 0.807414,-0.09747 l 1.076764,-3.3376285 c 0.04897,-0.1218166 0.02448,-0.2436202 -0.02449,-0.3410616 l -2.7162,-5.2135528 C 14.926003,0.3484269 14.43653,0.3727887 14.28974,0.7138611 l -1.296953,3.1427484 c -0.122329,0.3167112 -0.09786,0.6577849 0.0734,0.9501327 z"
     fill="#f27407"
     id="path588"
     style="fill:#bcbcbe;fill-opacity:1;stroke-width:0.0127146" />
  <path
     d="m 27.609876,12.023772 c -0.196525,0 -0.373691,-0.02842 -0.531235,-0.08515 -0.137647,-0.06483 -0.206469,-0.137882 -0.206469,-0.218923 V 3.8120941 c 0,-0.089212 0.06882,-0.1622049 0.206469,-0.2189781 0.157544,-0.056774 0.33471,-0.08516 0.531235,-0.08516 h 13.782236 c 0.216419,0 0.393318,0.028384 0.531233,0.08516 0.13765,0.056774 0.206474,0.1297664 0.206474,0.2189781 v 1.1435508 c 0,0.081108 -0.06883,0.1541011 -0.206474,0.2189898 -0.137915,0.05676 -0.314814,0.085149 -0.531233,0.085149 H 31.97777 v 1.6423438 h 8.765088 c 0.216418,0 0.393317,0.032441 0.531231,0.097316 0.137648,0.056774 0.206472,0.1297664 0.206472,0.2189898 V 8.276824 c 0,0.08111 -0.06882,0.154101 -0.206472,0.218979 -0.137914,0.05677 -0.314813,0.08516 -0.531231,0.08516 H 31.97777 v 1.691001 h 9.650385 c 0.216419,0 0.393589,0.02838 0.531237,0.08515 0.137647,0.05677 0.20647,0.129766 0.20647,0.218988 v 1.143596 c 0,0.08104 -0.06882,0.15409 -0.20647,0.218923 -0.137648,0.05673 -0.314818,0.08515 -0.531237,0.08515 z"
     fill="#1F17BF"
     id="path590"
     style="fill:#949496;fill-opacity:1;stroke-width:0.0172759" />
  <path
     d="m 46.458459,12.023772 c -0.196797,0 -0.373959,-0.02842 -0.531236,-0.08515 -0.137646,-0.06483 -0.20674,-0.137882 -0.20674,-0.218923 V 3.8120941 c 0,-0.089212 0.0691,-0.1622049 0.20674,-0.2189781 0.157277,-0.056774 0.334439,-0.08516 0.531236,-0.08516 H 54.1315 c 2.892217,0 5.135183,0.2838667 6.728608,0.8515906 1.5937,0.5677225 2.429801,1.3909149 2.508576,2.4695887 0.01965,0.235198 0.02954,0.54744 0.02954,0.9367398 0,0.3892979 -0.01,0.6974889 -0.02954,0.9245709 -0.0984,1.127344 -0.914876,1.966755 -2.449431,2.518248 -1.514931,0.543423 -3.72831,0.815078 -6.640158,0.815078 z M 54.1315,10.271964 c 1.298516,0 2.25264,-0.125714 2.862645,-0.377129 0.610004,-0.259533 0.934499,-0.669104 0.974014,-1.228712 0.03929,-0.235198 0.05886,-0.539336 0.05886,-0.9124157 0,-0.3730689 -0.01965,-0.6731549 -0.05886,-0.9002491 C 57.928663,6.3100697 57.574576,5.9086147 56.905694,5.6490819 56.256436,5.3895502 55.282421,5.2597838 53.983911,5.2597838 h -2.951094 v 5.0121802 z"
     fill="#1F17BF"
     id="path592"
     style="fill:#949496;fill-opacity:1;stroke-width:0.0172759" />
  <path
     d="m 75.286229,12.145443 c -2.774194,0 -4.958008,-0.279759 -6.551708,-0.839388 C 67.140813,10.746414 66.295039,9.92322 66.19664,8.836433 66.176783,8.601234 66.167107,8.25249 66.167107,7.790209 c 0,-0.470407 0.0097,-0.8232037 0.02953,-1.0584017 0.09839,-1.0705577 0.95413,-1.893761 2.567453,-2.4695887 1.632948,-0.5839431 3.80708,-0.8759136 6.522136,-0.8759136 2.715035,0 4.889174,0.2919705 6.522121,0.8759136 1.632955,0.5758277 2.488954,1.399031 2.567454,2.4695887 0.0395,0.470396 0.05915,0.8232037 0.05915,1.0584017 0,0.227083 -0.01965,0.575828 -0.05915,1.046224 -0.09839,1.086787 -0.94418,1.909981 -2.537881,2.469622 -1.593693,0.559629 -3.777506,0.839388 -6.551694,0.839388 z m 0,-1.751826 c 1.082088,0 1.937819,-0.133819 2.567439,-0.401466 0.649266,-0.267638 0.993653,-0.677207 1.032899,-1.228712 0.0395,-0.470396 0.05915,-0.8029207 0.05915,-0.997564 0,-0.210864 -0.01965,-0.5433892 -0.05915,-0.9975653 -0.03922,-0.5515046 -0.383633,-0.9610744 -1.032899,-1.2287224 -0.64925,-0.2676365 -1.504974,-0.4014544 -2.567439,-0.4014544 -1.062472,0 -1.918202,0.1338179 -2.56746,0.4014544 -0.629622,0.267648 -0.974016,0.6772178 -1.032885,1.2287224 -0.01986,0.2270826 -0.02953,0.5596077 -0.02953,0.9975653 0,0.429841 0.0097,0.762366 0.02953,0.997564 0.05886,0.551505 0.403263,0.961074 1.032885,1.228712 0.629628,0.267647 1.485358,0.401466 2.56746,0.401466 z"
     fill="#1F17BF"
     id="path594"
     style="fill:#949496;fill-opacity:1;stroke-width:0.0172759" />
  <path
     d="m 97.624117,12.023772 c -0.196792,0 -0.364017,-0.02431 -0.501663,-0.07294 -0.118023,-0.05684 -0.1769,-0.125781 -0.1769,-0.206823 V 9.992149 H 87.38362 c -0.196799,0 -0.364017,-0.02433 -0.501663,-0.07299 -0.118023,-0.05676 -0.177168,-0.125702 -0.177168,-0.20681 V 9.225733 c 0,-0.121651 0.10808,-0.243313 0.324763,-0.364964 L 95.88309,3.7147799 c 0.09839,-0.064889 0.245718,-0.1135464 0.44251,-0.1459966 0.196799,-0.040543 0.413221,-0.060825 0.649258,-0.060825 h 2.124937 c 0.196799,0 0.354062,0.028384 0.472086,0.08516 0.137921,0.048672 0.206743,0.1135464 0.206743,0.194644 V 8.93376 h 2.655896 c 0.1968,0 0.36401,0.02838 0.50194,0.08516 0.13764,0.04866 0.20646,0.113548 0.20646,0.194645 v 0.498782 c 0,0.08111 -0.0688,0.150048 -0.20646,0.20681 -0.1183,0.04867 -0.27557,0.07299 -0.47237,0.07299 h -2.685466 v 1.75186 c 0,0.08104 -0.06883,0.149982 -0.206743,0.206823 -0.118024,0.04862 -0.275287,0.07294 -0.472086,0.07294 z M 96.974858,8.958095 V 4.7853356 L 89.862624,8.958095 Z"
     fill="#1F17BF"
     id="path596"
     style="fill:#949496;fill-opacity:1;stroke-width:0.0172759" />
  <path
     d="m 97.635946,12.013114 c -0.196792,0 -0.364017,-0.02431 -0.501656,-0.07294 -0.11803,-0.05684 -0.176899,-0.125782 -0.176899,-0.206823 V 9.981515 h -9.561942 c -0.196798,0 -0.36401,-0.02433 -0.501663,-0.07299 C 86.775763,9.851755 86.716618,9.78281 86.716618,9.701713 V 9.215098 c 0,-0.121663 0.108073,-0.243314 0.324495,-0.364965 l 8.853806,-5.1459995 c 0.09839,-0.064876 0.245718,-0.1135471 0.442517,-0.1459856 0.196791,-0.040557 0.413206,-0.060825 0.649251,-0.060825 h 2.124933 c 0.196799,0 0.354072,0.028384 0.472096,0.08516 0.137921,0.048658 0.206733,0.1135464 0.206733,0.1946441 v 5.145999 h 2.655901 c 0.1968,0 0.36402,0.02839 0.50193,0.08515 0.13764,0.04867 0.20648,0.113546 0.20648,0.194654 v 0.498783 c 0,0.0811 -0.0688,0.150037 -0.20648,0.206811 -0.11829,0.04866 -0.27555,0.07299 -0.47235,0.07299 h -2.685481 v 1.751839 c 0,0.08104 -0.06883,0.149983 -0.206733,0.206822 -0.118024,0.04862 -0.275297,0.07294 -0.472096,0.07294 z M 96.986687,8.947447 V 4.7747009 L 89.874446,8.947447 Z"
     fill="#F27407"
     id="path598"
     style="fill:#bcbcbe;fill-opacity:1;stroke-width:0.0172759" />
  <path
     d="m 63.469076,16.04133 c -0.02671,0 -0.04932,-0.0071 -0.06805,-0.02111 -0.01844,-0.01201 -0.02791,-0.02911 -0.02791,-0.05111 v -1.994254 c 0,-0.02222 0.0093,-0.03911 0.02791,-0.05133 0.0188,-0.014 0.04134,-0.02089 0.06805,-0.02089 h 0.315125 c 0.02933,0 0.05194,0.0069 0.06805,0.02089 0.01844,0.01223 0.02791,0.02911 0.02791,0.05133 v 0.120445 c 0.149059,-0.148666 0.362082,-0.222892 0.638766,-0.222892 0.268776,0 0.475044,0.06422 0.618816,0.192891 0.14378,0.126448 0.220945,0.29823 0.231508,0.515121 0.0029,0.024 0.0036,0.05911 0.0036,0.105337 0,0.04823 -0.0014,0.08444 -0.0036,0.108444 -0.0106,0.210893 -0.08773,0.381563 -0.231508,0.512011 -0.143772,0.128668 -0.35004,0.192891 -0.618816,0.192891 -0.268763,0 -0.473865,-0.07134 -0.614704,-0.21378 v 0.683786 c 0,0.022 -0.0093,0.03911 -0.02813,0.05111 -0.01583,0.014 -0.03844,0.02111 -0.06776,0.02111 z m 0.902257,-0.86446 c 0.287247,0 0.440418,-0.133558 0.458903,-0.400674 0.0029,-0.02022 0.0036,-0.05023 0.0036,-0.09044 0,-0.04023 -0.0014,-0.07023 -0.0036,-0.09045 -0.01844,-0.267116 -0.171656,-0.400672 -0.458903,-0.400672 -0.154634,0 -0.269067,0.03733 -0.343597,0.111556 -0.07452,0.07422 -0.115605,0.16578 -0.123526,0.274226 l -0.0036,0.114445 0.0036,0.117336 c 0.005,0.100448 0.04636,0.186891 0.123526,0.259118 0.08011,0.07022 0.194538,0.105555 0.343597,0.105555 z"
     fill="#1F17BF"
     id="path600"
     style="fill:#bcbcbe;fill-opacity:1;stroke-width:0.025535" />
  <path
     d="m 66.73979,15.499099 c -0.311606,0 -0.552506,-0.06022 -0.722686,-0.180672 -0.170476,-0.122666 -0.262317,-0.289335 -0.275517,-0.500229 l -0.0036,-0.132445 0.0036,-0.132447 c 0.01321,-0.208893 0.106511,-0.374675 0.279333,-0.497119 0.173112,-0.122448 0.412542,-0.183784 0.71887,-0.183784 0.30603,0 0.54546,0.06133 0.718572,0.183784 0.172829,0.122444 0.266127,0.288226 0.279333,0.497119 0.0029,0.024 0.0036,0.06822 0.0036,0.132447 0,0.06422 -0.0014,0.108444 -0.0036,0.132445 -0.01321,0.210894 -0.105041,0.377563 -0.27551,0.500229 -0.170179,0.12045 -0.411087,0.180672 -0.722395,0.180672 z m 0,-0.298228 c 0.140846,0 0.249994,-0.03312 0.327159,-0.09933 0.07717,-0.06845 0.119718,-0.16778 0.12793,-0.298227 0.0029,-0.02023 0.0036,-0.05933 0.0036,-0.117557 0,-0.05822 -0.0014,-0.09734 -0.0036,-0.11756 -0.0082,-0.130447 -0.05074,-0.228894 -0.12793,-0.295117 -0.07716,-0.06822 -0.186313,-0.102446 -0.327159,-0.102446 -0.141137,0 -0.250284,0.03422 -0.327449,0.102446 -0.07718,0.06622 -0.119719,0.16467 -0.127937,0.295117 l -0.0036,0.11756 0.0036,0.117557 c 0.0082,0.130447 0.05074,0.229781 0.127937,0.298227 0.07716,0.06622 0.186312,0.09933 0.327449,0.09933 z"
     fill="#1F17BF"
     id="path602"
     style="fill:#bcbcbe;fill-opacity:1;stroke-width:0.025535" />
  <path
     d="m 68.692469,15.468877 c -0.03462,0 -0.06246,-0.006 -0.08391,-0.018 -0.01844,-0.014 -0.03462,-0.03311 -0.04784,-0.05711 l -0.570991,-1.3978 c -0.0029,-0.006 -0.0036,-0.0151 -0.0036,-0.02711 0,-0.01822 0.0079,-0.03311 0.02374,-0.04534 0.0188,-0.014 0.03872,-0.02089 0.06014,-0.02089 h 0.295184 c 0.02933,0 0.05342,0.006 0.07188,0.018 0.0188,0.01199 0.03081,0.02511 0.03611,0.03911 l 0.391124,0.997126 0.415184,-0.988017 c 0.008,-0.01822 0.02141,-0.03311 0.03985,-0.04534 0.02141,-0.014 0.04812,-0.02089 0.07981,-0.02089 h 0.199816 c 0.03201,0 0.05724,0.0069 0.0757,0.02089 0.02141,0.01223 0.03611,0.02711 0.04402,0.04534 l 0.415178,0.988017 0.391124,-0.997126 c 0.0029,-0.014 0.0135,-0.02712 0.03201,-0.03911 0.02141,-0.012 0.04515,-0.018 0.07188,-0.018 h 0.295467 c 0.02403,0 0.04402,0.0069 0.05985,0.02089 0.0188,0.01223 0.02791,0.02711 0.02791,0.04534 l -0.0079,0.02711 -0.570991,1.3978 c -0.0106,0.024 -0.02643,0.04312 -0.04783,0.05711 -0.01844,0.01201 -0.04515,0.018 -0.07981,0.018 H 70.04619 c -0.06925,0 -0.113261,-0.02511 -0.131746,-0.07512 l -0.415185,-0.952014 -0.415475,0.952014 c -0.02112,0.05 -0.06629,0.07512 -0.135561,0.07512 z"
     fill="#1F17BF"
     id="path604"
     style="fill:#bcbcbe;fill-opacity:1;stroke-width:0.025535" />
  <path
     d="m 72.236361,15.499099 c -0.295466,0 -0.531081,-0.06422 -0.706545,-0.192891 -0.173119,-0.130449 -0.264954,-0.313117 -0.275518,-0.548234 l -0.0036,-0.07533 0.0036,-0.07512 C 71.26751,14.37841 71.36081,14.19885 71.533632,14.068183 71.70938,13.937736 71.94353,13.8724 72.236361,13.8724 c 0.313952,0 0.556322,0.07222 0.726501,0.216895 0.173112,0.14467 0.259668,0.337337 0.259668,0.578453 v 0.06311 c 0,0.02022 -0.0093,0.03733 -0.02813,0.05133 -0.01844,0.014 -0.04254,0.02111 -0.07189,0.02111 h -1.325363 v 0.024 c 0.005,0.110446 0.04515,0.20378 0.119712,0.280229 0.07717,0.07422 0.18251,0.111333 0.315422,0.111333 0.15698,0 0.283446,-0.04622 0.379393,-0.138446 0.02403,-0.02222 0.04254,-0.03622 0.05576,-0.04222 0.01618,-0.006 0.03872,-0.0091 0.06805,-0.0091 h 0.343291 c 0.02374,0 0.04375,0.006 0.05985,0.01822 0.01844,0.01001 0.02791,0.02311 0.02791,0.03911 0,0.04822 -0.03844,0.105333 -0.115598,0.171777 -0.07454,0.06422 -0.182511,0.120448 -0.32364,0.168673 -0.140841,0.04823 -0.304568,0.07222 -0.490887,0.07222 z m 0.443062,-0.948905 v -0.0091 c 0,-0.118449 -0.03992,-0.213783 -0.119719,-0.286007 -0.07716,-0.07245 -0.184849,-0.108446 -0.323343,-0.108446 -0.138493,0 -0.246178,0.036 -0.32335,0.108446 -0.07716,0.07222 -0.115895,0.167558 -0.115895,0.286007 v 0.0091 z"
     fill="#1F17BF"
     id="path606"
     style="fill:#bcbcbe;fill-opacity:1;stroke-width:0.025535" />
  <path
     d="m 73.741881,15.468877 c -0.02643,0 -0.04898,-0.0069 -0.06777,-0.02089 -0.01844,-0.01423 -0.02791,-0.03133 -0.02791,-0.05133 v -1.418915 c 0,-0.02 0.0093,-0.03711 0.02791,-0.05111 0.0188,-0.016 0.04134,-0.024 0.06777,-0.024 h 0.323646 c 0.02905,0 0.05313,0.0069 0.07158,0.02089 0.0188,0.01423 0.0282,0.03222 0.0282,0.05422 V 14.1013 c 0.06367,-0.06422 0.143772,-0.113335 0.239422,-0.147558 0.09859,-0.03422 0.210388,-0.05111 0.335385,-0.05111 h 0.16372 c 0.0294,0 0.05194,0.0069 0.06776,0.02089 0.0188,0.01223 0.02791,0.02911 0.02791,0.05133 v 0.216901 c 0,0.02 -0.0091,0.03711 -0.02791,0.05111 -0.01583,0.01423 -0.03844,0.02111 -0.06776,0.02111 H 74.59252 c -0.125287,0 -0.22358,0.02711 -0.295473,0.08134 -0.07188,0.05422 -0.107967,0.128668 -0.107967,0.22289 v 0.828461 c 0,0.02 -0.0091,0.03711 -0.02791,0.05133 -0.01844,0.014 -0.04254,0.02089 -0.07188,0.02089 z"
     fill="#1F17BF"
     id="path608"
     style="fill:#bcbcbe;fill-opacity:1;stroke-width:0.025535" />
  <path
     d="m 76.177829,15.499099 c -0.295184,0 -0.530791,-0.06422 -0.706553,-0.192891 -0.173112,-0.130449 -0.264656,-0.313117 -0.275511,-0.548234 l -0.0036,-0.07533 0.0036,-0.07512 c 0.0135,-0.229114 0.106505,-0.408674 0.279623,-0.539341 0.175459,-0.130447 0.4099,-0.195783 0.702441,-0.195783 0.314242,0 0.556314,0.07222 0.72679,0.216895 0.172816,0.14467 0.259386,0.337337 0.259386,0.578453 v 0.06311 c 0,0.02022 -0.0093,0.03733 -0.02791,0.05133 -0.0188,0.014 -0.04254,0.02111 -0.07189,0.02111 h -1.325368 v 0.024 c 0.005,0.110446 0.04515,0.20378 0.119718,0.280229 0.07717,0.07422 0.182213,0.111333 0.315422,0.111333 0.156979,0 0.283439,-0.04622 0.379096,-0.138446 0.02403,-0.02222 0.04282,-0.03622 0.05604,-0.04222 0.01583,-0.006 0.03844,-0.0091 0.06777,-0.0091 h 0.343298 c 0.02403,0 0.04402,0.006 0.05985,0.01822 0.0188,0.01001 0.02813,0.02311 0.02813,0.03911 0,0.04822 -0.03872,0.105333 -0.115889,0.171777 -0.07453,0.06422 -0.182212,0.120448 -0.323349,0.168673 -0.14113,0.04823 -0.304858,0.07222 -0.491178,0.07222 z m 0.443351,-0.948905 v -0.0091 c 0,-0.118449 -0.03992,-0.213783 -0.119718,-0.286007 -0.07746,-0.07245 -0.185146,-0.108446 -0.323633,-0.108446 -0.138205,0 -0.246185,0.036 -0.32335,0.108446 -0.07717,0.07222 -0.115607,0.167558 -0.115607,0.286007 v 0.0091 z"
     fill="#1F17BF"
     id="path610"
     style="fill:#bcbcbe;fill-opacity:1;stroke-width:0.025535" />
  <path
     d="m 78.358201,15.499099 c -0.268763,0 -0.475037,-0.06534 -0.618824,-0.195782 -0.143468,-0.130668 -0.22064,-0.304229 -0.231495,-0.521119 l -0.0036,-0.09956 0.0036,-0.09623 c 0.0082,-0.210893 0.08392,-0.382673 0.227686,-0.515119 0.146415,-0.13267 0.35387,-0.198895 0.622633,-0.198895 0.258205,0 0.463299,0.06622 0.615,0.198895 v -0.668901 c 0,-0.022 0.0094,-0.03911 0.02791,-0.05111 0.0188,-0.014 0.04134,-0.02111 0.06777,-0.02111 h 0.33949 c 0.02933,0 0.05194,0.0071 0.06776,0.02111 0.0188,0.01199 0.02791,0.02911 0.02791,0.05111 v 1.994257 c 0,0.02 -0.0091,0.03711 -0.02791,0.05133 -0.01583,0.014 -0.03844,0.02089 -0.06776,0.02089 H 79.09295 c -0.02671,0 -0.04932,-0.0069 -0.06777,-0.02089 -0.0188,-0.01423 -0.02813,-0.03133 -0.02813,-0.05133 v -0.111336 c -0.151702,0.142445 -0.364434,0.213781 -0.638773,0.213781 z m 0.147877,-0.322229 c 0.154345,0 0.26877,-0.03733 0.343306,-0.111558 0.07453,-0.07422 0.115896,-0.165778 0.123817,-0.274225 0.0029,-0.024 0.0036,-0.06311 0.0036,-0.117337 0,-0.05222 -0.0014,-0.09044 -0.0036,-0.114444 -0.005,-0.100446 -0.04784,-0.185782 -0.127929,-0.256227 -0.07716,-0.07222 -0.190128,-0.108445 -0.339194,-0.108445 -0.287537,0 -0.440411,0.133556 -0.459194,0.400672 l -0.0036,0.09045 0.0036,0.09044 c 0.0188,0.267116 0.171657,0.400674 0.459194,0.400674 z"
     fill="#1F17BF"
     id="path612"
     style="fill:#bcbcbe;fill-opacity:1;stroke-width:0.025535" />
  <path
     d="m 82.098383,15.499099 c -0.274345,0 -0.487079,-0.07134 -0.638772,-0.213781 v 0.111336 c 0,0.02 -0.0093,0.03711 -0.02791,0.05133 -0.01618,0.014 -0.03872,0.02089 -0.06805,0.02089 H 81.04823 c -0.02642,0 -0.04904,-0.0069 -0.06776,-0.02089 -0.01844,-0.01423 -0.02791,-0.03133 -0.02791,-0.05133 v -1.994257 c 0,-0.022 0.0093,-0.03911 0.02791,-0.05111 0.0188,-0.014 0.04134,-0.02111 0.06776,-0.02111 h 0.339483 c 0.02933,0 0.05194,0.0071 0.06777,0.02111 0.0188,0.01199 0.02791,0.02911 0.02791,0.05111 v 0.668901 c 0.151694,-0.13267 0.356795,-0.198895 0.615,-0.198895 0.26877,0 0.475044,0.06622 0.618818,0.198895 0.143772,0.132446 0.220943,0.304226 0.231508,0.515119 0.0029,0.024 0.0036,0.05622 0.0036,0.09623 0,0.04222 -0.0014,0.07533 -0.0036,0.09956 -0.0106,0.21689 -0.08774,0.390451 -0.231508,0.521119 -0.143774,0.130445 -0.350048,0.195782 -0.618818,0.195782 z M 81.950497,15.17687 c 0.287553,0 0.440717,-0.133558 0.459202,-0.400674 0.0029,-0.02022 0.0036,-0.05023 0.0036,-0.09044 0,-0.04023 -0.0014,-0.07023 -0.0036,-0.09045 -0.01844,-0.267116 -0.171649,-0.400672 -0.459202,-0.400672 -0.149051,0 -0.26349,0.03622 -0.343291,0.108445 -0.07717,0.07044 -0.118242,0.155781 -0.123824,0.256227 l -0.0036,0.114444 0.0036,0.117337 c 0.0082,0.108447 0.04932,0.200001 0.123824,0.274225 0.07452,0.07422 0.188962,0.111558 0.343291,0.111558 z"
     fill="#1F17BF"
     id="path614"
     style="fill:#bcbcbe;fill-opacity:1;stroke-width:0.025535" />
  <path
     d="m 83.686352,16.04133 c -0.02112,0 -0.03992,-0.006 -0.05576,-0.018 -0.01618,-0.01223 -0.02403,-0.02622 -0.02403,-0.04222 0,-0.018 0.005,-0.03422 0.01618,-0.04823 l 0.311316,-0.557343 -0.766694,-1.364466 c -0.0106,-0.01822 -0.01583,-0.03222 -0.01583,-0.04222 0.0029,-0.01822 0.01208,-0.03311 0.02791,-0.04534 0.01618,-0.01399 0.03611,-0.02089 0.05985,-0.02089 h 0.32364 c 0.05045,0 0.08626,0.01889 0.107684,0.05711 l 0.53108,0.985128 0.54693,-0.985128 c 0.02112,-0.03823 0.05723,-0.05711 0.107685,-0.05711 h 0.319244 c 0.02141,0 0.04021,0.006 0.05604,0.018 0.01844,0.01199 0.02791,0.026 0.02791,0.04222 0,0.014 -0.005,0.03 -0.01583,0.04822 l -1.129949,1.972921 c -0.02382,0.03823 -0.06106,0.05734 -0.111791,0.05734 z"
     fill="#1F17BF"
     id="path616"
     style="fill:#bcbcbe;fill-opacity:1;stroke-width:0.025535" />
  <path
     d="m 86.554501,15.468877 c -0.02671,0 -0.04932,-0.0069 -0.06805,-0.02089 -0.01844,-0.01423 -0.02791,-0.03133 -0.02791,-0.05133 v -1.961145 c 0,-0.022 0.008,-0.04 0.02403,-0.05422 0.01844,-0.014 0.04254,-0.02089 0.07188,-0.02089 H 87.5286 c 0.782241,0 1.181582,0.273115 1.197426,0.819346 0.0056,0.116446 0.0082,0.194668 0.0082,0.234891 0,0.03823 -0.0029,0.11556 -0.0082,0.232005 -0.0106,0.281116 -0.110328,0.488897 -0.299283,0.623568 -0.188962,0.132445 -0.481792,0.198669 -0.878195,0.198669 z m 0.974143,-0.346228 c 0.22329,0 0.384375,-0.03734 0.482965,-0.111558 0.09858,-0.07623 0.150224,-0.200892 0.155799,-0.373563 0.005,-0.120448 0.008,-0.19578 0.008,-0.226004 0,-0.032 -0.0029,-0.106445 -0.008,-0.222892 -0.0056,-0.164669 -0.06133,-0.286005 -0.167833,-0.36445 -0.103869,-0.07822 -0.267596,-0.117556 -0.491177,-0.117556 h -0.494999 v 1.416023 z"
     fill="#1F17BF"
     id="path618"
     style="fill:#bcbcbe;fill-opacity:1;stroke-width:0.025535" />
  <path
     d="m 90.111876,15.499099 c -0.295169,0 -0.530783,-0.06422 -0.706539,-0.192891 -0.172829,-0.130449 -0.264663,-0.313117 -0.275517,-0.548234 l -0.0036,-0.07533 0.0036,-0.07512 c 0.0135,-0.229114 0.106511,-0.408674 0.279624,-0.539341 0.175465,-0.130447 0.409906,-0.195783 0.702432,-0.195783 0.314256,0 0.556329,0.07222 0.726791,0.216895 0.17283,0.14467 0.259385,0.337337 0.259385,0.578453 v 0.06311 c 0,0.02022 -0.0093,0.03733 -0.02791,0.05133 -0.0188,0.014 -0.04254,0.02111 -0.07188,0.02111 H 89.6729 v 0.024 c 0.005,0.110446 0.04515,0.20378 0.119711,0.280229 0.07717,0.07422 0.182206,0.111333 0.315429,0.111333 0.156972,0 0.283432,-0.04622 0.37909,-0.138446 0.02403,-0.02222 0.04282,-0.03622 0.05604,-0.04222 0.01583,-0.006 0.03844,-0.0091 0.06776,-0.0091 h 0.343291 c 0.02403,0 0.04402,0.006 0.06014,0.01822 0.01844,0.01001 0.02791,0.02311 0.02791,0.03911 0,0.04822 -0.03872,0.105333 -0.115903,0.171777 -0.07453,0.06422 -0.182213,0.120448 -0.323343,0.168673 -0.141136,0.04823 -0.304857,0.07222 -0.491183,0.07222 z m 0.443358,-0.948905 v -0.0091 c 0,-0.118449 -0.03992,-0.213783 -0.11971,-0.286007 -0.07718,-0.07245 -0.185147,-0.108446 -0.323648,-0.108446 -0.13819,0 -0.246171,0.036 -0.323336,0.108446 -0.07717,0.07222 -0.115606,0.167558 -0.115606,0.286007 v 0.0091 z"
     fill="#1F17BF"
     id="path620"
     style="fill:#bcbcbe;fill-opacity:1;stroke-width:0.025535" />
  <path
     d="m 92.182522,15.468877 c -0.03992,0 -0.07071,-0.006 -0.09184,-0.018 -0.02141,-0.014 -0.03872,-0.03311 -0.05194,-0.05711 l -0.746746,-1.3978 -0.0079,-0.02711 c 0,-0.01822 0.0079,-0.03311 0.02403,-0.04534 0.01844,-0.014 0.03992,-0.02089 0.06395,-0.02089 h 0.32335 c 0.05045,0 0.08508,0.01889 0.103572,0.05711 l 0.531087,1.05735 0.531081,-1.05735 c 0.0079,-0.014 0.01993,-0.02712 0.03575,-0.03911 0.0188,-0.012 0.04134,-0.018 0.06776,-0.018 h 0.327456 c 0.02141,0 0.03985,0.0069 0.05604,0.02089 0.01844,0.01223 0.02791,0.02711 0.02791,0.04534 0,0.01199 -0.0014,0.02111 -0.0036,0.02711 l -0.750562,1.397801 c -0.01321,0.024 -0.03052,0.04312 -0.05194,0.05711 -0.0212,0.01201 -0.05166,0.018 -0.09185,0.018 z"
     fill="#1F17BF"
     id="path622"
     style="fill:#bcbcbe;fill-opacity:1;stroke-width:0.025535" />
  <path
     d="m 94.866111,15.499099 c -0.367352,0 -0.651972,-0.07134 -0.85443,-0.213781 -0.199519,-0.14267 -0.306031,-0.343562 -0.319238,-0.602676 -0.0029,-0.05422 -0.0036,-0.142448 -0.0036,-0.264896 0,-0.124668 0.0014,-0.214891 0.0036,-0.271115 0.01321,-0.257116 0.120884,-0.456898 0.32335,-0.599566 0.204797,-0.144668 0.488245,-0.216891 0.850318,-0.216891 0.236787,0 0.443055,0.03111 0.618816,0.09333 0.175748,0.06022 0.311317,0.143556 0.407256,0.250002 0.09566,0.104448 0.146423,0.222896 0.151702,0.355563 v 0.006 c 0,0.016 -0.0093,0.03022 -0.02791,0.04222 -0.01618,0.01 -0.03462,0.0151 -0.05604,0.0151 h -0.379101 c -0.03201,0 -0.05604,-0.0051 -0.07188,-0.0151 -0.01618,-0.01001 -0.02933,-0.02911 -0.03992,-0.05734 -0.04283,-0.126446 -0.113253,-0.214892 -0.211843,-0.265115 -0.0983,-0.05222 -0.230038,-0.07822 -0.395229,-0.07822 -0.383209,0 -0.582729,0.161558 -0.598861,0.484896 -0.0029,0.05422 -0.0036,0.137558 -0.0036,0.250004 0,0.112667 0.0014,0.198004 0.0036,0.256226 0.01618,0.323337 0.215652,0.484897 0.598861,0.484897 0.165191,0 0.296929,-0.026 0.395229,-0.07822 0.101227,-0.05222 0.17165,-0.140667 0.211843,-0.265116 0.008,-0.02822 0.01993,-0.04733 0.03575,-0.05733 0.0188,-0.01001 0.04402,-0.0151 0.07599,-0.0151 h 0.379096 c 0.02403,0 0.04402,0.0062 0.05985,0.01823 0.0188,0.01199 0.02671,0.02711 0.02403,0.04511 -0.005,0.132669 -0.05604,0.252003 -0.151701,0.358451 -0.09594,0.104446 -0.231509,0.187779 -0.407256,0.250003 -0.175763,0.06023 -0.38203,0.09045 -0.618824,0.09045 z"
     fill="#1F17BF"
     id="path624"
     style="fill:#bcbcbe;fill-opacity:1;stroke-width:0.025535" />
  <path
     d="m 97.239847,15.499099 c -0.244708,0 -0.437775,-0.06022 -0.578912,-0.180672 -0.14084,-0.122666 -0.211553,-0.288227 -0.211553,-0.497119 v -0.846457 c 0,-0.02 0.0093,-0.03711 0.02791,-0.05133 0.0188,-0.014 0.04134,-0.02089 0.06805,-0.02089 h 0.35122 c 0.02933,0 0.05194,0.0069 0.06776,0.02089 0.0188,0.01223 0.02813,0.02911 0.02813,0.05133 v 0.828459 c 0,0.248891 0.144939,0.37356 0.435127,0.37356 0.138204,0 0.247358,-0.03334 0.327165,-0.09956 0.08274,-0.06622 0.123825,-0.157561 0.123825,-0.274005 v -0.828459 c 0,-0.02 0.0093,-0.03711 0.02791,-0.05133 0.0188,-0.014 0.04134,-0.02089 0.06805,-0.02089 h 0.351219 c 0.02933,0 0.05194,0.0069 0.06777,0.02089 0.0188,0.01223 0.02813,0.02911 0.02813,0.05133 v 1.421803 c 0,0.02 -0.0093,0.03711 -0.02813,0.05133 -0.01583,0.014 -0.03844,0.02089 -0.06777,0.02089 h -0.323343 c -0.02671,0 -0.04932,-0.0069 -0.06776,-0.02089 -0.0188,-0.01423 -0.02813,-0.03133 -0.02813,-0.05133 v -0.12356 c -0.149058,0.150671 -0.371175,0.226005 -0.666649,0.226005 z"
     fill="#1F17BF"
     id="path626"
     style="fill:#bcbcbe;fill-opacity:1;stroke-width:0.025535" />
  <path
     d="m 100.0989,15.499099 c -0.274352,0 -0.487077,-0.07134 -0.638764,-0.213781 v 0.111336 c 0,0.02 -0.0089,0.03711 -0.02813,0.05133 -0.01585,0.014 -0.03843,0.02089 -0.06774,0.02089 h -0.315418 c -0.02671,0 -0.04932,-0.0069 -0.06776,-0.02089 -0.0188,-0.01423 -0.02791,-0.03133 -0.02791,-0.05133 v -1.994257 c 0,-0.022 0.0091,-0.03911 0.02791,-0.05111 0.01844,-0.014 0.04113,-0.02111 0.06776,-0.02111 h 0.339474 c 0.02902,0 0.052,0.0071 0.06774,0.02111 0.01842,0.01199 0.02793,0.02911 0.02793,0.05111 v 0.668901 c 0.151697,-0.13267 0.356796,-0.198895 0.614998,-0.198895 0.26877,0 0.47505,0.06622 0.61882,0.198895 0.14348,0.132446 0.22065,0.304226 0.23151,0.515119 0.003,0.024 0.004,0.05622 0.004,0.09623 0,0.04222 -9.9e-4,0.07533 -0.004,0.09956 -0.0108,0.21689 -0.088,0.390451 -0.23151,0.521119 -0.14377,0.130445 -0.35005,0.195782 -0.61882,0.195782 z M 99.95102,15.17687 c 0.28754,0 0.4404,-0.133558 0.45919,-0.400674 0.003,-0.02022 0.004,-0.05023 0.004,-0.09044 0,-0.04023 -9.9e-4,-0.07023 -0.004,-0.09045 -0.0188,-0.267116 -0.17165,-0.400672 -0.45919,-0.400672 -0.149053,0 -0.263492,0.03622 -0.343307,0.108445 -0.07715,0.07044 -0.118529,0.155781 -0.123808,0.256227 l -0.004,0.114444 0.004,0.117337 c 0.0079,0.108447 0.04932,0.200001 0.123808,0.274225 0.07458,0.07422 0.188976,0.111558 0.343307,0.111558 z"
     fill="#1F17BF"
     id="path628"
     style="fill:#bcbcbe;fill-opacity:1;stroke-width:0.025535" />
  <path
     d="m 102.29161,15.499099 c -0.29548,0 -0.5308,-0.06422 -0.70655,-0.192891 -0.17312,-0.130449 -0.26496,-0.313117 -0.27553,-0.548234 l -0.004,-0.07533 0.004,-0.07512 c 0.0133,-0.229114 0.10652,-0.408674 0.27964,-0.539341 0.17545,-0.130447 0.4096,-0.195783 0.70244,-0.195783 0.31425,0 0.55631,0.07222 0.72679,0.216895 0.17282,0.14467 0.25937,0.337337 0.25937,0.578453 v 0.06311 c 0,0.02022 -0.009,0.03733 -0.0279,0.05133 -0.0188,0.014 -0.0426,0.02111 -0.0719,0.02111 h -1.32536 v 0.024 c 0.005,0.110446 0.0452,0.20378 0.11972,0.280229 0.0771,0.07422 0.18221,0.111333 0.3154,0.111333 0.15699,0 0.28345,-0.04622 0.3791,-0.138446 0.0241,-0.02222 0.0426,-0.03622 0.0561,-0.04222 0.0159,-0.006 0.0384,-0.0091 0.0677,-0.0091 h 0.34331 c 0.0241,0 0.0441,0.006 0.0598,0.01822 0.0188,0.01001 0.0282,0.02311 0.0282,0.03911 0,0.04822 -0.0387,0.105333 -0.1159,0.171777 -0.0746,0.06422 -0.18221,0.120448 -0.32335,0.168673 -0.14113,0.04823 -0.30486,0.07222 -0.49117,0.07222 z m 0.44334,-0.948905 v -0.0091 c 0,-0.118449 -0.0402,-0.213783 -0.12,-0.286007 -0.0771,-0.07245 -0.18486,-0.108446 -0.32334,-0.108446 -0.13821,0 -0.24618,0.036 -0.32335,0.108446 -0.0772,0.07222 -0.11561,0.167558 -0.11561,0.286007 v 0.0091 z"
     fill="#1F17BF"
     id="path630"
     style="fill:#bcbcbe;fill-opacity:1;stroke-width:0.025535" />
  <defs
     id="defs677">
    <linearGradient
       id="paint0_linear"
       x1="339.39801"
       y1="304.815"
       x2="1365.98"
       y2="304.815"
       gradientUnits="userSpaceOnUse"
       gradientTransform="matrix(0.01804792,0,0,0.01843113,0.27777149,2.1540017)">
      <stop
         stop-color="#04005E"
         id="stop632" />
      <stop
         offset="0.0388729"
         stop-color="#060266"
         id="stop634" />
      <stop
         offset="0.2107"
         stop-color="#0F0A86"
         id="stop636" />
      <stop
         offset="0.389"
         stop-color="#160F9F"
         id="stop638" />
      <stop
         offset="0.5745"
         stop-color="#1B14B1"
         id="stop640" />
      <stop
         offset="0.7715"
         stop-color="#1E16BC"
         id="stop642" />
      <stop
         offset="1"
         stop-color="#1F17BF"
         id="stop644" />
    </linearGradient>
    <linearGradient
       id="paint1_linear"
       x1="-0.485616"
       y1="928.81598"
       x2="827.79199"
       y2="928.81598"
       gradientUnits="userSpaceOnUse"
       gradientTransform="matrix(0.01804792,0,0,0.01843113,0.27777149,2.1540017)">
      <stop
         stop-color="#04005E"
         id="stop647" />
      <stop
         offset="0.0388729"
         stop-color="#060266"
         id="stop649" />
      <stop
         offset="0.2107"
         stop-color="#0F0A86"
         id="stop651" />
      <stop
         offset="0.389"
         stop-color="#160F9F"
         id="stop653" />
      <stop
         offset="0.5745"
         stop-color="#1B14B1"
         id="stop655" />
      <stop
         offset="0.7715"
         stop-color="#1E16BC"
         id="stop657" />
      <stop
         offset="1"
         stop-color="#1F17BF"
         id="stop659" />
    </linearGradient>
    <linearGradient
       id="paint2_linear"
       x1="800.57599"
       y1="1006.61"
       x2="1523.6899"
       y2="1006.61"
       gradientUnits="userSpaceOnUse"
       gradientTransform="matrix(0.01804792,0,0,0.01843113,0.27777149,2.1540017)">
      <stop
         stop-color="#04005E"
         id="stop662" />
      <stop
         offset="0.0388729"
         stop-color="#060266"
         id="stop664" />
      <stop
         offset="0.2107"
         stop-color="#0F0A86"
         id="stop666" />
      <stop
         offset="0.389"
         stop-color="#160F9F"
         id="stop668" />
      <stop
         offset="0.5745"
         stop-color="#1B14B1"
         id="stop670" />
      <stop
         offset="0.7715"
         stop-color="#1E16BC"
         id="stop672" />
      <stop
         offset="1"
         stop-color="#1F17BF"
         id="stop674" />
    </linearGradient>
  </defs>
</svg>
