<?xml version="1.0" encoding="UTF-8" standalone="no"?>
<svg
   width="60"
   height="40"
   viewBox="-18.458 -22.75 60 40"
   version="1.1"
   id="svg12"
   sodipodi:docname="mysql-logo.svg"
   inkscape:version="1.1 (c68e22c387, 2021-05-23)"
   xmlns:inkscape="http://www.inkscape.org/namespaces/inkscape"
   xmlns:sodipodi="http://sodipodi.sourceforge.net/DTD/sodipodi-0.dtd"
   xmlns="http://www.w3.org/2000/svg"
   xmlns:svg="http://www.w3.org/2000/svg">
  <defs
     id="defs16" />
  <sodipodi:namedview
     id="namedview14"
     pagecolor="#ffffff"
     bordercolor="#666666"
     borderopacity="1.0"
     inkscape:pageshadow="2"
     inkscape:pageopacity="0.0"
     inkscape:pagecheckerboard="0"
     showgrid="false"
     inkscape:zoom="6.1554775"
     inkscape:cx="51.336391"
     inkscape:cy="47.843567"
     inkscape:window-width="1920"
     inkscape:window-height="1017"
     inkscape:window-x="-8"
     inkscape:window-y="-8"
     inkscape:window-maximized="1"
     inkscape:current-layer="svg12" />
  <g
     id="g837"
     transform="matrix(0.64947879,0,0,0.64947879,-24.067263,-16.608341)">
    <path
       d="M 32.572255,44.908549 H 29.263823 C 29.146829,39.324172 28.824616,34.074154 28.297825,29.154659 h -0.02941 l -5.037126,15.75389 h -2.518883 l -5.00708,-15.75389 h -0.02877 c -0.37144,4.723226 -0.605427,9.974523 -0.702602,15.75389 h -3.015628 c 0.19435,-7.02794 0.682784,-13.616675 1.463382,-19.766842 h 4.100537 l 4.772453,14.524496 h 0.02941 l 4.801861,-14.524496 h 3.923449 c 0.859233,7.203751 1.366846,13.793125 1.522838,19.766842 M 46.920301,30.324598 c -1.347028,7.309876 -3.124311,12.621268 -5.329932,15.936732 -1.718467,2.552128 -3.601236,3.82947 -5.651505,3.82947 -0.546611,0 -1.221083,-0.164942 -2.020221,-0.492269 v -1.762579 c 0.390618,0.05626 0.849004,0.08823 1.375796,0.08823 0.957687,0 1.727417,-0.263396 2.314304,-0.791467 0.701963,-0.643146 1.052944,-1.366206 1.052944,-2.165984 0,-0.548528 -0.273625,-1.669879 -0.819596,-3.367888 l -3.630644,-11.27488 h 3.250254 l 2.60583,8.432506 c 0.585609,1.914735 0.829825,3.251533 0.732011,4.012952 1.425023,-3.805815 2.420429,-7.95558 2.987498,-12.446097 h 3.133261 z"
       fill="#5d87a1"
       id="path4"
       style="stroke-width:0.639311" />
    <path
       d="M 90.959205,44.908549 H 81.561341 V 25.141707 h 3.16139 v 17.333626 h 6.236474 z m -11.857931,0.477565 -3.633841,-1.793266 c 0.322212,-0.264675 0.63036,-0.551086 0.907821,-0.882888 1.544574,-1.814363 2.314943,-4.497549 2.314943,-8.051476 0,-6.539508 -2.566192,-9.81086 -7.700495,-9.81086 -2.517605,0 -4.481567,0.829825 -5.886132,2.490115 -1.543295,1.815642 -2.313665,4.489238 -2.313665,8.023986 0,3.474653 0.682784,6.023584 2.048991,7.6404 1.249852,1.46466 3.1339,2.19795 5.653422,2.19795 0.939787,0 1.802217,-0.115076 2.587929,-0.347146 l 4.730898,2.75415 z M 67.329649,40.953135 c -0.800416,-1.287572 -1.200625,-3.355102 -1.200625,-6.205787 0,-4.977033 1.51197,-7.468426 4.539105,-7.468426 1.582293,0 2.742003,0.595838 3.483603,1.784955 0.799138,1.28949 1.201264,3.33848 1.201264,6.149528 0,5.017948 -1.513248,7.527242 -4.538465,7.527242 -1.582933,6.39e-4 -2.742642,-0.59328 -3.484882,-1.787512 m -5.917458,-1.523477 c 0,1.676272 -0.615016,3.051429 -1.843771,4.128667 -1.230034,1.072763 -2.879455,1.610423 -4.946346,1.610423 -1.933275,0 -3.807733,-0.617574 -5.622096,-1.846328 l 0.849643,-1.69737 c 1.561197,0.781877 2.974712,1.170578 4.243743,1.170578 1.191036,0 2.121872,-0.264036 2.796984,-0.787631 0.674473,-0.525513 1.076599,-1.262638 1.076599,-2.194753 0,-1.174413 -0.818957,-2.178131 -2.321337,-3.018824 -1.385385,-0.76078 -4.156157,-2.351384 -4.156157,-2.351384 -1.501741,-1.0945 -2.25357,-2.269552 -2.25357,-4.205385 0,-1.602112 0.560676,-2.895437 1.682665,-3.879336 1.123269,-0.987735 2.572586,-1.480004 4.34923,-1.480004 1.834821,0 3.502782,0.49163 5.005162,1.464661 l -0.762058,1.698008 c -1.285014,-0.545971 -2.553406,-0.818956 -3.804537,-0.818956 -1.013307,0 -1.795823,0.243577 -2.339877,0.732649 -0.548528,0.487155 -0.886723,1.110483 -0.886723,1.875098 0,1.16866 0.836218,2.185164 2.379513,3.042479 1.403926,0.762058 4.243744,2.380153 4.243744,2.380153 1.540099,1.092582 2.309189,2.256766 2.309189,4.177255"
       fill="#f8981d"
       id="path6"
       style="stroke-width:0.639311" />
    <path
       d="m 94.928045,18.521008 c -1.911539,-0.04859 -3.391542,0.143844 -4.633723,0.669358 -0.358653,0.143205 -0.928918,0.143205 -0.978784,0.596476 0.193711,0.191794 0.216087,0.50122 0.384225,0.765894 0.286412,0.477565 0.785713,1.120072 1.241541,1.455071 0.500581,0.383586 1.003079,0.763337 1.529871,1.097696 0.928918,0.57474 1.981862,0.9091 2.887126,1.481922 0.527431,0.333081 1.051666,0.763976 1.579736,1.122629 0.25956,0.191154 0.425781,0.50122 0.762698,0.620771 v -0.07288 C 97.531957,26.043135 97.484008,25.73243 97.318427,25.493328 L 96.60112,24.801594 c -0.693012,-0.930836 -1.554163,-1.7434 -2.483082,-2.41084 -0.764615,-0.526792 -2.437051,-1.24282 -2.747117,-2.123789 l -0.04859,-0.04859 c 0.525513,-0.04923 1.148841,-0.239741 1.648142,-0.386144 0.812564,-0.214169 1.553525,-0.165581 2.387185,-0.37975 0.383587,-0.0959 0.763977,-0.216087 1.148841,-0.334359 v -0.215446 c -0.432173,-0.430256 -0.740321,-1.0018 -1.194871,-1.408401 -1.215968,-1.050387 -2.555963,-2.077759 -3.94071,-2.937632 -0.7416,-0.478843 -1.695451,-0.786991 -2.485,-1.194232 -0.28449,-0.143845 -0.763973,-0.214808 -0.931472,-0.45391 -0.428338,-0.525514 -0.669358,-1.217248 -0.980063,-1.839297 -0.690456,-1.3125039 -1.361092,-2.7688539 -1.95693,-4.1567969 -0.430895,-0.930836 -0.693012,-1.860393 -1.218526,-2.721545 -2.461345,-4.05962099 -5.134302,-6.51841 -9.242512,-8.931807 -0.882887,-0.502498 -1.933275,-0.716667 -3.055265,-0.980063 l -1.791987,-0.09462 c -0.382308,-0.167499 -0.765255,-0.622049 -1.098975,-0.836857 -1.36301,-0.859233 -4.872185,-2.721545 -5.874624,-0.262757 -0.645704,1.554164 0.95513,3.082116 1.504937,3.870386 0.405962,0.54725 0.932115,1.169938 1.215969,1.791348 0.168138,0.40596201 0.215447,0.83685801 0.383586,1.26583501 0.382308,1.05102599 0.739682,2.22032499 1.24218,3.20102799 0.262117,0.49994 0.547889,1.025454 0.882888,1.478086 0.191793,0.264674 0.525513,0.381668 0.598395,0.813203 -0.333081,0.475647 -0.359293,1.193592 -0.550447,1.790708 -0.859233,2.69853 -0.523595,6.0414849 0.694291,8.0246259 0.38103,0.597116 1.290129,1.911538 2.506098,1.407762 1.076599,-0.429617 0.838136,-1.790709 1.147562,-2.984302 0.07096,-0.288329 0.02429,-0.477565 0.167499,-0.666801 v 0.04667 c 0.333081,0.668079 0.669359,1.311865 0.978145,1.981863 0.740961,1.169298 2.03109,2.387824 3.105771,3.197831 0.572183,0.432174 1.025454,1.171217 1.742121,1.435252 v -0.0716 h -0.04731 c -0.145123,-0.214169 -0.357374,-0.310066 -0.547889,-0.476286 -0.430895,-0.430256 -0.907821,-0.95577 -1.24218,-1.432695 -1.001161,-1.338077 -1.887245,-2.81936 -2.673597,-4.347951 -0.384865,-0.7416 -0.716667,-1.552246 -1.026733,-2.292567 -0.144484,-0.285772 -0.144484,-0.716668 -0.384225,-0.860512 -0.359293,0.524874 -0.882888,0.979423 -1.145005,1.62257 -0.45455,1.02865 -0.501859,2.293846 -0.670637,3.609547 l -0.09398,0.04603 c -0.760779,-0.191154 -1.025454,-0.978145 -1.314422,-1.646224 -0.715389,-1.69673 -0.835579,-4.4201929 -0.214808,-6.3777619 0.16622,-0.50058 0.885445,-2.07712 0.598394,-2.554046 -0.143845,-0.457107 -0.622049,-0.717306 -0.884166,-1.077238 -0.308148,-0.452632 -0.645704,-1.025454 -0.860512,-1.527952 -0.572822,-1.336798 -0.861151,-2.81808099 -1.478086,-4.15424 -0.288329,-0.622688 -0.788909,-1.267113 -1.194232,-1.840575 -0.455189,-0.644425 -0.955769,-1.098335 -1.315701,-1.862311 -0.118912,-0.262757 -0.285772,-0.692373 -0.09462,-0.978145 0.04667,-0.191793 0.143845,-0.263396 0.334359,-0.311344 0.309427,-0.261478 1.193593,0.07096 1.503659,0.214808 0.885445,0.358014 1.625766,0.692373 2.364809,1.193593 0.33436,0.239741 0.693013,0.693652 1.12199,0.813203 h 0.502498 c 0.762698,0.16622 1.62257,0.04603 2.340516,0.262117 1.265196,0.406601 2.411479,1.003078 3.439491,1.646864 3.128146,1.98378001 5.707764,4.8025 7.449246,8.16911 0.285771,0.548528 0.40724,1.051026 0.668079,1.623209 0.503138,1.171217 1.125187,2.365449 1.624488,3.5117329 0.501859,1.12199 0.980063,2.267634 1.69673,3.199749 0.357375,0.501219 1.793266,0.763976 2.437052,1.026732 0.476286,0.214169 1.217886,0.404684 1.647503,0.667441 0.812564,0.50058 1.621931,1.07532 2.385907,1.625766 0.38039,0.286411 1.5759,0.883527 1.646864,1.361732 M 70.566478,-2.2335689 a 3.7207872,3.7207872 0 0 0 -0.977505,0.12019 v 0.04795 h 0.04603 c 0.192432,0.381668 0.526792,0.646343 0.765255,0.979423 0.192432,0.38294701 0.359292,0.76269801 0.547889,1.14500601 l 0.04603,-0.04731 c 0.336917,-0.238463 0.504416,-0.620771 0.504416,-1.19423201 -0.145123,-0.168778 -0.167499,-0.333721 -0.288329,-0.50122 -0.140648,-0.239102 -0.450714,-0.358014 -0.643786,-0.549807"
       fill="#5d87a1"
       id="path8"
       style="stroke-width:0.639311" />
    <path
       d="m 97.202712,44.905352 h 0.494826 v -2.421708 h -0.74224 l -0.605427,1.652618 -0.65785,-1.652618 h -0.714749 v 2.421708 h 0.467336 V 43.06286 h 0.02621 l 0.689177,1.842492 h 0.356096 l 0.68662,-1.842492 z m -3.986101,0 h 0.523595 v -2.01127 h 0.685341 v -0.411077 h -1.923046 v 0.411077 h 0.712831 z"
       fill="#f8981d"
       id="path10"
       style="stroke-width:0.639311" />
  </g>
</svg>
