<?xml version="1.0" encoding="UTF-8" standalone="no"?>
<svg
   height="24"
   width="24"
   viewBox="-58.46985 -50.32625 10.134774 9.058725"
   version="1.1"
   id="svg12"
   sodipodi:docname="mysql-icon.svg"
   inkscape:version="1.1 (c68e22c387, 2021-05-23)"
   xmlns:inkscape="http://www.inkscape.org/namespaces/inkscape"
   xmlns:sodipodi="http://sodipodi.sourceforge.net/DTD/sodipodi-0.dtd"
   xmlns="http://www.w3.org/2000/svg"
   xmlns:svg="http://www.w3.org/2000/svg">
  <defs
     id="defs16" />
  <sodipodi:namedview
     id="namedview14"
     pagecolor="#ffffff"
     bordercolor="#666666"
     borderopacity="1.0"
     inkscape:pageshadow="2"
     inkscape:pageopacity="0.0"
     inkscape:pagecheckerboard="0"
     showgrid="false"
     width="24px"
     inkscape:zoom="3.6433333"
     inkscape:cx="95.242452"
     inkscape:cy="52.561757"
     inkscape:window-width="1920"
     inkscape:window-height="1017"
     inkscape:window-x="-8"
     inkscape:window-y="-8"
     inkscape:window-maximized="1"
     inkscape:current-layer="svg12" />
  <text
     xml:space="preserve"
     style="font-style:normal;font-weight:normal;font-size:16.8913px;line-height:1.25;font-family:sans-serif;fill:#000000;fill-opacity:1;stroke:none;stroke-width:0.422282"
     x="-34.709229"
     y="-53.414196"
     id="text51837"><tspan
       sodipodi:role="line"
       id="tspan51835"
       style="stroke-width:0.422282"
       x="-34.709229"
       y="-53.414196" /></text>
  <path
     id="path114517"
     style="fill:#ffffff;stroke-width:0.0180363"
     d="m -53.34105,-50.282438 c -2.23051,0 -4.040312,0.592884 -4.040312,1.319499 v 0.824205 c 0,0.726616 1.809802,1.3195 4.040312,1.3195 2.23051,0 4.040313,-0.592884 4.040313,-1.3195 v -0.824205 c 0,-0.726615 -1.809803,-1.319499 -4.040313,-1.319499 z m -0.940066,0.520002 c 0.15337,0 0.295507,0.04974 0.426104,0.148807 l -0.117509,0.700658 c -0.07668,-0.216578 -0.16466,-0.32507 -0.264118,-0.32507 -0.0553,0 -0.08292,0.04383 -0.08292,0.131236 0,0.0272 0.0086,0.05475 0.02581,0.08292 0.01766,0.02817 0.06338,0.07267 0.137276,0.132882 0.08134,0.06702 0.144106,0.128043 0.187794,0.183402 0.04415,0.05439 0.07699,0.124292 0.09884,0.209757 0.02184,0.08547 0.03295,0.185083 0.03295,0.298713 0,0.237945 -0.04314,0.419428 -0.129588,0.544712 -0.08645,0.124314 -0.213849,0.186696 -0.381628,0.186696 -0.188228,0 -0.350332,-0.05579 -0.486506,-0.167477 l 0.114763,-0.742938 c 0.03346,0.108774 0.07483,0.195077 0.124097,0.259177 0.04972,0.0641 0.09777,0.09609 0.143316,0.09609 0.02231,0 0.04059,-0.01196 0.05546,-0.03624 0.01534,-0.02428 0.02306,-0.05399 0.02306,-0.08895 0,-0.03302 -0.0076,-0.06488 -0.02252,-0.095 -0.01441,-0.03011 -0.05257,-0.07177 -0.115311,-0.125195 -0.0567,-0.04759 -0.103941,-0.0937 -0.141121,-0.138375 -0.03718,-0.04565 -0.06922,-0.11031 -0.09664,-0.193835 -0.02742,-0.08352 -0.04118,-0.188507 -0.04118,-0.315734 0,-0.246686 0.04307,-0.433154 0.129041,-0.55844 0.08598,-0.125285 0.212751,-0.187793 0.38053,-0.187793 z m 1.07899,0 c 0.152441,0 0.281618,0.11145 0.387119,0.333856 0.105966,0.221434 0.158691,0.491502 0.158691,0.811027 0,0.232118 -0.02938,0.443184 -0.08841,0.632569 l 0.178459,0.480467 h -0.35527 l -0.03185,-0.08566 c -0.07901,0.08158 -0.161834,0.12245 -0.248745,0.12245 -0.151976,0 -0.280604,-0.11145 -0.38657,-0.333856 -0.1055,-0.223376 -0.15869,-0.495472 -0.15869,-0.815969 0,-0.319525 0.05319,-0.589593 0.15869,-0.811027 0.105966,-0.222406 0.234594,-0.333857 0.38657,-0.333857 z m 0.712738,0.03514 h 0.471132 v 1.664884 h 0.412926 v 0.557891 h -0.884058 z m -0.712738,0.817068 c -0.0302,0 -0.05524,0.02232 -0.07523,0.06699 -0.01999,0.0437 -0.02965,0.09936 -0.02965,0.166379 0,0.06702 0.0097,0.122801 0.02965,0.167477 0.01999,0.04371 0.04502,0.06535 0.07523,0.06535 0.03067,0 0.05634,-0.02164 0.07633,-0.06535 0.01999,-0.04467 0.02965,-0.100464 0.02965,-0.167477 0,-0.06702 -0.0097,-0.122675 -0.02965,-0.166379 -0.01999,-0.04467 -0.04566,-0.06699 -0.07633,-0.06699 z m -4.179236,1.802161 v 1.855424 c 0,0.726616 1.809802,1.31895 4.040312,1.31895 2.23051,0 4.040313,-0.592334 4.040313,-1.31895 v -1.855424 c -0.86802,0.597781 -2.456859,0.87637 -4.040313,0.87637 -1.583453,0 -3.172309,-0.278589 -4.040312,-0.87637 z m 0,2.886094 v 1.854875 c 0,0.726615 1.809802,1.319499 4.040312,1.319499 2.23051,0 4.040313,-0.592884 4.040313,-1.319499 v -1.854875 c -0.86802,0.597781 -2.456859,0.875822 -4.040313,0.875822 -1.583453,0 -3.172309,-0.278041 -4.040312,-0.875822 z" />
</svg>
