<?xml version="1.0" encoding="UTF-8" standalone="no"?>
<svg
   width="466"
   height="141"
   viewBox="0 0 4701 1420"
   fill="none"
   version="1.1"
   id="svg679"
   sodipodi:docname="main_logo.svg"
   inkscape:version="1.1 (c68e22c387, 2021-05-23)"
   xmlns:inkscape="http://www.inkscape.org/namespaces/inkscape"
   xmlns:sodipodi="http://sodipodi.sourceforge.net/DTD/sodipodi-0.dtd"
   xmlns="http://www.w3.org/2000/svg"
   xmlns:svg="http://www.w3.org/2000/svg">
  <sodipodi:namedview
     id="namedview681"
     pagecolor="#ffffff"
     bordercolor="#666666"
     borderopacity="1.0"
     inkscape:pageshadow="2"
     inkscape:pageopacity="0.0"
     inkscape:pagecheckerboard="0"
     showgrid="false"
     inkscape:zoom="0.36311423"
     inkscape:cx="2573.5703"
     inkscape:cy="629.27856"
     inkscape:window-width="1920"
     inkscape:window-height="1017"
     inkscape:window-x="-8"
     inkscape:window-y="-8"
     inkscape:window-maximized="1"
     inkscape:current-layer="svg679"
     inkscape:snap-global="true" />
  <path
     d="M1332.84 477.29L566.541 607.64C551.178 609.558 535.811 603.807 528.131 590.389L345.679 281.761C332.233 260.674 343.758 233.837 368.726 226.17L1108.14 1.88805C1125.42 -3.86277 1144.63 3.80498 1152.31 21.0574L1359.73 423.614C1373.17 444.702 1359.73 473.453 1332.84 477.29Z"
     fill="url(#paint0_linear)"
     id="path578" />
  <path
     d="M300.89 450.082L817.159 1031.45C826.754 1042.96 830.593 1060.23 822.918 1073.66L655.944 1396C642.511 1419.03 613.722 1424.78 594.53 1409.43L13.0074 899.058C-0.427107 887.548 -4.26553 866.44 5.33055 851.09L239.475 455.839C250.99 432.814 283.617 430.894 300.89 450.082Z"
     fill="url(#paint1_linear)"
     id="path580" />
  <path
     d="M379.584 790.57L592.56 377.215C604.07 356.068 584.884 331.074 561.86 336.842L272.14 409.898C266.383 411.822 262.546 413.743 260.627 419.511L5.44287 854.017C-2.23187 867.474 9.28021 884.776 24.6297 882.853L323.944 832.867C346.968 827.098 368.074 813.641 379.584 790.57Z"
     fill="#F27407"
     id="path582" />
  <path
     d="M803.713 1341.15L1084.58 615.939C1090.36 600.593 1103.82 591 1121.14 591H1484.73C1509.74 591 1528.98 614.022 1521.28 638.964L1334.68 1391.04C1330.83 1408.3 1313.51 1421.73 1294.28 1419.82L834.491 1392.96C811.406 1391.04 794.092 1366.1 803.713 1341.15Z"
     fill="url(#paint2_linear)"
     id="path584" />
  <path
     d="M1071.48 1116H598.982C577.854 1116 566.328 1140.85 579.775 1156.14L781.448 1383.59C785.29 1387.42 789.132 1389.33 794.895 1389.33L1296.2 1418C1311.57 1418 1323.09 1400.8 1313.49 1387.42L1131.02 1144.67C1117.57 1127.47 1094.52 1116 1071.48 1116Z"
     fill="#F27407"
     id="path586" />
  <path
     d="M1002.75 367.05L1229.17 751.434C1244.51 776.417 1282.89 772.574 1292.48 743.745L1376.91 480.443C1380.75 470.833 1378.83 461.224 1374.99 453.537L1162.01 42.245C1148.58 15.338 1110.2 17.2599 1098.69 44.1669L996.995 292.095C987.403 317.08 989.322 343.987 1002.75 367.05Z"
     fill="#F27407"
     id="path588" />
  <path
     d="M1890.44 1098.04C1883.13 1098.04 1876.54 1095.48 1870.68 1090.37C1865.56 1084.53 1863 1077.95 1863 1070.65V358.354C1863 350.318 1865.56 343.743 1870.68 338.629C1876.54 333.515 1883.13 330.958 1890.44 330.958H2403.09C2411.14 330.958 2417.72 333.515 2422.85 338.629C2427.97 343.743 2430.53 350.318 2430.53 358.354V461.362C2430.53 468.668 2427.97 475.243 2422.85 481.088C2417.72 486.201 2411.14 488.758 2403.09 488.758H2052.91V636.696H2378.94C2386.99 636.696 2393.57 639.618 2398.7 645.462C2403.82 650.576 2406.38 657.151 2406.38 665.188V760.525C2406.38 767.831 2403.82 774.406 2398.7 780.25C2393.57 785.364 2386.99 787.921 2378.94 787.921H2052.91V940.242H2411.87C2419.92 940.242 2426.51 942.799 2431.63 947.912C2436.75 953.026 2439.31 959.601 2439.31 967.638V1070.65C2439.31 1077.95 2436.75 1084.53 2431.63 1090.37C2426.51 1095.48 2419.92 1098.04 2411.87 1098.04H1890.44Z"
     fill="#1F17BF"
     id="path590"
     style="fill:#ffffff;fill-opacity:1" />
  <path
     d="M2591.54 1098.04C2584.22 1098.04 2577.63 1095.48 2571.78 1090.37C2566.66 1084.53 2564.09 1077.95 2564.09 1070.65V358.354C2564.09 350.318 2566.66 343.743 2571.78 338.629C2577.63 333.515 2584.22 330.958 2591.54 330.958H2876.95C2984.53 330.958 3067.96 356.528 3127.23 407.667C3186.51 458.806 3217.61 532.957 3220.54 630.121C3221.27 651.307 3221.64 679.433 3221.64 714.5C3221.64 749.567 3221.27 777.328 3220.54 797.783C3216.88 899.331 3186.51 974.943 3129.43 1024.62C3073.08 1073.57 2990.75 1098.04 2882.44 1098.04H2591.54ZM2876.95 940.242C2925.25 940.242 2960.74 928.918 2983.43 906.271C3006.12 882.893 3018.19 846 3019.66 795.592C3021.12 774.406 3021.85 747.01 3021.85 713.404C3021.85 679.799 3021.12 652.768 3019.66 632.312C3018.19 583.365 3005.02 547.203 2980.14 523.825C2955.99 500.447 2919.76 488.758 2871.46 488.758H2761.69V940.242H2876.95Z"
     fill="#1F17BF"
     id="path592"
     style="fill:#ffffff;fill-opacity:1" />
  <path
     d="M3663.83 1109C3560.64 1109 3479.41 1083.8 3420.13 1033.39C3360.85 982.979 3329.39 908.828 3325.73 810.933C3324.99 789.747 3324.63 758.333 3324.63 716.692C3324.63 674.319 3324.99 642.54 3325.73 621.354C3329.39 524.921 3361.22 450.769 3421.23 398.9C3481.97 346.3 3562.84 320 3663.83 320C3764.82 320 3845.69 346.3 3906.43 398.9C3967.17 450.769 3999.01 524.921 4001.93 621.354C4003.4 663.726 4004.13 695.506 4004.13 716.692C4004.13 737.147 4003.4 768.561 4001.93 810.933C3998.27 908.828 3966.81 982.979 3907.53 1033.39C3848.25 1083.8 3767.02 1109 3663.83 1109ZM3663.83 951.2C3704.08 951.2 3735.91 939.146 3759.33 915.037C3783.48 890.929 3796.29 854.036 3797.75 804.358C3799.22 761.986 3799.95 732.033 3799.95 714.5C3799.95 695.506 3799.22 665.553 3797.75 624.642C3796.29 574.964 3783.48 538.071 3759.33 513.962C3735.18 489.854 3703.35 477.8 3663.83 477.8C3624.31 477.8 3592.48 489.854 3568.33 513.962C3544.91 538.071 3532.1 574.964 3529.91 624.642C3529.17 645.097 3528.81 675.05 3528.81 714.5C3528.81 753.219 3529.17 783.172 3529.91 804.358C3532.1 854.036 3544.91 890.929 3568.33 915.037C3591.75 939.146 3623.58 951.2 3663.83 951.2Z"
     fill="#1F17BF"
     id="path594"
     style="fill:#ffffff;fill-opacity:1" />
  <path
     d="M4494.72 1098.04C4487.4 1098.04 4481.18 1095.85 4476.06 1091.47C4471.67 1086.35 4469.48 1080.14 4469.48 1072.84V915.037H4113.81C4106.49 915.037 4100.27 912.846 4095.15 908.462C4090.76 903.349 4088.56 897.139 4088.56 889.833V846C4088.56 835.042 4092.58 824.083 4100.64 813.125L4429.96 349.588C4433.62 343.743 4439.1 339.36 4446.42 336.437C4453.74 332.785 4461.79 330.958 4470.57 330.958H4549.61C4556.93 330.958 4562.78 333.515 4567.17 338.629C4572.3 343.013 4574.86 348.857 4574.86 356.162V819.7H4673.65C4680.97 819.7 4687.19 822.257 4692.32 827.371C4697.44 831.754 4700 837.599 4700 844.904V889.833C4700 897.139 4697.44 903.349 4692.32 908.462C4687.92 912.846 4682.07 915.037 4674.75 915.037H4574.86V1072.84C4574.86 1080.14 4572.3 1086.35 4567.17 1091.47C4562.78 1095.85 4556.93 1098.04 4549.61 1098.04H4494.72ZM4470.57 821.892V446.021L4206.02 821.892H4470.57Z"
     fill="#1F17BF"
     id="path596"
     style="fill:#ffffff;fill-opacity:1" />
  <path
     d="M4495.16 1097.08C4487.84 1097.08 4481.62 1094.89 4476.5 1090.51C4472.11 1085.39 4469.92 1079.18 4469.92 1071.88V914.079H4114.25C4106.93 914.079 4100.71 911.887 4095.59 907.504C4091.2 902.39 4089 896.18 4089 888.875V845.042C4089 834.083 4093.02 823.125 4101.07 812.167L4430.4 348.629C4434.06 342.785 4439.54 338.401 4446.86 335.479C4454.18 331.826 4462.23 330 4471.01 330H4550.05C4557.37 330 4563.22 332.557 4567.61 337.671C4572.74 342.054 4575.3 347.899 4575.3 355.204V818.742H4674.09C4681.41 818.742 4687.63 821.299 4692.76 826.412C4697.88 830.796 4700.44 836.64 4700.44 843.946V888.875C4700.44 896.18 4697.88 902.39 4692.76 907.504C4688.36 911.887 4682.51 914.079 4675.19 914.079H4575.3V1071.88C4575.3 1079.18 4572.74 1085.39 4567.61 1090.51C4563.22 1094.89 4557.37 1097.08 4550.05 1097.08H4495.16ZM4471.01 820.933V445.063L4206.46 820.933H4471.01Z"
     fill="#F27407"
     id="path598"
     style="fill:#ffffff;fill-opacity:1" />
  <path
     d="M3337.27 1366C3336.36 1366 3335.59 1365.68 3334.95 1365.05C3334.32 1364.51 3334 1363.74 3334 1362.75V1273.01C3334 1272.01 3334.32 1271.25 3334.95 1270.7C3335.59 1270.07 3336.36 1269.76 3337.27 1269.76H3348.01C3349.01 1269.76 3349.78 1270.07 3350.33 1270.7C3350.96 1271.25 3351.28 1272.01 3351.28 1273.01V1278.43C3356.36 1271.74 3363.62 1268.4 3373.05 1268.4C3382.21 1268.4 3389.24 1271.29 3394.14 1277.08C3399.04 1282.77 3401.67 1290.5 3402.03 1300.26C3402.12 1301.34 3402.17 1302.92 3402.17 1305C3402.17 1307.17 3402.12 1308.8 3402.03 1309.88C3401.67 1319.37 3399.04 1327.05 3394.14 1332.92C3389.24 1338.71 3382.21 1341.6 3373.05 1341.6C3363.89 1341.6 3356.9 1338.39 3352.1 1331.98V1362.75C3352.1 1363.74 3351.78 1364.51 3351.14 1365.05C3350.6 1365.68 3349.83 1366 3348.83 1366H3337.27ZM3368.02 1327.1C3377.81 1327.1 3383.03 1321.09 3383.66 1309.07C3383.75 1308.16 3383.8 1306.81 3383.8 1305C3383.8 1303.19 3383.75 1301.84 3383.66 1300.93C3383.03 1288.91 3377.81 1282.9 3368.02 1282.9C3362.75 1282.9 3358.85 1284.58 3356.31 1287.92C3353.77 1291.26 3352.37 1295.38 3352.1 1300.26L3351.96 1305.41L3352.1 1310.69C3352.28 1315.21 3353.68 1319.1 3356.31 1322.35C3359.04 1325.51 3362.94 1327.1 3368.02 1327.1Z"
     fill="#1F17BF"
     id="path600"
     style="fill:#ffffff;fill-opacity:1" />
  <path
     d="M3448.74 1341.6C3438.12 1341.6 3429.91 1338.89 3424.11 1333.47C3418.3 1327.95 3415.17 1320.45 3414.72 1310.96L3414.58 1305L3414.72 1299.04C3415.17 1289.64 3418.35 1282.18 3424.24 1276.67C3430.14 1271.16 3438.3 1268.4 3448.74 1268.4C3459.17 1268.4 3467.33 1271.16 3473.23 1276.67C3479.12 1282.18 3482.3 1289.64 3482.75 1299.04C3482.84 1300.12 3482.89 1302.11 3482.89 1305C3482.89 1307.89 3482.84 1309.88 3482.75 1310.96C3482.3 1320.45 3479.17 1327.95 3473.36 1333.47C3467.56 1338.89 3459.35 1341.6 3448.74 1341.6ZM3448.74 1328.18C3453.54 1328.18 3457.26 1326.69 3459.89 1323.71C3462.52 1320.63 3463.97 1316.16 3464.25 1310.29C3464.34 1309.38 3464.38 1307.62 3464.38 1305C3464.38 1302.38 3464.34 1300.62 3464.25 1299.71C3463.97 1293.84 3462.52 1289.41 3459.89 1286.43C3457.26 1283.36 3453.54 1281.82 3448.74 1281.82C3443.93 1281.82 3440.21 1283.36 3437.58 1286.43C3434.95 1289.41 3433.5 1293.84 3433.22 1299.71L3433.09 1305L3433.22 1310.29C3433.5 1316.16 3434.95 1320.63 3437.58 1323.71C3440.21 1326.69 3443.93 1328.18 3448.74 1328.18Z"
     fill="#1F17BF"
     id="path602"
     style="fill:#ffffff;fill-opacity:1" />
  <path
     d="M3515.29 1340.24C3514.11 1340.24 3513.16 1339.97 3512.43 1339.43C3511.8 1338.8 3511.25 1337.94 3510.8 1336.86L3491.34 1273.96C3491.25 1273.69 3491.21 1273.28 3491.21 1272.74C3491.21 1271.92 3491.48 1271.25 3492.02 1270.7C3492.66 1270.07 3493.34 1269.76 3494.07 1269.76H3504.13C3505.13 1269.76 3505.95 1270.03 3506.58 1270.57C3507.22 1271.11 3507.63 1271.7 3507.81 1272.33L3521.14 1317.2L3535.29 1272.74C3535.56 1271.92 3536.02 1271.25 3536.65 1270.7C3537.38 1270.07 3538.29 1269.76 3539.37 1269.76H3546.18C3547.27 1269.76 3548.13 1270.07 3548.76 1270.7C3549.49 1271.25 3549.99 1271.92 3550.26 1272.74L3564.41 1317.2L3577.74 1272.33C3577.83 1271.7 3578.2 1271.11 3578.83 1270.57C3579.56 1270.03 3580.37 1269.76 3581.28 1269.76H3591.35C3592.17 1269.76 3592.85 1270.07 3593.39 1270.7C3594.03 1271.25 3594.34 1271.92 3594.34 1272.74L3594.07 1273.96L3574.61 1336.86C3574.25 1337.94 3573.71 1338.8 3572.98 1339.43C3572.35 1339.97 3571.44 1340.24 3570.26 1340.24H3561.42C3559.06 1340.24 3557.56 1339.11 3556.93 1336.86L3542.78 1294.02L3528.62 1336.86C3527.9 1339.11 3526.36 1340.24 3524 1340.24H3515.29Z"
     fill="#1F17BF"
     id="path604"
     style="fill:#ffffff;fill-opacity:1" />
  <path
     d="M3636.07 1341.6C3626 1341.6 3617.97 1338.71 3611.99 1332.92C3606.09 1327.05 3602.96 1318.83 3602.6 1308.25L3602.46 1304.86L3602.6 1301.48C3603.05 1291.17 3606.23 1283.09 3612.12 1277.21C3618.11 1271.34 3626.09 1268.4 3636.07 1268.4C3646.77 1268.4 3655.03 1271.65 3660.83 1278.16C3666.73 1284.67 3669.68 1293.34 3669.68 1304.19V1307.03C3669.68 1307.94 3669.36 1308.71 3668.72 1309.34C3668.09 1309.97 3667.27 1310.29 3666.27 1310.29H3621.1V1311.37C3621.28 1316.34 3622.64 1320.54 3625.18 1323.98C3627.81 1327.32 3631.4 1328.99 3635.93 1328.99C3641.28 1328.99 3645.59 1326.91 3648.86 1322.76C3649.68 1321.76 3650.31 1321.13 3650.76 1320.86C3651.31 1320.59 3652.08 1320.45 3653.08 1320.45H3664.78C3665.59 1320.45 3666.27 1320.72 3666.82 1321.27C3667.45 1321.72 3667.77 1322.31 3667.77 1323.03C3667.77 1325.2 3666.46 1327.77 3663.83 1330.76C3661.29 1333.65 3657.61 1336.18 3652.8 1338.35C3648 1340.52 3642.42 1341.6 3636.07 1341.6ZM3651.17 1298.9V1298.49C3651.17 1293.16 3649.81 1288.87 3647.09 1285.62C3644.46 1282.36 3640.79 1280.74 3636.07 1280.74C3631.35 1280.74 3627.68 1282.36 3625.05 1285.62C3622.42 1288.87 3621.1 1293.16 3621.1 1298.49V1298.9H3651.17Z"
     fill="#1F17BF"
     id="path606"
     style="fill:#ffffff;fill-opacity:1" />
  <path
     d="M3687.38 1340.24C3686.48 1340.24 3685.71 1339.93 3685.07 1339.3C3684.44 1338.66 3684.12 1337.89 3684.12 1336.99V1273.14C3684.12 1272.24 3684.44 1271.47 3685.07 1270.84C3685.71 1270.12 3686.48 1269.76 3687.38 1269.76H3698.41C3699.4 1269.76 3700.22 1270.07 3700.85 1270.7C3701.49 1271.34 3701.81 1272.15 3701.81 1273.14V1278.7C3703.98 1275.81 3706.71 1273.6 3709.97 1272.06C3713.33 1270.52 3717.14 1269.76 3721.4 1269.76H3726.98C3727.98 1269.76 3728.75 1270.07 3729.29 1270.7C3729.93 1271.25 3730.24 1272.01 3730.24 1273.01V1282.77C3730.24 1283.67 3729.93 1284.44 3729.29 1285.07C3728.75 1285.71 3727.98 1286.02 3726.98 1286.02H3716.37C3712.1 1286.02 3708.75 1287.24 3706.3 1289.68C3703.85 1292.12 3702.62 1295.47 3702.62 1299.71V1336.99C3702.62 1337.89 3702.31 1338.66 3701.67 1339.3C3701.04 1339.93 3700.22 1340.24 3699.22 1340.24H3687.38Z"
     fill="#1F17BF"
     id="path608"
     style="fill:#ffffff;fill-opacity:1" />
  <path
     d="M3770.4 1341.6C3760.34 1341.6 3752.31 1338.71 3746.32 1332.92C3740.42 1327.05 3737.3 1318.83 3736.93 1308.25L3736.8 1304.86L3736.93 1301.48C3737.39 1291.17 3740.56 1283.09 3746.46 1277.21C3752.44 1271.34 3760.43 1268.4 3770.4 1268.4C3781.11 1268.4 3789.36 1271.65 3795.17 1278.16C3801.06 1284.67 3804.01 1293.34 3804.01 1304.19V1307.03C3804.01 1307.94 3803.69 1308.71 3803.06 1309.34C3802.42 1309.97 3801.61 1310.29 3800.61 1310.29H3755.44V1311.37C3755.62 1316.34 3756.98 1320.54 3759.52 1323.98C3762.15 1327.32 3765.73 1328.99 3770.27 1328.99C3775.62 1328.99 3779.93 1326.91 3783.19 1322.76C3784.01 1321.76 3784.65 1321.13 3785.1 1320.86C3785.64 1320.59 3786.41 1320.45 3787.41 1320.45H3799.11C3799.93 1320.45 3800.61 1320.72 3801.15 1321.27C3801.79 1321.72 3802.11 1322.31 3802.11 1323.03C3802.11 1325.2 3800.79 1327.77 3798.16 1330.76C3795.62 1333.65 3791.95 1336.18 3787.14 1338.35C3782.33 1340.52 3776.75 1341.6 3770.4 1341.6ZM3785.51 1298.9V1298.49C3785.51 1293.16 3784.15 1288.87 3781.43 1285.62C3778.79 1282.36 3775.12 1280.74 3770.4 1280.74C3765.69 1280.74 3762.01 1282.36 3759.38 1285.62C3756.75 1288.87 3755.44 1293.16 3755.44 1298.49V1298.9H3785.51Z"
     fill="#1F17BF"
     id="path610"
     style="fill:#ffffff;fill-opacity:1" />
  <path
     d="M3844.71 1341.6C3835.55 1341.6 3828.52 1338.66 3823.62 1332.79C3818.73 1326.91 3816.1 1319.1 3815.73 1309.34L3815.6 1304.86L3815.73 1300.53C3816.01 1291.04 3818.59 1283.31 3823.49 1277.35C3828.48 1271.38 3835.55 1268.4 3844.71 1268.4C3853.51 1268.4 3860.5 1271.38 3865.67 1277.35V1247.25C3865.67 1246.26 3865.99 1245.49 3866.62 1244.95C3867.26 1244.32 3868.03 1244 3868.93 1244H3880.5C3881.5 1244 3882.27 1244.32 3882.81 1244.95C3883.45 1245.49 3883.76 1246.26 3883.76 1247.25V1336.99C3883.76 1337.89 3883.45 1338.66 3882.81 1339.3C3882.27 1339.93 3881.5 1340.24 3880.5 1340.24H3869.75C3868.84 1340.24 3868.07 1339.93 3867.44 1339.3C3866.8 1338.66 3866.48 1337.89 3866.48 1336.99V1331.98C3861.31 1338.39 3854.06 1341.6 3844.71 1341.6ZM3849.75 1327.1C3855.01 1327.1 3858.91 1325.42 3861.45 1322.08C3863.99 1318.74 3865.4 1314.62 3865.67 1309.74C3865.76 1308.66 3865.8 1306.9 3865.8 1304.46C3865.8 1302.11 3865.76 1300.39 3865.67 1299.31C3865.49 1294.79 3864.04 1290.95 3861.31 1287.78C3858.68 1284.53 3854.83 1282.9 3849.75 1282.9C3839.95 1282.9 3834.74 1288.91 3834.1 1300.93L3833.97 1305L3834.1 1309.07C3834.74 1321.09 3839.95 1327.1 3849.75 1327.1Z"
     fill="#1F17BF"
     id="path612"
     style="fill:#ffffff;fill-opacity:1" />
  <path
     d="M3972.18 1341.6C3962.83 1341.6 3955.58 1338.39 3950.41 1331.98V1336.99C3950.41 1337.89 3950.09 1338.66 3949.46 1339.3C3948.91 1339.93 3948.14 1340.24 3947.14 1340.24H3936.39C3935.49 1340.24 3934.72 1339.93 3934.08 1339.3C3933.45 1338.66 3933.13 1337.89 3933.13 1336.99V1247.25C3933.13 1246.26 3933.45 1245.49 3934.08 1244.95C3934.72 1244.32 3935.49 1244 3936.39 1244H3947.96C3948.96 1244 3949.73 1244.32 3950.27 1244.95C3950.91 1245.49 3951.22 1246.26 3951.22 1247.25V1277.35C3956.39 1271.38 3963.38 1268.4 3972.18 1268.4C3981.34 1268.4 3988.37 1271.38 3993.27 1277.35C3998.17 1283.31 4000.8 1291.04 4001.16 1300.53C4001.25 1301.61 4001.3 1303.06 4001.3 1304.86C4001.3 1306.76 4001.25 1308.25 4001.16 1309.34C4000.8 1319.1 3998.17 1326.91 3993.27 1332.79C3988.37 1338.66 3981.34 1341.6 3972.18 1341.6ZM3967.14 1327.1C3976.94 1327.1 3982.16 1321.09 3982.79 1309.07C3982.88 1308.16 3982.93 1306.81 3982.93 1305C3982.93 1303.19 3982.88 1301.84 3982.79 1300.93C3982.16 1288.91 3976.94 1282.9 3967.14 1282.9C3962.06 1282.9 3958.16 1284.53 3955.44 1287.78C3952.81 1290.95 3951.41 1294.79 3951.22 1299.31L3951.09 1304.46L3951.22 1309.74C3951.5 1314.62 3952.9 1318.74 3955.44 1322.08C3957.98 1325.42 3961.88 1327.1 3967.14 1327.1Z"
     fill="#1F17BF"
     id="path614"
     style="fill:#ffffff;fill-opacity:1" />
  <path
     d="M4026.3 1366C4025.58 1366 4024.94 1365.73 4024.4 1365.19C4023.85 1364.64 4023.58 1364.01 4023.58 1363.29C4023.58 1362.48 4023.76 1361.75 4024.13 1361.12L4034.74 1336.04L4008.61 1274.64C4008.25 1273.82 4008.07 1273.19 4008.07 1272.74C4008.16 1271.92 4008.48 1271.25 4009.02 1270.7C4009.57 1270.07 4010.25 1269.76 4011.06 1269.76H4022.09C4023.81 1269.76 4025.03 1270.61 4025.76 1272.33L4043.86 1316.66L4062.5 1272.33C4063.22 1270.61 4064.45 1269.76 4066.17 1269.76H4077.05C4077.78 1269.76 4078.42 1270.03 4078.96 1270.57C4079.59 1271.11 4079.91 1271.74 4079.91 1272.47C4079.91 1273.1 4079.73 1273.82 4079.37 1274.64L4040.86 1363.42C4040.05 1365.14 4038.78 1366 4037.05 1366H4026.3Z"
     fill="#1F17BF"
     id="path616"
     style="fill:#ffffff;fill-opacity:1" />
  <path
     d="M4124.05 1340.24C4123.14 1340.24 4122.37 1339.93 4121.73 1339.3C4121.1 1338.66 4120.78 1337.89 4120.78 1336.99V1248.74C4120.78 1247.75 4121.05 1246.94 4121.6 1246.3C4122.23 1245.67 4123.05 1245.36 4124.05 1245.36H4157.25C4183.91 1245.36 4197.52 1257.65 4198.06 1282.23C4198.25 1287.47 4198.34 1290.99 4198.34 1292.8C4198.34 1294.52 4198.25 1298 4198.06 1303.24C4197.7 1315.89 4194.3 1325.24 4187.86 1331.3C4181.42 1337.26 4171.44 1340.24 4157.93 1340.24H4124.05ZM4157.25 1324.66C4164.86 1324.66 4170.35 1322.98 4173.71 1319.64C4177.07 1316.21 4178.83 1310.6 4179.02 1302.83C4179.2 1297.41 4179.29 1294.02 4179.29 1292.66C4179.29 1291.22 4179.2 1287.87 4179.02 1282.63C4178.83 1275.22 4176.93 1269.76 4173.3 1266.23C4169.76 1262.71 4164.18 1260.94 4156.56 1260.94H4139.69V1324.66H4157.25Z"
     fill="#1F17BF"
     id="path618"
     style="fill:#ffffff;fill-opacity:1" />
  <path
     d="M4245.29 1341.6C4235.23 1341.6 4227.2 1338.71 4221.21 1332.92C4215.32 1327.05 4212.19 1318.83 4211.82 1308.25L4211.69 1304.86L4211.82 1301.48C4212.28 1291.17 4215.45 1283.09 4221.35 1277.21C4227.33 1271.34 4235.32 1268.4 4245.29 1268.4C4256 1268.4 4264.25 1271.65 4270.06 1278.16C4275.95 1284.67 4278.9 1293.34 4278.9 1304.19V1307.03C4278.9 1307.94 4278.58 1308.71 4277.95 1309.34C4277.31 1309.97 4276.5 1310.29 4275.5 1310.29H4230.33V1311.37C4230.51 1316.34 4231.87 1320.54 4234.41 1323.98C4237.04 1327.32 4240.62 1328.99 4245.16 1328.99C4250.51 1328.99 4254.82 1326.91 4258.08 1322.76C4258.9 1321.76 4259.54 1321.13 4259.99 1320.86C4260.53 1320.59 4261.3 1320.45 4262.3 1320.45H4274C4274.82 1320.45 4275.5 1320.72 4276.05 1321.27C4276.68 1321.72 4277 1322.31 4277 1323.03C4277 1325.2 4275.68 1327.77 4273.05 1330.76C4270.51 1333.65 4266.84 1336.18 4262.03 1338.35C4257.22 1340.52 4251.64 1341.6 4245.29 1341.6ZM4260.4 1298.9V1298.49C4260.4 1293.16 4259.04 1288.87 4256.32 1285.62C4253.69 1282.36 4250.01 1280.74 4245.29 1280.74C4240.58 1280.74 4236.9 1282.36 4234.27 1285.62C4231.64 1288.87 4230.33 1293.16 4230.33 1298.49V1298.9H4260.4Z"
     fill="#1F17BF"
     id="path620"
     style="fill:#ffffff;fill-opacity:1" />
  <path
     d="M4315.86 1340.24C4314.5 1340.24 4313.45 1339.97 4312.73 1339.43C4312 1338.8 4311.41 1337.94 4310.96 1336.86L4285.51 1273.96L4285.24 1272.74C4285.24 1271.92 4285.51 1271.25 4286.06 1270.7C4286.69 1270.07 4287.42 1269.76 4288.24 1269.76H4299.26C4300.98 1269.76 4302.16 1270.61 4302.79 1272.33L4320.89 1319.91L4338.99 1272.33C4339.26 1271.7 4339.67 1271.11 4340.21 1270.57C4340.85 1270.03 4341.62 1269.76 4342.52 1269.76H4353.68C4354.41 1269.76 4355.04 1270.07 4355.59 1270.7C4356.22 1271.25 4356.54 1271.92 4356.54 1272.74C4356.54 1273.28 4356.49 1273.69 4356.4 1273.96L4330.82 1336.86C4330.37 1337.94 4329.78 1338.8 4329.05 1339.43C4328.33 1339.97 4327.29 1340.24 4325.92 1340.24H4315.86Z"
     fill="#1F17BF"
     id="path622"
     style="fill:#ffffff;fill-opacity:1" />
  <path
     d="M4407.32 1341.6C4394.8 1341.6 4385.1 1338.39 4378.2 1331.98C4371.4 1325.56 4367.77 1316.52 4367.32 1304.86C4367.23 1302.42 4367.18 1298.45 4367.18 1292.94C4367.18 1287.33 4367.23 1283.27 4367.32 1280.74C4367.77 1269.17 4371.44 1260.18 4378.34 1253.76C4385.32 1247.25 4394.98 1244 4407.32 1244C4415.39 1244 4422.42 1245.4 4428.41 1248.2C4434.4 1250.91 4439.02 1254.66 4442.29 1259.45C4445.55 1264.15 4447.28 1269.48 4447.46 1275.45V1275.72C4447.46 1276.44 4447.14 1277.08 4446.51 1277.62C4445.96 1278.07 4445.33 1278.3 4444.6 1278.3H4431.68C4430.59 1278.3 4429.77 1278.07 4429.23 1277.62C4428.68 1277.17 4428.23 1276.31 4427.87 1275.04C4426.41 1269.35 4424.01 1265.37 4420.65 1263.11C4417.3 1260.76 4412.81 1259.59 4407.18 1259.59C4394.12 1259.59 4387.32 1266.86 4386.77 1281.41C4386.68 1283.85 4386.64 1287.6 4386.64 1292.66C4386.64 1297.73 4386.68 1301.57 4386.77 1304.19C4387.32 1318.74 4394.12 1326.01 4407.18 1326.01C4412.81 1326.01 4417.3 1324.84 4420.65 1322.49C4424.1 1320.14 4426.5 1316.16 4427.87 1310.56C4428.14 1309.29 4428.55 1308.43 4429.09 1307.98C4429.73 1307.53 4430.59 1307.3 4431.68 1307.3H4444.6C4445.42 1307.3 4446.1 1307.58 4446.64 1308.12C4447.28 1308.66 4447.55 1309.34 4447.46 1310.15C4447.28 1316.12 4445.55 1321.49 4442.29 1326.28C4439.02 1330.98 4434.4 1334.73 4428.41 1337.53C4422.42 1340.24 4415.39 1341.6 4407.32 1341.6Z"
     fill="#1F17BF"
     id="path624"
     style="fill:#ffffff;fill-opacity:1" />
  <path
     d="M4488.22 1341.6C4479.88 1341.6 4473.3 1338.89 4468.49 1333.47C4463.69 1327.95 4461.28 1320.5 4461.28 1311.1V1273.01C4461.28 1272.11 4461.6 1271.34 4462.23 1270.7C4462.87 1270.07 4463.64 1269.76 4464.55 1269.76H4476.52C4477.52 1269.76 4478.29 1270.07 4478.83 1270.7C4479.47 1271.25 4479.79 1272.01 4479.79 1273.01V1310.29C4479.79 1321.49 4484.73 1327.1 4494.62 1327.1C4499.33 1327.1 4503.05 1325.6 4505.77 1322.62C4508.59 1319.64 4509.99 1315.53 4509.99 1310.29V1273.01C4509.99 1272.11 4510.31 1271.34 4510.94 1270.7C4511.58 1270.07 4512.35 1269.76 4513.26 1269.76H4525.23C4526.23 1269.76 4527 1270.07 4527.54 1270.7C4528.18 1271.25 4528.5 1272.01 4528.5 1273.01V1336.99C4528.5 1337.89 4528.18 1338.66 4527.54 1339.3C4527 1339.93 4526.23 1340.24 4525.23 1340.24H4514.21C4513.3 1340.24 4512.53 1339.93 4511.9 1339.3C4511.26 1338.66 4510.94 1337.89 4510.94 1336.99V1331.43C4505.86 1338.21 4498.29 1341.6 4488.22 1341.6Z"
     fill="#1F17BF"
     id="path626"
     style="fill:#ffffff;fill-opacity:1" />
  <path
     d="M4585.66 1341.6C4576.31 1341.6 4569.06 1338.39 4563.89 1331.98V1336.99C4563.89 1337.89 4563.57 1338.66 4562.93 1339.3C4562.39 1339.93 4561.62 1340.24 4560.62 1340.24H4549.87C4548.96 1340.24 4548.19 1339.93 4547.56 1339.3C4546.92 1338.66 4546.61 1337.89 4546.61 1336.99V1247.25C4546.61 1246.26 4546.92 1245.49 4547.56 1244.95C4548.19 1244.32 4548.96 1244 4549.87 1244H4561.44C4562.43 1244 4563.21 1244.32 4563.75 1244.95C4564.38 1245.49 4564.7 1246.26 4564.7 1247.25V1277.35C4569.87 1271.38 4576.86 1268.4 4585.66 1268.4C4594.82 1268.4 4601.85 1271.38 4606.75 1277.35C4611.64 1283.31 4614.27 1291.04 4614.64 1300.53C4614.73 1301.61 4614.77 1303.06 4614.77 1304.86C4614.77 1306.76 4614.73 1308.25 4614.64 1309.34C4614.27 1319.1 4611.64 1326.91 4606.75 1332.79C4601.85 1338.66 4594.82 1341.6 4585.66 1341.6ZM4580.62 1327.1C4590.42 1327.1 4595.63 1321.09 4596.27 1309.07C4596.36 1308.16 4596.4 1306.81 4596.4 1305C4596.4 1303.19 4596.36 1301.84 4596.27 1300.93C4595.63 1288.91 4590.42 1282.9 4580.62 1282.9C4575.54 1282.9 4571.64 1284.53 4568.92 1287.78C4566.29 1290.95 4564.88 1294.79 4564.7 1299.31L4564.57 1304.46L4564.7 1309.74C4564.97 1314.62 4566.38 1318.74 4568.92 1322.08C4571.46 1325.42 4575.36 1327.1 4580.62 1327.1Z"
     fill="#1F17BF"
     id="path628"
     style="fill:#ffffff;fill-opacity:1" />
  <path
     d="M4660.39 1341.6C4650.32 1341.6 4642.3 1338.71 4636.31 1332.92C4630.41 1327.05 4627.28 1318.83 4626.92 1308.25L4626.79 1304.86L4626.92 1301.48C4627.37 1291.17 4630.55 1283.09 4636.45 1277.21C4642.43 1271.34 4650.41 1268.4 4660.39 1268.4C4671.1 1268.4 4679.35 1271.65 4685.16 1278.16C4691.05 1284.67 4694 1293.34 4694 1304.19V1307.03C4694 1307.94 4693.68 1308.71 4693.05 1309.34C4692.41 1309.97 4691.6 1310.29 4690.6 1310.29H4645.43V1311.37C4645.61 1316.34 4646.97 1320.54 4649.51 1323.98C4652.14 1327.32 4655.72 1328.99 4660.26 1328.99C4665.61 1328.99 4669.92 1326.91 4673.18 1322.76C4674 1321.76 4674.63 1321.13 4675.09 1320.86C4675.63 1320.59 4676.4 1320.45 4677.4 1320.45H4689.1C4689.92 1320.45 4690.6 1320.72 4691.14 1321.27C4691.78 1321.72 4692.1 1322.31 4692.1 1323.03C4692.1 1325.2 4690.78 1327.77 4688.15 1330.76C4685.61 1333.65 4681.94 1336.18 4677.13 1338.35C4672.32 1340.52 4666.74 1341.6 4660.39 1341.6ZM4675.5 1298.9V1298.49C4675.5 1293.16 4674.13 1288.87 4671.41 1285.62C4668.78 1282.36 4665.11 1280.74 4660.39 1280.74C4655.68 1280.74 4652 1282.36 4649.37 1285.62C4646.74 1288.87 4645.43 1293.16 4645.43 1298.49V1298.9H4675.5Z"
     fill="#1F17BF"
     id="path630"
     style="fill:#ffffff;fill-opacity:1" />
  <defs
     id="defs677">
    <linearGradient
       id="paint0_linear"
       x1="339.398"
       y1="304.815"
       x2="1365.98"
       y2="304.815"
       gradientUnits="userSpaceOnUse">
      <stop
         stop-color="#04005E"
         id="stop632" />
      <stop
         offset="0.0388729"
         stop-color="#060266"
         id="stop634" />
      <stop
         offset="0.2107"
         stop-color="#0F0A86"
         id="stop636" />
      <stop
         offset="0.389"
         stop-color="#160F9F"
         id="stop638" />
      <stop
         offset="0.5745"
         stop-color="#1B14B1"
         id="stop640" />
      <stop
         offset="0.7715"
         stop-color="#1E16BC"
         id="stop642" />
      <stop
         offset="1"
         stop-color="#1F17BF"
         id="stop644" />
    </linearGradient>
    <linearGradient
       id="paint1_linear"
       x1="-0.485616"
       y1="928.816"
       x2="827.792"
       y2="928.816"
       gradientUnits="userSpaceOnUse">
      <stop
         stop-color="#04005E"
         id="stop647" />
      <stop
         offset="0.0388729"
         stop-color="#060266"
         id="stop649" />
      <stop
         offset="0.2107"
         stop-color="#0F0A86"
         id="stop651" />
      <stop
         offset="0.389"
         stop-color="#160F9F"
         id="stop653" />
      <stop
         offset="0.5745"
         stop-color="#1B14B1"
         id="stop655" />
      <stop
         offset="0.7715"
         stop-color="#1E16BC"
         id="stop657" />
      <stop
         offset="1"
         stop-color="#1F17BF"
         id="stop659" />
    </linearGradient>
    <linearGradient
       id="paint2_linear"
       x1="800.576"
       y1="1006.61"
       x2="1523.69"
       y2="1006.61"
       gradientUnits="userSpaceOnUse">
      <stop
         stop-color="#04005E"
         id="stop662" />
      <stop
         offset="0.0388729"
         stop-color="#060266"
         id="stop664" />
      <stop
         offset="0.2107"
         stop-color="#0F0A86"
         id="stop666" />
      <stop
         offset="0.389"
         stop-color="#160F9F"
         id="stop668" />
      <stop
         offset="0.5745"
         stop-color="#1B14B1"
         id="stop670" />
      <stop
         offset="0.7715"
         stop-color="#1E16BC"
         id="stop672" />
      <stop
         offset="1"
         stop-color="#1F17BF"
         id="stop674" />
    </linearGradient>
  </defs>
</svg>
