<svg width="24" height="24" viewBox="0 0 24 24" fill="none" xmlns="http://www.w3.org/2000/svg">
<path d="M18.6 8.25H2.4C1.90294 8.25 1.5 8.54381 1.5 8.90625V18.0938C1.5 18.4562 1.90294 18.75 2.4 18.75H18.6C19.0971 18.75 19.5 18.4562 19.5 18.0938V8.90625C19.5 8.54381 19.0971 8.25 18.6 8.25Z" stroke="#D3D3D3" stroke-width="2" stroke-linecap="round" stroke-linejoin="round"/>
<path d="M4.5 7.875V5.90625C4.5 5.7322 4.59482 5.56528 4.7636 5.44221C4.93239 5.31914 5.16131 5.25 5.4 5.25H21.6C21.8387 5.25 22.0676 5.31914 22.2364 5.44221C22.4052 5.56528 22.5 5.7322 22.5 5.90625V15.0937C22.5 15.2678 22.4052 15.4347 22.2364 15.5578C22.0676 15.6809 21.8387 15.75 21.6 15.75H19.5" stroke="#D3D3D3" stroke-width="2" stroke-linecap="round" stroke-linejoin="round"/>
</svg>
